<svg width="214" height="60" viewBox="0 0 214 60" fill="none" xmlns="http://www.w3.org/2000/svg">
<path d="M57.8143 0H49.7537V40.4422H57.8143V0Z" fill="white"/>
<path d="M40.7201 7.29627V40.4422H32.6595V7.29627H25.8496V0H47.53V7.29627H40.7201Z" fill="white"/>
<path d="M16.6772 40.4422L8.06064 20.7075V40.4422H0V0H7.01832L15.4264 19.8042V0H23.487V40.4422H16.6772Z" fill="white"/>
<path d="M76.4372 17.5807H62.1921V23.2092H76.4372V17.5807Z" fill="white"/>
<path d="M99.7158 37.5237C98.1176 39.2609 95.338 40.5117 91.7941 40.5117C88.2502 40.5117 85.5402 39.3999 83.9419 37.5932C82.1353 35.6475 81.5793 32.868 81.5793 28.7682H88.8061C88.8061 30.3664 88.9451 31.5477 89.5705 32.3815C89.9874 32.868 90.6823 33.2849 91.7941 33.2849C92.9059 33.2849 93.6008 32.9375 94.0872 32.3121C94.5737 31.6867 94.7821 30.5749 94.7821 28.9766C94.7821 25.1548 94.2262 24.5294 91.6551 23.3481L87.0689 21.3329C83.386 19.6652 81.8573 17.5111 81.8573 11.3266C81.8573 7.64371 82.9691 4.58623 85.1232 2.50158C86.8605 0.903348 89.0841 0 91.8636 0C95.0601 0 97.4227 0.903348 99.0209 2.50158C101.036 4.44725 101.87 7.7132 101.87 11.7435H94.5042C94.5042 10.3538 94.5042 9.10297 93.8788 8.13013C93.4618 7.50474 92.8365 7.1573 91.7941 7.1573C90.7518 7.1573 90.1264 7.57423 89.7095 8.19962C89.2926 8.82502 89.1536 9.65887 89.1536 10.9792C89.1536 13.4807 89.5705 14.2451 91.6551 15.1484L96.1719 17.0941C100.758 19.1093 102.078 21.4024 102.078 28.5597C102.078 32.729 101.592 35.439 99.7158 37.5237Z" fill="white"/>
<path d="M121.049 40.4421L119.867 34.2576H111.459L110.278 40.4421H102.704L112.015 0.83374H119.173L128.554 40.4421H121.049ZM115.698 12.4383L112.849 27.1698H118.478L115.698 12.4383Z" fill="white"/>
<path d="M130.638 40.4421V0.83374H137.934V33.3543H147.385V40.4421H130.638Z" fill="white"/>
<path d="M159.128 7.92155V40.4421H151.901V7.92155H145.786V0.83374H165.243V7.92155H159.128Z" fill="white"/>
<path d="M185.395 37.1762C183.449 39.3304 180.878 40.5117 177.821 40.5117C174.763 40.5117 172.192 39.3998 170.246 37.1762C168.509 35.2305 167.536 32.5205 167.536 29.3935V0.347412H174.763V29.741C174.763 32.2425 176.083 33.3544 177.821 33.3544C179.419 33.3544 180.878 32.3815 180.878 29.741V0.347412H188.105V29.324C188.105 32.5205 187.063 35.1611 185.395 37.1762Z" fill="white"/>
<path d="M206.172 40.3727L201.724 24.9463H199.362V40.3727H192.135V0.764404H202.489C210.41 0.764404 212.634 5.28114 212.634 12.8554C212.634 17.0942 212.078 20.8465 208.534 23.2786L213.815 40.4422H206.172V40.3727ZM202.419 7.85221H199.362V17.8585H202.419C205.199 17.8585 205.338 15.1485 205.338 12.8554C205.338 10.5623 205.199 7.85221 202.419 7.85221Z" fill="white"/>
<path d="M6.61028 57.7448L2.76094 52.6722V57.8143H1.04248V49.6842H2.6922L6.40406 54.6179V49.6842H8.12252V57.7448H6.61028Z" fill="white"/>
<path d="M13.6216 57.7448V56.8415C13.2091 57.3279 12.728 57.8143 11.8344 57.8143C10.5283 57.8143 9.77222 56.911 9.77222 55.5212V51.5604H11.4907V55.0348C11.4907 55.8686 11.9031 56.2856 12.5217 56.2856C13.2091 56.2856 13.6216 55.8686 13.6216 55.0348V51.5604H15.34V57.7448H13.6216ZM11.7656 50.935L13.0717 48.9198L14.5839 49.5452L13.1404 50.935H11.7656Z" fill="white"/>
<path d="M19.8082 57.8838C17.9523 57.8838 16.6462 56.4245 16.6462 54.6873C16.6462 52.9501 17.9523 51.4908 19.8769 51.4908C21.0455 51.4908 21.7329 51.9078 22.2828 52.5332L21.2517 53.7145C20.8393 53.2975 20.4956 53.0196 19.8769 53.0196C18.9833 53.0196 18.3647 53.784 18.3647 54.6873C18.3647 55.6601 18.9833 56.4245 19.9457 56.4245C20.4956 56.4245 20.908 56.1466 21.3204 55.7991L22.3515 56.8414C21.7329 57.3974 21.0455 57.8838 19.8082 57.8838Z" fill="white"/>
<path d="M23.5198 57.7448V49.3367H25.2382V57.7448H23.5198Z" fill="white"/>
<path d="M32.5245 55.3128H28.2628C28.4002 56.0772 28.9501 56.4941 29.775 56.4941C30.3249 56.4941 30.8061 56.2856 31.2872 55.8687L32.2496 56.772C31.6997 57.4669 30.8748 57.9534 29.775 57.9534C27.9191 57.9534 26.613 56.6331 26.613 54.7569C26.613 53.0197 27.8503 51.5604 29.6375 51.5604C31.6997 51.5604 32.5933 53.1587 32.5933 54.8959C32.5245 55.0348 32.5245 55.1043 32.5245 55.3128ZM29.5688 52.8807C28.8814 52.8807 28.4002 53.3671 28.2628 54.201H30.8748C30.7373 53.4366 30.3249 52.8807 29.5688 52.8807Z" fill="white"/>
<path d="M36.8553 57.8838C34.9994 57.8838 33.5559 56.494 33.5559 54.6873C33.5559 52.9501 34.9994 51.4908 36.8553 51.4908C38.7113 51.4908 40.1548 52.8806 40.1548 54.6873C40.1548 56.494 38.7113 57.8838 36.8553 57.8838ZM38.4363 54.6873C38.4363 53.784 37.8177 52.9501 36.8553 52.9501C35.893 52.9501 35.2744 53.7145 35.2744 54.6178C35.2744 55.5212 35.893 56.355 36.8553 56.355C37.8177 56.4245 38.4363 55.5907 38.4363 54.6873Z" fill="white"/>
<path d="M49.2281 57.7448V56.8414C48.8157 57.3973 48.1971 57.8142 47.3035 57.8142C45.86 57.8142 44.554 56.7024 44.554 54.6178C44.554 52.5331 45.86 51.4213 47.3035 51.4213C48.1971 51.4213 48.8157 51.8383 49.2281 52.3247V49.3367H50.9466V57.7448H49.2281ZM49.2281 54.6873C49.2281 53.6449 48.5408 52.9501 47.7159 52.9501C46.8911 52.9501 46.2037 53.6449 46.2037 54.6873C46.2037 55.7296 46.8911 56.4245 47.7159 56.4245C48.5408 56.4245 49.2281 55.7296 49.2281 54.6873Z" fill="white"/>
<path d="M58.1639 55.3128H53.9022C54.0396 56.0772 54.5895 56.4941 55.4144 56.4941C55.9643 56.4941 56.4455 56.2856 56.9266 55.8687L57.889 56.772C57.3391 57.4669 56.5142 57.9534 55.4144 57.9534C53.5585 57.9534 52.2524 56.6331 52.2524 54.7569C52.2524 53.0197 53.4897 51.5604 55.2769 51.5604C57.3391 51.5604 58.2327 53.1587 58.2327 54.8959C58.1639 55.0348 58.1639 55.1043 58.1639 55.3128ZM55.2082 52.8807C54.5208 52.8807 54.0396 53.3671 53.9022 54.201H56.5142C56.3767 53.4366 55.8956 52.8807 55.2082 52.8807Z" fill="white"/>
<path d="M66.6873 51.3519V57.7448H64.9688V51.3519H62.563V49.6842H69.1619V51.3519H66.6873Z" fill="white"/>
<path d="M74.7301 55.3128H70.4683C70.6058 56.0772 71.1557 56.4941 71.9806 56.4941C72.5305 56.4941 73.0116 56.2856 73.4928 55.8687L74.4551 56.772C73.9052 57.4669 73.0804 57.9534 71.9806 57.9534C70.1246 57.9534 68.8186 56.6331 68.8186 54.7569C68.8186 53.0197 70.0559 51.5604 71.8431 51.5604C73.9052 51.5604 74.7988 53.1587 74.7988 54.8959C74.7301 55.0348 74.7301 55.1043 74.7301 55.3128ZM71.7743 52.8807C71.087 52.8807 70.6058 53.3671 70.4683 54.201H73.0804C72.9429 53.4366 72.4617 52.8807 71.7743 52.8807Z" fill="white"/>
<path d="M78.9229 57.8838C77.067 57.8838 75.761 56.4245 75.761 54.6873C75.761 52.9501 77.067 51.4908 78.9917 51.4908C80.1602 51.4908 80.8476 51.9078 81.3975 52.5332L80.3664 53.7145C79.954 53.2975 79.6103 53.0196 78.9917 53.0196C78.0981 53.0196 77.4794 53.784 77.4794 54.6873C77.4794 55.6601 78.0981 56.4245 79.0604 56.4245C79.6103 56.4245 80.0228 56.1466 80.4352 55.7991L81.4663 56.8414C80.7789 57.3974 80.0915 57.8838 78.9229 57.8838Z" fill="white"/>
<path d="M86.3467 57.7448V54.2704C86.3467 53.4365 85.9342 53.0196 85.3156 53.0196C84.6282 53.0196 84.2158 53.4365 84.2158 54.2704V57.7448H82.4973V51.5603H84.2158V52.4637C84.6282 51.9773 85.1094 51.4908 86.003 51.4908C87.309 51.4908 88.0651 52.3942 88.0651 53.784V57.7448H86.3467Z" fill="white"/>
<path d="M92.6017 57.8838C90.7458 57.8838 89.3022 56.494 89.3022 54.6873C89.3022 52.9501 90.7458 51.4908 92.6017 51.4908C94.4576 51.4908 95.9011 52.8806 95.9011 54.6873C95.9011 56.494 94.5264 57.8838 92.6017 57.8838ZM94.1827 54.6873C94.1827 53.784 93.564 52.9501 92.6017 52.9501C91.6393 52.9501 91.0207 53.7145 91.0207 54.6178C91.0207 55.5212 91.6393 56.355 92.6017 56.355C93.6328 56.4245 94.1827 55.5907 94.1827 54.6873Z" fill="white"/>
<path d="M97.2073 57.7448V49.3367H98.9257V57.7448H97.2073Z" fill="white"/>
<path d="M103.6 57.8838C101.744 57.8838 100.3 56.494 100.3 54.6873C100.3 52.9501 101.744 51.4908 103.6 51.4908C105.456 51.4908 106.899 52.8806 106.899 54.6873C106.899 56.494 105.456 57.8838 103.6 57.8838ZM105.181 54.6873C105.181 53.784 104.562 52.9501 103.6 52.9501C102.637 52.9501 102.019 53.7145 102.019 54.6178C102.019 55.5212 102.637 56.355 103.6 56.355C104.562 56.4245 105.181 55.5907 105.181 54.6873Z" fill="white"/>
<path d="M110.886 59.6211C109.924 59.6211 108.961 59.4126 108.205 58.9957L108.824 57.6754C109.443 58.0228 110.061 58.2313 110.886 58.2313C112.055 58.2313 112.605 57.6754 112.605 56.5636V56.2856C112.123 56.911 111.505 57.2585 110.611 57.2585C109.168 57.2585 107.93 56.2161 107.93 54.4094C107.93 52.6028 109.236 51.5604 110.611 51.5604C111.574 51.5604 112.123 51.9774 112.605 52.4638V51.6299H114.323V56.4246C114.254 58.7177 113.155 59.6211 110.886 59.6211ZM112.536 54.34C112.536 53.5061 111.917 52.8807 111.024 52.8807C110.199 52.8807 109.511 53.4366 109.511 54.34C109.511 55.1738 110.13 55.7992 111.024 55.7992C111.917 55.7992 112.536 55.2433 112.536 54.34Z" fill="white"/>
<path d="M115.835 50.9349V49.3367H117.623V50.8654H115.835V50.9349ZM115.904 57.7448V51.5603H117.623V57.7448H115.904Z" fill="white"/>
<path d="M122.847 57.7449V57.05C122.434 57.5364 121.816 57.8143 120.991 57.8143C119.822 57.8143 118.929 57.1195 118.929 55.9382C118.929 54.6179 119.96 53.9925 121.403 53.9925C122.022 53.9925 122.434 54.062 122.916 54.2704V54.2009C122.916 53.5061 122.503 53.0891 121.609 53.0891C120.922 53.0891 120.51 53.2281 119.891 53.4366L119.479 52.1163C120.166 51.8383 120.785 51.6299 121.816 51.6299C123.672 51.6299 124.565 52.6027 124.565 54.2704V57.8143H122.847V57.7449ZM122.847 55.2433C122.572 55.1043 122.159 55.0348 121.747 55.0348C120.991 55.0348 120.578 55.3128 120.578 55.8687C120.578 56.3551 120.991 56.633 121.541 56.633C122.366 56.633 122.916 56.2161 122.916 55.5212V55.2433H122.847Z" fill="white"/>
<path d="M140.847 57.7449V57.05C140.434 57.5364 139.816 57.8143 138.991 57.8143C137.822 57.8143 136.929 57.1195 136.929 55.9382C136.929 54.6179 137.96 53.9925 139.403 53.9925C140.022 53.9925 140.434 54.062 140.916 54.2704V54.2009C140.916 53.5061 140.503 53.0891 139.609 53.0891C138.922 53.0891 138.51 53.2281 137.891 53.4366L137.479 52.1163C138.166 51.8383 138.785 51.6299 139.816 51.6299C141.672 51.6299 142.565 52.6027 142.565 54.2704V57.8143H140.847V57.7449ZM140.847 55.2433C140.572 55.1043 140.159 55.0348 139.747 55.0348C138.991 55.0348 138.578 55.3128 138.578 55.8687C138.578 56.3551 138.991 56.633 139.541 56.633C140.366 56.633 140.916 56.2161 140.916 55.5212V55.2433H140.847Z" fill="white"/>
<path d="M133.776 57.7448V56.8414C133.364 57.3973 132.745 57.8142 131.851 57.8142C130.408 57.8142 129.102 56.7024 129.102 54.6178C129.102 52.5331 130.408 51.4213 131.851 51.4213C132.745 51.4213 133.364 51.8383 133.776 52.3247V49.3367H135.494V57.7448H133.776ZM133.845 54.6873C133.845 53.6449 133.157 52.9501 132.333 52.9501C131.508 52.9501 130.82 53.6449 130.82 54.6873C130.82 55.7296 131.508 56.4245 132.333 56.4245C133.157 56.4245 133.845 55.7296 133.845 54.6873Z" fill="white"/>
<path d="M147.73 57.7448V49.6842H149.448V57.7448H147.73Z" fill="white"/>
<path d="M155.154 57.7448V54.2704C155.154 53.4365 154.741 53.0196 154.122 53.0196C153.435 53.0196 153.023 53.4365 153.023 54.2704V57.7448H151.304V51.5603H153.023V52.4637C153.435 51.9773 153.916 51.4908 154.81 51.4908C156.116 51.4908 156.872 52.3942 156.872 53.784V57.7448H155.154Z" fill="white"/>
<path d="M160.997 50.7266C160.584 50.7266 160.378 50.9351 160.378 51.4215V51.6299H161.753V53.0892H160.378V57.7449H158.66V53.0892H157.972V51.6299H158.66V51.213C158.66 49.8232 159.347 49.2673 160.515 49.2673C161.065 49.2673 161.409 49.3368 161.753 49.4063V50.8656C161.547 50.7961 161.272 50.7266 160.997 50.7266Z" fill="white"/>
<path d="M165.602 57.8838C163.746 57.8838 162.302 56.494 162.302 54.6873C162.302 52.9501 163.746 51.4908 165.602 51.4908C167.458 51.4908 168.901 52.8806 168.901 54.6873C168.901 56.494 167.526 57.8838 165.602 57.8838ZM167.183 54.6873C167.183 53.784 166.564 52.9501 165.602 52.9501C164.639 52.9501 164.021 53.7145 164.021 54.6178C164.021 55.5212 164.639 56.355 165.602 56.355C166.633 56.4245 167.183 55.5907 167.183 54.6873Z" fill="white"/>
<path d="M173.782 53.2976C172.613 53.2976 171.926 53.9925 171.926 55.4517V57.7448H170.207V51.5604H171.926V52.8112C172.269 51.9773 172.819 51.4214 173.85 51.4214V53.2281H173.782V53.2976Z" fill="white"/>
<path d="M182.511 57.7448V54.2704C182.511 53.4365 182.168 53.0196 181.48 53.0196C180.862 53.0196 180.449 53.4365 180.449 54.2704V57.7448H178.731V54.2704C178.731 53.4365 178.387 53.0196 177.7 53.0196C177.081 53.0196 176.669 53.4365 176.669 54.2704V57.7448H174.95V51.5603H176.669V52.4637C177.081 51.9773 177.562 51.4908 178.456 51.4908C179.281 51.4908 179.831 51.8383 180.174 52.4637C180.724 51.8383 181.343 51.4908 182.168 51.4908C183.474 51.4908 184.23 52.2552 184.23 53.784V57.8143H182.511V57.7448Z" fill="white"/>
<path d="M189.317 57.7449V57.05C188.904 57.5364 188.285 57.8143 187.461 57.8143C186.292 57.8143 185.398 57.1195 185.398 55.9382C185.398 54.6179 186.429 53.9925 187.873 53.9925C188.492 53.9925 188.904 54.062 189.385 54.2704V54.2009C189.385 53.5061 188.973 53.0891 188.079 53.0891C187.392 53.0891 186.979 53.2281 186.361 53.4366L185.948 52.1163C186.636 51.8383 187.254 51.6299 188.285 51.6299C190.141 51.6299 191.035 52.6027 191.035 54.2704V57.8143H189.317V57.7449ZM189.317 55.2433C189.042 55.1043 188.629 55.0348 188.217 55.0348C187.461 55.0348 187.048 55.3128 187.048 55.8687C187.048 56.3551 187.461 56.633 188.01 56.633C188.835 56.633 189.385 56.2161 189.385 55.5212V55.2433H189.317Z" fill="white"/>
<path d="M192.135 54.6873C192.135 52.9501 193.441 51.4908 195.365 51.4908C196.534 51.4908 197.221 51.9078 197.771 52.5332L196.74 53.7145C196.328 53.2975 195.984 53.0196 195.365 53.0196C194.472 53.0196 193.853 53.784 193.853 54.6873C193.853 55.6601 194.472 56.4245 195.434 56.4245C195.984 56.4245 196.397 56.1466 196.809 55.7991L197.84 56.8414C197.29 57.4668 196.671 57.8838 195.64 57.9533L194.884 59.8294L193.441 59.204L194.403 57.8143C193.028 57.3279 192.135 56.1466 192.135 54.6873Z" fill="white"/>
<path d="M202.514 57.7449V57.05C202.102 57.5364 201.483 57.8144 200.658 57.8144C199.49 57.8144 198.596 57.1195 198.596 55.9382C198.596 54.6179 199.627 53.9925 201.071 53.9925C201.689 53.9925 202.102 54.062 202.583 54.2705V54.201C202.583 53.5061 202.171 53.0892 201.277 53.0892C200.59 53.0892 200.177 53.2281 199.559 53.4366L199.146 52.1163C199.833 51.8384 200.452 51.6299 201.483 51.6299C203.339 51.6299 204.233 52.6027 204.233 54.2705V57.8144H202.514V57.7449ZM202.514 50.935C201.827 50.935 201.208 50.5181 200.796 50.5181C200.452 50.5181 200.315 50.7266 200.177 51.074L199.284 50.796C199.559 49.8232 199.902 49.1978 200.727 49.1978C201.414 49.1978 202.033 49.6147 202.446 49.6147C202.789 49.6147 202.927 49.4063 203.064 49.0588L203.958 49.3368C203.614 50.3096 203.27 50.935 202.514 50.935ZM202.583 55.2433C202.308 55.1043 201.896 55.0348 201.483 55.0348C200.727 55.0348 200.315 55.3128 200.315 55.8687C200.315 56.3551 200.727 56.6331 201.277 56.6331C202.102 56.6331 202.652 56.2161 202.652 55.5213V55.2433H202.583Z" fill="white"/>
<path d="M208.701 57.8838C206.845 57.8838 205.401 56.494 205.401 54.6873C205.401 52.9501 206.845 51.4908 208.701 51.4908C210.557 51.4908 212 52.8806 212 54.6873C212 56.494 210.557 57.8838 208.701 57.8838ZM210.282 54.6873C210.282 53.784 209.663 52.9501 208.701 52.9501C207.738 52.9501 207.12 53.7145 207.12 54.6178C207.12 55.5212 207.738 56.355 208.701 56.355C209.663 56.4245 210.282 55.5907 210.282 54.6873Z" fill="white"/>
</svg>
