<svg width="200" height="41" viewBox="0 0 200 41" fill="none" xmlns="http://www.w3.org/2000/svg">
<path d="M150.564 7H156.629V8.60282H152.327V10.2056H156.135V11.8084H152.327V13.4809H156.7V15.0139H150.564V7Z" fill="#231F20"/>
<path d="M157.969 8.88157H159.732V9.78748C159.803 9.64811 159.944 9.50874 160.085 9.43905C160.226 9.29968 160.367 9.22999 160.508 9.09062C160.649 9.02093 160.79 8.95126 161.001 8.88157C161.213 8.81188 161.354 8.8119 161.636 8.8119C162.059 8.8119 162.412 8.88156 162.694 9.09062C162.976 9.22999 163.188 9.50874 163.399 9.78748C163.681 9.43905 163.963 9.23001 164.316 9.02095C164.669 8.88158 165.021 8.74219 165.444 8.74219C166.079 8.74219 166.643 8.95128 166.996 9.29971C167.348 9.64814 167.56 10.2753 167.56 10.9722V14.9443H165.797V11.5296C165.797 11.1115 165.726 10.8328 165.515 10.6237C165.303 10.4147 165.092 10.2753 164.739 10.2753C164.386 10.2753 164.175 10.4147 163.963 10.6237C163.752 10.8328 163.681 11.1115 163.681 11.5296V14.9443H161.918V11.5296C161.918 11.1115 161.848 10.8328 161.636 10.6237C161.425 10.4147 161.213 10.2753 160.86 10.2753C160.508 10.2753 160.296 10.4147 160.085 10.6237C159.873 10.8328 159.803 11.1115 159.803 11.5296V14.9443H158.04V8.88157H157.969Z" fill="#231F20"/>
<path d="M168.829 8.88168H170.592V9.7876C170.804 9.50885 171.086 9.2301 171.368 9.09073C171.65 8.88167 172.073 8.81201 172.496 8.81201C172.849 8.81201 173.202 8.88169 173.554 9.02106C173.907 9.16044 174.189 9.36951 174.471 9.64826C174.753 9.927 174.965 10.2754 175.106 10.6238C175.247 11.042 175.317 11.4601 175.317 11.9479C175.317 12.4357 175.247 12.9235 175.106 13.2719C174.965 13.69 174.753 13.9688 174.471 14.2475C174.189 14.5263 173.907 14.7354 173.554 14.8747C173.202 15.0141 172.849 15.0838 172.496 15.0838C172.003 15.0838 171.65 15.0141 171.298 14.805C171.015 14.596 170.733 14.3869 170.522 14.1779V16.8259H168.759V8.88168H168.829ZM172.073 13.6901C172.285 13.6901 172.496 13.6204 172.637 13.5507C172.849 13.481 172.99 13.3416 173.131 13.2022C173.272 13.0629 173.413 12.8538 173.484 12.6448C173.554 12.4357 173.625 12.2266 173.625 11.9479C173.625 11.6692 173.554 11.4601 173.484 11.251C173.413 11.042 173.272 10.8329 173.131 10.6936C172.99 10.5542 172.849 10.4148 172.637 10.3451C172.426 10.2754 172.285 10.2057 172.073 10.2057C171.862 10.2057 171.65 10.2754 171.509 10.3451C171.298 10.4148 171.157 10.5542 171.015 10.6936C170.874 10.8329 170.804 11.042 170.663 11.251C170.592 11.4601 170.522 11.6692 170.522 11.9479C170.522 12.2266 170.592 12.4357 170.663 12.6448C170.733 12.8538 170.874 13.0629 171.015 13.2022C171.157 13.3416 171.298 13.481 171.509 13.5507C171.65 13.6204 171.862 13.6901 172.073 13.6901Z" fill="#231F20"/>
<path d="M176.446 8.88168H178.209V10.136C178.42 9.71791 178.632 9.3695 178.914 9.16044C179.196 8.8817 179.619 8.81201 180.183 8.81201V10.6238H180.113C179.549 10.6238 179.055 10.8329 178.702 11.1813C178.35 11.5298 178.209 12.0873 178.209 12.8538V15.1535H176.446V8.88168Z" fill="#231F20"/>
<path d="M184.062 15.1533C183.568 15.1533 183.145 15.0837 182.793 14.9443C182.37 14.8049 182.017 14.5958 181.735 14.3171C181.453 14.0384 181.241 13.6899 181.03 13.3415C180.889 12.9234 180.818 12.5053 180.818 12.0175C180.818 11.5993 180.889 11.1812 181.03 10.7631C181.171 10.345 181.382 10.0662 181.664 9.71781C181.946 9.43907 182.229 9.23001 182.652 9.02095C183.004 8.88158 183.427 8.74219 183.921 8.74219C184.415 8.74219 184.908 8.81189 185.261 9.02095C185.614 9.23001 185.966 9.43905 186.178 9.78748C186.46 10.0662 186.601 10.4843 186.742 10.8328C186.883 11.2509 186.953 11.669 186.953 12.0872C186.953 12.1569 186.953 12.2265 186.953 12.2962C186.953 12.3659 186.953 12.4356 186.953 12.5053H182.652C182.722 12.9234 182.934 13.2021 183.145 13.4112C183.427 13.6202 183.709 13.6899 184.133 13.6899C184.415 13.6899 184.697 13.6203 184.908 13.5506C185.12 13.4809 185.402 13.2718 185.614 13.0628L186.601 13.9687C186.319 14.3171 185.966 14.5959 185.543 14.8049C185.12 15.0837 184.626 15.1533 184.062 15.1533ZM185.19 11.46C185.12 11.0419 184.979 10.7631 184.767 10.4843C184.556 10.2753 184.274 10.1359 183.851 10.1359C183.427 10.1359 183.145 10.2753 182.934 10.4843C182.722 10.6934 182.581 11.0419 182.511 11.46H185.19Z" fill="#231F20"/>
<path d="M190.268 15.1532C189.845 15.1532 189.351 15.0836 188.928 14.9442C188.435 14.8048 188.012 14.5261 187.588 14.2473L188.364 13.1324C188.717 13.4111 189.069 13.5505 189.351 13.6898C189.704 13.8292 189.986 13.8989 190.268 13.8989C190.55 13.8989 190.691 13.8292 190.832 13.7595C190.973 13.6898 191.044 13.5504 191.044 13.4111C191.044 13.3414 190.973 13.2717 190.973 13.202C190.903 13.1323 190.832 13.0627 190.691 12.993C190.55 12.9233 190.409 12.9233 190.268 12.8536C190.127 12.7839 189.986 12.7839 189.775 12.7142C189.563 12.6445 189.351 12.5748 189.14 12.5052C188.928 12.4355 188.717 12.2961 188.576 12.1567C188.364 12.0174 188.223 11.8083 188.153 11.6689C188.012 11.4599 188.012 11.1811 188.012 10.9024C188.012 10.6236 188.082 10.3449 188.223 10.0661C188.364 9.85708 188.505 9.648 188.717 9.43894C188.928 9.29957 189.14 9.1602 189.422 9.09051C189.704 9.02082 189.986 8.95117 190.339 8.95117C190.762 8.95117 191.114 9.02085 191.538 9.16022C191.961 9.2996 192.313 9.43898 192.666 9.64804L191.961 10.8327C191.679 10.6236 191.326 10.4843 191.044 10.4146C190.762 10.3449 190.48 10.2752 190.268 10.2752C190.057 10.2752 189.916 10.3449 189.775 10.4146C189.634 10.4843 189.634 10.6236 189.634 10.6933C189.634 10.763 189.634 10.8327 189.704 10.9024C189.775 10.9721 189.845 11.0417 189.986 11.1114C190.127 11.1811 190.268 11.2508 190.409 11.2508C190.55 11.3205 190.691 11.3902 190.903 11.3902C191.114 11.4599 191.326 11.5295 191.538 11.6689C191.749 11.7386 191.961 11.878 192.172 12.0173C192.384 12.1567 192.525 12.2961 192.595 12.5052C192.736 12.7142 192.736 12.9233 192.736 13.202C192.736 13.5505 192.666 13.8292 192.525 14.1079C192.384 14.3867 192.243 14.5261 192.031 14.7351C191.82 14.8745 191.538 15.0139 191.256 15.0836C190.903 15.0836 190.621 15.1532 190.268 15.1532Z" fill="#231F20"/>
<path d="M195.486 15.1534C195.204 15.1534 194.922 15.0837 194.64 15.014C194.358 14.9443 194.146 14.8049 193.935 14.6656C193.723 14.5262 193.582 14.3171 193.512 14.1081C193.371 13.899 193.371 13.6203 193.371 13.2718C193.371 12.9234 193.441 12.6447 193.582 12.3659C193.723 12.0872 193.864 11.9478 194.076 11.7388C194.287 11.5994 194.569 11.46 194.852 11.3903C195.134 11.3206 195.486 11.2509 195.839 11.2509C196.191 11.2509 196.403 11.2509 196.685 11.3206C196.897 11.3903 197.179 11.46 197.39 11.5297V11.46C197.39 11.1116 197.249 10.8328 197.038 10.6238C196.826 10.4147 196.474 10.345 196.05 10.345C195.698 10.345 195.416 10.345 195.134 10.4147C194.852 10.4844 194.569 10.5541 194.287 10.6935L193.864 9.3694C194.217 9.23003 194.569 9.09066 194.922 9.02097C195.275 8.95129 195.768 8.88159 196.262 8.88159C196.756 8.88159 197.179 8.95127 197.531 9.09064C197.884 9.23002 198.166 9.3694 198.378 9.57846C198.589 9.78751 198.801 10.0663 198.871 10.4147C199.012 10.7631 199.012 11.1115 199.012 11.5297V15.0837H197.32V14.3868C197.108 14.5959 196.826 14.8049 196.544 14.9443C196.262 15.0837 195.909 15.1534 195.486 15.1534ZM196.05 13.9687C196.474 13.9687 196.826 13.899 197.038 13.69C197.32 13.4809 197.39 13.2021 197.39 12.9234V12.6447C197.249 12.575 197.038 12.5053 196.897 12.5053C196.685 12.4356 196.474 12.4356 196.262 12.4356C195.909 12.4356 195.557 12.5053 195.345 12.6447C195.134 12.784 194.993 12.9931 194.993 13.2718C194.993 13.4809 195.063 13.69 195.275 13.8294C195.486 13.899 195.698 13.9687 196.05 13.9687Z" fill="#231F20"/>
<path d="M153.456 27.7666C152.821 27.7666 152.257 27.6272 151.622 27.4182C151.058 27.2091 150.494 26.8607 150 26.4425L151.058 25.1882C151.41 25.4669 151.834 25.7457 152.186 25.8851C152.609 26.0941 153.032 26.1638 153.456 26.1638C153.808 26.1638 154.09 26.0941 154.302 25.9547C154.513 25.8154 154.584 25.6063 154.584 25.3972C154.584 25.2579 154.584 25.1882 154.513 25.1185C154.443 25.0488 154.372 24.9791 154.302 24.8398C154.161 24.7701 154.02 24.7004 153.808 24.6307C153.597 24.561 153.315 24.4913 152.962 24.4216C152.539 24.3519 152.186 24.2126 151.834 24.0732C151.481 23.9338 151.199 23.7945 150.987 23.6551C150.776 23.446 150.564 23.237 150.423 22.9582C150.282 22.6795 150.212 22.331 150.212 21.9826C150.212 21.6342 150.282 21.2858 150.423 21.007C150.564 20.7283 150.776 20.4495 150.987 20.2404C151.269 20.0314 151.551 19.892 151.904 19.7527C152.257 19.6133 152.609 19.6133 153.032 19.6133C153.597 19.6133 154.161 19.6829 154.654 19.892C155.148 20.1011 155.642 20.3101 155.994 20.6586L155.078 21.9826C154.725 21.7038 154.372 21.5645 154.02 21.4251C153.667 21.2857 153.315 21.2161 152.962 21.2161C152.609 21.2161 152.327 21.2857 152.186 21.4251C152.045 21.5645 151.904 21.7039 151.904 21.9129C151.904 22.0523 151.904 22.122 151.975 22.2614C152.045 22.331 152.116 22.4704 152.257 22.5401C152.398 22.6098 152.539 22.6795 152.821 22.7492C153.032 22.8189 153.315 22.8885 153.667 22.9582C154.09 23.0976 154.443 23.1673 154.795 23.3067C155.148 23.446 155.36 23.5854 155.642 23.7945C155.853 24.0035 156.065 24.2126 156.135 24.4216C156.276 24.7004 156.276 24.9791 156.276 25.3276C156.276 25.7457 156.206 26.0941 156.065 26.3729C155.924 26.6516 155.712 26.9303 155.43 27.1394C155.148 27.3485 154.866 27.4878 154.513 27.6272C154.302 27.6969 153.879 27.7666 153.456 27.7666Z" fill="#231F20"/>
<path d="M159.379 27.7665C159.097 27.7665 158.815 27.6968 158.533 27.6272C158.251 27.5575 158.039 27.4181 157.828 27.2787C157.616 27.1393 157.475 26.9303 157.405 26.7212C157.264 26.5122 157.264 26.2334 157.264 25.885C157.264 25.5366 157.334 25.2578 157.475 24.9791C157.616 24.7003 157.757 24.5609 157.969 24.3519C158.18 24.2125 158.463 24.0731 158.745 24.0035C159.027 23.9338 159.379 23.8641 159.732 23.8641C160.085 23.8641 160.296 23.8641 160.578 23.9338C160.79 24.0035 161.072 24.0731 161.283 24.1428V24.0731C161.283 23.7247 161.142 23.446 160.931 23.2369C160.719 23.0279 160.367 22.9582 159.944 22.9582C159.591 22.9582 159.309 22.9581 159.027 23.0278C158.745 23.0975 158.463 23.1672 158.18 23.3066L157.757 21.9129C158.11 21.7735 158.463 21.6341 158.815 21.5644C159.168 21.4947 159.661 21.425 160.155 21.425C160.649 21.425 161.072 21.4947 161.424 21.6341C161.777 21.7735 162.059 21.9129 162.271 22.1219C162.482 22.331 162.694 22.6097 162.764 22.9582C162.905 23.3066 162.905 23.655 162.905 24.0731V27.6272H161.283V26.9303C161.072 27.1393 160.79 27.3484 160.508 27.4878C160.155 27.6968 159.802 27.7665 159.379 27.7665ZM159.944 26.5819C160.367 26.5819 160.719 26.5122 160.931 26.3031C161.213 26.094 161.283 25.8153 161.283 25.5366V25.2578C161.142 25.1881 160.931 25.1184 160.79 25.1184C160.578 25.0487 160.367 25.0487 160.155 25.0487C159.802 25.0487 159.45 25.1184 159.238 25.2578C159.027 25.3972 158.886 25.6062 158.886 25.885C158.886 26.0941 158.956 26.3031 159.168 26.4425C159.379 26.5122 159.591 26.5819 159.944 26.5819Z" fill="#231F20"/>
<path d="M166.15 19.2649H164.387V27.6273H166.15V19.2649Z" fill="#231F20"/>
<path d="M167.066 21.4949H168.97L170.31 25.6063L171.721 21.4949H173.554L171.157 27.6969H169.535L167.066 21.4949Z" fill="#231F20"/>
<path d="M176.164 27.7666C175.882 27.7666 175.6 27.697 175.317 27.6273C175.035 27.5576 174.824 27.4182 174.612 27.2788C174.401 27.1395 174.26 26.9304 174.189 26.7214C174.048 26.5123 174.048 26.2335 174.048 25.8851C174.048 25.5367 174.119 25.2579 174.26 24.9792C174.401 24.7004 174.542 24.5611 174.753 24.352C174.965 24.2126 175.247 24.0733 175.529 24.0036C175.811 23.9339 176.164 23.8642 176.516 23.8642C176.869 23.8642 177.081 23.8642 177.363 23.9339C177.645 24.0036 177.856 24.0733 178.068 24.1429V24.0732C178.068 23.7248 177.927 23.4461 177.715 23.237C177.504 23.028 177.151 22.9583 176.728 22.9583C176.375 22.9583 176.093 22.9583 175.811 23.0279C175.529 23.0976 175.247 23.1673 174.965 23.3067L174.542 21.9826C174.894 21.8433 175.247 21.7039 175.6 21.6342C175.952 21.5645 176.446 21.4949 176.939 21.4949C177.433 21.4949 177.856 21.5646 178.209 21.7039C178.561 21.8433 178.844 21.9827 179.055 22.1917C179.267 22.4008 179.478 22.6795 179.549 23.0279C179.69 23.3764 179.69 23.7248 179.69 24.1429V27.6969H177.997V27.0001C177.786 27.2091 177.504 27.4182 177.222 27.5576C177.01 27.6969 176.587 27.7666 176.164 27.7666ZM176.728 26.582C177.151 26.582 177.504 26.5123 177.715 26.3032C177.997 26.0941 178.068 25.8154 178.068 25.5367V25.2579C177.927 25.1882 177.715 25.1185 177.574 25.1185C177.363 25.0488 177.151 25.0489 176.939 25.0489C176.587 25.0489 176.234 25.1185 176.023 25.2579C175.811 25.3973 175.67 25.6064 175.67 25.8851C175.67 26.0942 175.741 26.3032 175.952 26.4426C176.234 26.5123 176.446 26.582 176.728 26.582Z" fill="#231F20"/>
<path d="M183.639 27.7667C183.286 27.7667 182.934 27.6969 182.581 27.5576C182.229 27.4182 181.946 27.2092 181.664 26.9304C181.382 26.6517 181.171 26.3032 181.03 25.9548C180.889 25.5367 180.818 25.1186 180.818 24.6308C180.818 24.143 180.889 23.6551 181.03 23.3067C181.171 22.8886 181.382 22.6098 181.664 22.3311C181.946 22.0523 182.229 21.8433 182.581 21.7039C182.934 21.5646 183.286 21.4949 183.639 21.4949C184.133 21.4949 184.485 21.5645 184.838 21.7736C185.12 21.9827 185.402 22.1917 185.614 22.4008V19.4043H187.377V27.7667H185.614V26.791C185.402 27.0698 185.12 27.3485 184.838 27.4879C184.485 27.697 184.133 27.7667 183.639 27.7667ZM184.133 26.3032C184.344 26.3032 184.556 26.2335 184.697 26.1638C184.908 26.0942 185.049 25.9548 185.19 25.8154C185.331 25.676 185.402 25.467 185.543 25.2579C185.614 25.0489 185.684 24.8398 185.684 24.5611C185.684 24.2823 185.614 24.0733 185.543 23.8642C185.473 23.6551 185.331 23.4461 185.19 23.3067C185.049 23.1673 184.908 23.028 184.697 22.9583C184.485 22.8886 184.344 22.8189 184.133 22.8189C183.921 22.8189 183.71 22.8886 183.568 22.9583C183.357 23.028 183.216 23.1673 183.075 23.3067C182.934 23.4461 182.793 23.6551 182.722 23.8642C182.652 24.0733 182.581 24.2823 182.581 24.5611C182.581 24.8398 182.652 25.0489 182.722 25.2579C182.793 25.467 182.934 25.676 183.075 25.8154C183.216 25.9548 183.357 26.0942 183.568 26.1638C183.71 26.2335 183.921 26.3032 184.133 26.3032Z" fill="#231F20"/>
<path d="M191.819 27.7665C191.326 27.7665 190.903 27.6968 190.479 27.4877C190.056 27.3484 189.704 27.0696 189.422 26.7909C189.14 26.5121 188.857 26.1637 188.716 25.8153C188.575 25.3971 188.434 25.0487 188.434 24.5609C188.434 24.1428 188.505 23.7247 188.716 23.3066C188.857 22.8884 189.14 22.6097 189.422 22.2613C189.704 21.9825 190.056 21.7735 190.479 21.5644C190.903 21.425 191.326 21.2856 191.819 21.2856C192.313 21.2856 192.736 21.3553 193.159 21.5644C193.582 21.7038 193.935 21.9825 194.217 22.2613C194.499 22.54 194.781 22.8885 194.922 23.2369C195.063 23.655 195.204 24.0034 195.204 24.4912C195.204 24.9094 195.134 25.3275 194.922 25.7456C194.781 26.1637 194.499 26.4425 194.217 26.7909C193.935 27.0696 193.582 27.2787 193.159 27.4877C192.736 27.6968 192.313 27.7665 191.819 27.7665ZM191.819 26.3031C192.101 26.3031 192.313 26.2334 192.525 26.1637C192.736 26.094 192.877 25.9546 193.018 25.8153C193.159 25.6759 193.23 25.4668 193.371 25.2578C193.441 25.0487 193.512 24.8397 193.512 24.6306C193.512 24.4216 193.441 24.2125 193.371 24.0034C193.3 23.7944 193.159 23.655 193.018 23.4459C192.877 23.3066 192.666 23.1672 192.525 23.0975C192.313 23.0278 192.101 22.9581 191.89 22.9581C191.608 22.9581 191.396 23.0278 191.185 23.0975C190.973 23.1672 190.832 23.3066 190.691 23.4459C190.55 23.5853 190.479 23.7944 190.338 24.0034C190.268 24.2125 190.197 24.4216 190.197 24.6306C190.197 24.8397 190.268 25.0487 190.338 25.2578C190.409 25.4668 190.55 25.6062 190.691 25.8153C190.832 25.9546 191.044 26.094 191.185 26.1637C191.396 26.2334 191.608 26.3031 191.819 26.3031Z" fill="#231F20"/>
<path d="M196.262 21.4948H198.025V22.7491C198.237 22.331 198.449 21.9825 198.731 21.7735C199.013 21.4947 199.436 21.425 200 21.425V23.2369H199.93C199.365 23.2369 198.872 23.446 198.519 23.7944C198.167 24.1428 198.025 24.7003 198.025 25.4669V27.7665H196.262V21.4948Z" fill="#231F20"/>
<path d="M152.468 33.8293H150V32.2266H156.7V33.8293H154.231V40.2405H152.468V33.8293Z" fill="#231F20"/>
<path d="M159.803 40.3797C159.098 40.3797 158.604 40.1706 158.251 39.7525C157.899 39.3344 157.687 38.7769 157.687 38.08V34.1079H159.45V37.5226C159.45 37.9407 159.521 38.2194 159.732 38.4285C159.944 38.6375 160.156 38.7769 160.508 38.7769C160.861 38.7769 161.143 38.7072 161.284 38.4285C161.495 38.2194 161.566 37.9407 161.566 37.5226V34.1079H163.329V40.2403H161.566V39.3344C161.495 39.4738 161.354 39.6131 161.213 39.6828C161.072 39.8222 160.931 39.8919 160.79 40.0313C160.649 40.1009 160.508 40.1706 160.297 40.2403C160.226 40.31 160.014 40.3797 159.803 40.3797Z" fill="#231F20"/>
<path d="M164.739 34.108H166.502V35.3623C166.714 34.9442 166.925 34.5958 167.207 34.3868C167.489 34.108 167.913 34.0383 168.477 34.0383V35.8502H168.406C167.842 35.8502 167.348 36.0592 166.996 36.4076C166.643 36.7561 166.502 37.3136 166.502 38.0801V40.3798H164.739V34.108Z" fill="#231F20"/>
<path d="M169.464 31.8779H171.297V33.411H169.464V31.8779ZM169.534 34.1079H171.297V40.2403H169.534V34.1079Z" fill="#231F20"/>
<path d="M174.965 40.3798C174.542 40.3798 174.048 40.3102 173.625 40.1708C173.131 40.0314 172.708 39.7527 172.285 39.4739L173.061 38.3589C173.413 38.6377 173.766 38.7771 174.048 38.9164C174.401 39.0558 174.683 39.1255 174.965 39.1255C175.247 39.1255 175.388 39.0558 175.529 38.9861C175.67 38.9164 175.74 38.7771 175.74 38.6377C175.74 38.568 175.67 38.4983 175.67 38.4286C175.599 38.3589 175.529 38.2893 175.388 38.2196C175.247 38.1499 175.106 38.1499 174.965 38.0802C174.824 38.0105 174.683 38.0105 174.471 37.9408C174.26 37.8711 174.048 37.8015 173.836 37.7318C173.625 37.6621 173.413 37.5227 173.272 37.3833C173.061 37.244 172.92 37.0349 172.849 36.8955C172.708 36.6865 172.708 36.4077 172.708 36.129C172.708 35.8502 172.779 35.5715 172.92 35.2927C173.061 35.0837 173.202 34.8746 173.413 34.6655C173.625 34.5262 173.836 34.3868 174.118 34.3171C174.401 34.2474 174.683 34.1777 175.035 34.1777C175.458 34.1777 175.811 34.2475 176.234 34.3868C176.657 34.5262 177.01 34.6655 177.362 34.8746L176.657 36.0593C176.375 35.8502 176.023 35.7109 175.74 35.6412C175.458 35.5715 175.176 35.5018 174.965 35.5018C174.753 35.5018 174.612 35.5715 174.471 35.6412C174.33 35.7109 174.33 35.8502 174.33 35.9199C174.33 35.9896 174.401 36.0593 174.401 36.129C174.471 36.1987 174.542 36.2684 174.683 36.338C174.824 36.4077 174.965 36.4774 175.106 36.4774C175.247 36.5471 175.388 36.6168 175.599 36.6168C175.811 36.6864 176.023 36.7561 176.234 36.8955C176.446 36.9652 176.657 37.1046 176.869 37.244C177.08 37.3833 177.221 37.5227 177.292 37.7318C177.433 37.9408 177.433 38.1499 177.433 38.4286C177.433 38.7771 177.362 39.0558 177.221 39.3345C177.08 39.6133 176.939 39.7527 176.728 39.9617C176.516 40.1011 176.234 40.2405 175.952 40.3102C175.599 40.3102 175.247 40.3798 174.965 40.3798Z" fill="#231F20"/>
<path d="M178.42 34.1081H180.183V35.014C180.254 34.8747 180.395 34.7353 180.536 34.6656C180.677 34.5262 180.818 34.4566 180.959 34.3172C181.1 34.2475 181.241 34.1778 181.453 34.1081C181.664 34.0384 181.805 34.0385 182.087 34.0385C182.51 34.0385 182.863 34.1081 183.145 34.3172C183.427 34.4566 183.639 34.7353 183.85 35.014C184.132 34.6656 184.415 34.4566 184.767 34.2475C185.12 34.1081 185.472 33.9688 185.895 33.9688C186.53 33.9688 187.094 34.1778 187.447 34.5262C187.8 34.8747 188.011 35.5019 188.011 36.1987V40.1709H186.248V36.7562C186.248 36.3381 186.178 36.0594 185.966 35.8503C185.754 35.6412 185.543 35.5019 185.19 35.5019C184.838 35.5019 184.626 35.6412 184.415 35.8503C184.203 36.0594 184.132 36.3381 184.132 36.7562V40.1709H182.369V36.7562C182.369 36.3381 182.299 36.0594 182.087 35.8503C181.876 35.6412 181.664 35.5019 181.312 35.5019C180.959 35.5019 180.747 35.6412 180.536 35.8503C180.324 36.0594 180.254 36.3381 180.254 36.7562V40.1709H178.491V34.1081H178.42Z" fill="#231F20"/>
<path d="M192.313 40.3798C191.819 40.3798 191.396 40.31 190.973 40.101C190.55 39.9616 190.197 39.6829 189.915 39.4041C189.633 39.1254 189.351 38.777 189.21 38.4285C189.069 38.0104 188.928 37.662 188.928 37.1742C188.928 36.7561 188.998 36.3379 189.21 35.9198C189.351 35.5017 189.633 35.2229 189.915 34.8745C190.197 34.5958 190.55 34.3867 190.973 34.1776C191.396 34.0383 191.819 33.8989 192.313 33.8989C192.807 33.8989 193.23 33.9686 193.653 34.1776C194.076 34.317 194.429 34.5958 194.711 34.8745C194.993 35.1533 195.275 35.5017 195.416 35.8501C195.557 36.2683 195.698 36.6167 195.698 37.1045C195.698 37.5226 195.628 37.9407 195.416 38.3588C195.275 38.7769 194.993 39.0557 194.711 39.4041C194.429 39.6829 194.076 39.8919 193.653 40.101C193.23 40.31 192.807 40.3798 192.313 40.3798ZM192.313 38.9164C192.595 38.9164 192.807 38.8467 193.018 38.777C193.23 38.7073 193.371 38.5679 193.512 38.4285C193.653 38.2892 193.723 38.0801 193.865 37.8711C193.935 37.662 194.006 37.4529 194.006 37.2439C194.006 37.0348 193.935 36.8257 193.865 36.6167C193.794 36.4076 193.653 36.2682 193.512 36.0592C193.371 35.9198 193.159 35.7804 193.018 35.7108C192.807 35.6411 192.595 35.5714 192.384 35.5714C192.101 35.5714 191.89 35.6411 191.678 35.7108C191.467 35.7804 191.326 35.9198 191.185 36.0592C191.044 36.1986 190.903 36.4076 190.832 36.6167C190.762 36.8257 190.691 37.0348 190.691 37.2439C190.691 37.4529 190.762 37.662 190.832 37.8711C190.903 38.0801 191.044 38.2195 191.185 38.4285C191.326 38.5679 191.537 38.7073 191.678 38.777C191.89 38.8467 192.101 38.9164 192.313 38.9164Z" fill="#231F20"/>
<path d="M19.5819 37.0732C17.8397 38.7456 14.8432 40 11.0801 40C7.24738 40 4.39024 38.885 2.5784 37.1428C0.627178 35.1916 0 32.4738 0 28.432H7.80488C7.80488 30.0348 7.94425 31.1498 8.64111 31.9861C9.05923 32.4739 9.82578 32.892 11.0801 32.892C12.2648 32.892 13.0314 32.5435 13.5888 31.9164C14.1463 31.2892 14.3554 30.2439 14.3554 28.6411C14.3554 24.8781 13.7282 24.2509 10.9408 23.0662L5.99303 21.0453C2.0209 19.3728 0.348432 17.2822 0.348432 11.2195C0.348432 7.59584 1.5331 4.52964 3.90244 2.50874C5.78397 0.905949 8.15331 0 11.0801 0C14.5645 0 17.0732 0.905949 18.8153 2.50874C20.9756 4.45995 21.8118 7.59584 21.8118 11.568H13.9373C13.9373 10.1742 13.9373 8.91986 13.3101 8.01393C12.892 7.38676 12.1951 7.03835 11.0801 7.03835C9.96515 7.03835 9.26829 7.45647 8.85017 8.08365C8.36237 8.71082 8.22299 9.54706 8.22299 10.8711C8.22299 13.3798 8.64111 14.0766 10.9408 14.9826L15.8188 16.9338C20.7665 18.885 22.23 21.1847 22.23 28.2927C22.0906 32.3345 21.6028 35.1219 19.5819 37.0732Z" fill="#0E61A6"/>
<path d="M42.5085 39.5819L41.2541 33.4495H32.2646L31.0102 39.5819H22.8569L32.8918 0.418213H40.627L50.7315 39.5819H42.5085ZM36.7942 11.8468L33.7977 26.3415H39.8604L36.7942 11.8468Z" fill="#0E61A6"/>
<path d="M52.9614 39.5818V0.348389H60.7663V32.5435H70.9405V39.5818H52.9614Z" fill="#0E61A6"/>
<path d="M83.6931 7.45641V39.5818H75.8883V7.45641H69.2681V0.348389H90.2437V7.45641H83.6931Z" fill="#0E61A6"/>
<path d="M111.917 36.7247C109.826 38.885 107.108 40 103.763 40C100.488 40 97.7005 38.885 95.6099 36.7247C93.7284 34.7735 92.6831 32.1254 92.6831 28.9895V0.348389H100.558V29.4076C100.558 31.9163 102.021 32.9616 103.833 32.9616C105.575 32.9616 107.108 31.986 107.108 29.4076V0.348389H114.913V28.9895C114.843 32.1951 113.798 34.8432 111.917 36.7247Z" fill="#0E61A6"/>
<path d="M134.425 39.5819L129.617 24.3206H127.038V39.5819H119.233V0.418213H130.383C138.885 0.418213 141.254 4.87812 141.254 12.3346C141.254 16.5157 140.627 20.2788 136.794 22.6481L142.509 39.5819H134.425ZM130.314 7.45652H127.038V17.2823H130.314C133.31 17.2823 133.449 14.5645 133.449 12.3346C133.449 10.1046 133.31 7.45652 130.314 7.45652Z" fill="#0E61A6"/>
</svg>
