<svg width="310" height="250" viewBox="0 0 310 250" fill="none" xmlns="http://www.w3.org/2000/svg">
<path d="M154.474 70.4562C154.123 70.4562 153.948 70.6316 153.948 70.9825C153.948 71.3334 154.123 71.5088 154.474 71.5088C154.825 71.5088 155 71.3334 155 70.9825C155 70.8071 154.825 70.4562 154.474 70.4562Z" fill="white"/>
<path d="M141.667 44.4914C142.544 44.3159 143.421 44.8422 143.597 45.544C143.772 46.4212 143.947 46.772 144.123 47.6492C144.298 47.6492 144.474 47.6493 144.649 47.4738C144.298 45.544 143.947 44.4913 143.597 42.5615C141.842 42.9124 140.965 43.0878 139.386 43.6142C139.912 45.544 140.263 46.5966 140.79 48.5264C140.965 48.5264 140.965 48.5264 140.965 48.5264C140.79 47.6492 140.614 47.2984 140.439 46.4212C140.263 45.544 140.79 44.6668 141.667 44.4914Z" fill="white"/>
<path d="M166.579 42.5615C166.228 44.4913 165.877 45.544 165.526 47.4738C165.877 47.4738 165.877 47.6492 166.228 47.6492C166.404 46.772 166.579 46.4212 166.754 45.544C166.93 44.6668 167.807 44.1405 168.684 44.4914C169.561 44.6668 170.088 45.544 169.912 46.4212C169.737 47.2984 169.561 47.6492 169.386 48.5264C169.561 48.5264 169.561 48.5264 169.561 48.5264C170.088 46.5966 170.439 45.544 170.965 43.6142C169.211 43.0878 168.333 42.9124 166.579 42.5615Z" fill="white"/>
<path d="M158.158 46.4209C158.333 44.3157 158.333 43.4385 158.509 41.3332C155.877 41.1578 154.474 41.1578 151.842 41.3332C152.017 43.4385 152.018 44.3157 152.193 46.4209C152.544 46.4209 152.895 46.4209 153.246 46.4209C153.246 45.5438 153.246 45.1929 153.246 44.3157C153.246 43.4385 154.123 42.7367 155.351 42.7367C156.579 42.7367 157.456 43.4385 157.456 44.3157C157.456 45.1929 157.456 45.5438 157.456 46.4209C157.456 46.4209 157.807 46.4209 158.158 46.4209Z" fill="white"/>
<path d="M169.561 51.8594C159.737 49.2278 150.789 49.2278 140.965 51.8594H169.561Z" fill="white"/>
<path d="M170.263 49.2279C159.737 46.4209 150.439 46.4209 139.912 49.2279C140.088 49.9297 140.263 50.2805 140.439 51.1577C150.614 48.5261 159.561 48.5261 169.561 51.1577C169.912 50.2805 170.088 49.9297 170.263 49.2279Z" fill="white"/>
<path d="M173.596 40.807C173.421 40.807 173.246 40.6315 173.07 40.6315C172.895 40.9824 172.895 41.1578 172.895 41.5087C172.368 41.3333 172.193 41.3333 171.842 41.1579C172.017 40.807 172.018 40.6315 172.018 40.2807C171.667 40.1052 171.316 40.1052 170.965 39.9298C170.789 40.2806 170.789 40.4561 170.789 40.807C170.263 40.6315 170.088 40.6316 169.561 40.4561C169.561 40.1052 169.737 39.9298 169.737 39.5789C169.211 39.4035 168.86 39.4035 168.333 39.228C168.158 40.2807 167.982 40.9824 167.632 42.0351C169.737 42.5614 170.614 42.7368 172.719 43.4385C173.07 42.3859 173.246 41.8596 173.596 40.807Z" fill="white"/>
<path d="M142.544 42.2106C142.368 41.158 142.193 40.4562 141.842 39.4036C141.316 39.579 140.965 39.579 140.439 39.7544C140.439 40.1053 140.614 40.2807 140.614 40.6316C140.088 40.807 139.912 40.8071 139.386 40.9825C139.21 40.6316 139.21 40.4562 139.21 40.1053C138.86 40.2807 138.509 40.2808 138.158 40.4562C138.333 40.8071 138.333 40.9825 138.333 41.3334C137.807 41.5088 137.632 41.5088 137.281 41.6842C137.105 41.3334 137.105 41.1579 137.105 40.8071C136.93 40.8071 136.754 40.9825 136.579 40.9825C136.93 42.0351 137.105 42.5614 137.456 43.6141C139.386 42.9123 140.439 42.5615 142.544 42.2106Z" fill="white"/>
<path d="M145.526 47.2983C145.877 47.2983 146.053 47.1228 146.579 47.1228C146.404 46.2457 146.404 45.8948 146.228 45.0176C146.053 44.1404 146.93 43.4386 147.983 43.2632C149.211 43.0877 150.088 43.7895 150.263 44.4913C150.439 45.3685 150.439 45.7194 150.439 46.5966C150.79 46.5966 151.14 46.5966 151.491 46.5966C151.316 44.4913 151.316 43.6141 151.14 41.5088C148.509 41.6842 147.105 41.8597 144.649 42.386C144.825 44.3158 145 45.3685 145.526 47.2983Z" fill="white"/>
<path d="M150.614 40.9827C150.614 39.9301 150.439 39.2283 150.439 38.1757C149.912 38.1757 149.561 38.1757 149.035 38.3511C149.035 38.702 149.035 38.8774 149.21 39.2283C148.509 39.2283 148.158 39.4038 147.456 39.4038C147.456 39.0529 147.456 38.8774 147.281 38.5266C146.754 38.702 146.403 38.702 145.702 38.702C145.702 39.0529 145.877 39.2283 145.877 39.5792C145.175 39.7546 144.825 39.7546 144.298 39.93C144.298 39.5792 144.123 39.4037 144.123 39.0529C143.596 39.2283 143.246 39.2283 142.719 39.4038C142.895 40.4564 143.07 41.1581 143.246 42.2108C146.228 41.3336 147.632 41.1581 150.614 40.9827Z" fill="white"/>
<path d="M167.632 39.2281C167.105 39.0527 166.754 39.0526 166.228 38.8772C166.228 39.2281 166.053 39.4035 166.053 39.7544C165.351 39.5789 165 39.579 164.298 39.4035C164.298 39.0527 164.298 38.8772 164.474 38.5263C163.772 38.3509 163.596 38.3509 162.895 38.3509C162.895 38.7018 162.895 38.8772 162.719 39.2281C162.018 39.0527 161.667 39.0526 160.965 39.0526C160.965 38.7018 160.965 38.5263 161.14 38.1754C160.614 38.1754 160.263 38 159.737 38C159.561 39.0526 159.561 39.7544 159.561 40.807C162.544 40.9825 163.947 41.3334 166.93 41.8597C167.281 40.807 167.456 40.2807 167.632 39.2281Z" fill="white"/>
<path d="M159.912 46.5966C159.912 45.7194 160.088 45.3685 160.088 44.4913C160.088 43.6141 161.14 43.0877 162.368 43.2632C163.596 43.4386 164.298 44.3158 164.123 45.0176C163.947 45.8948 163.947 46.2457 163.772 47.1228C164.123 47.1228 164.298 47.2983 164.824 47.2983C165.175 45.3685 165.351 44.3158 165.702 42.386C163.07 41.8597 161.842 41.6842 159.211 41.5088C159.035 43.4386 159.035 44.4913 158.86 46.5966C159.386 46.5966 159.561 46.5966 159.912 46.5966Z" fill="white"/>
<path d="M158.86 40.807C158.86 39.7544 159.035 39.0526 159.035 38C158.509 38 158.158 38 157.632 38C157.632 38.3509 157.632 38.5263 157.632 38.8772C156.93 38.8772 156.579 38.8772 155.877 38.8772C155.877 38.5263 155.877 38.3509 155.877 38C155.175 38 155 38 154.298 38C154.298 38.3509 154.298 38.5263 154.298 38.8772C153.596 38.8772 153.246 38.8772 152.544 38.8772C152.544 38.5263 152.544 38.3509 152.544 38C152.018 38 151.667 38 151.14 38C151.14 39.2281 151.316 39.7544 151.316 40.807C154.474 40.6316 155.877 40.6316 158.86 40.807Z" fill="white"/>
<path d="M179.912 109.754C179.737 109.754 179.561 109.754 179.386 109.754H179.21C179.21 109.754 179.211 109.93 179.386 109.93C179.561 109.93 179.737 109.93 179.912 110.105C179.912 110.105 180.088 110.28 180.088 110.631V112.737V112.912V113.263C180.088 113.438 180.088 113.438 180.088 113.614L179.912 113.789C179.912 113.789 179.912 113.789 179.912 113.965C179.912 113.965 179.912 113.965 180.088 113.965C180.088 113.965 180.088 113.965 180.263 113.965H180.439H180.614C180.789 113.965 180.789 113.965 180.965 113.965C181.14 113.965 181.316 113.965 181.491 113.965H181.667C181.667 113.965 181.842 113.965 181.842 113.789C181.842 113.789 181.842 113.789 181.667 113.789C181.491 113.789 181.316 113.614 181.316 113.614C181.316 113.438 181.14 113.263 181.14 112.912V112.386C181.14 112.21 181.14 112.21 181.14 112.21H181.316H181.491C181.667 112.21 181.667 112.21 181.842 112.21C181.842 112.21 182.017 112.386 182.193 112.561C182.544 113.087 182.719 113.438 182.895 113.614C183.07 113.789 183.246 113.965 183.421 113.965C183.596 113.965 183.596 113.965 183.772 113.789C183.947 113.789 183.947 113.614 183.947 113.614C183.947 113.614 183.947 113.614 183.772 113.614C183.596 113.614 183.596 113.614 183.421 113.438C183.421 113.438 183.246 113.263 183.07 113.087L182.719 112.561L182.368 112.035V111.859C182.544 111.684 182.719 111.684 182.719 111.509C182.895 111.333 182.895 111.158 182.895 110.982C182.895 110.631 182.719 110.456 182.544 110.28C182.368 110.105 182.018 109.93 181.667 110.105C181.491 110.105 181.316 110.105 180.965 110.105C180.263 109.754 180.088 109.754 179.912 109.754ZM180.789 109.93C181.14 109.93 181.316 109.93 181.491 110.105C181.667 110.28 181.842 110.456 181.842 110.807C181.842 110.982 181.842 111.158 181.667 111.333L181.491 111.509C181.491 111.509 181.14 111.509 180.789 111.509C180.614 111.509 180.614 111.509 180.614 111.509V111.333V110.28C180.614 110.105 180.614 110.105 180.614 109.93H180.789Z" fill="white"/>
<path d="M171.842 108.877C171.667 108.877 171.316 108.877 170.789 108.702L169.737 108.527H169.386H169.21H169.035C169.035 108.527 169.035 108.527 169.035 108.702C169.211 108.702 169.386 108.877 169.386 108.877C169.386 108.877 169.386 109.053 169.386 109.404L169.035 111.684C169.035 111.86 169.035 112.035 168.86 112.035C168.86 112.211 168.86 112.211 168.684 112.211C168.684 112.211 168.509 112.211 168.509 112.386H168.684C169.035 112.386 169.211 112.386 169.386 112.386C169.561 112.386 169.737 112.386 169.912 112.562H170.263C170.439 112.562 170.614 112.562 170.614 112.562C170.79 112.562 170.965 112.562 171.14 112.562C171.316 112.562 171.316 112.386 171.491 112.211C171.667 112.035 171.667 111.86 171.667 111.684C171.316 112.035 170.789 112.211 170.088 112.211C169.912 112.211 169.912 112.211 169.912 112.211V112.035C169.912 111.86 169.912 111.684 169.912 111.509V111.334C169.912 111.158 169.912 110.983 169.912 110.807C169.912 110.807 169.912 110.632 170.088 110.632H170.263H170.439C170.614 110.632 170.789 110.632 170.789 110.632C170.789 110.632 170.965 110.632 170.965 110.807C170.965 110.983 171.14 110.983 171.14 111.158V111.334V111.158C171.14 110.983 171.14 110.983 171.14 110.807C171.14 110.632 171.14 110.456 171.14 110.281C171.14 110.281 171.14 110.281 171.14 110.105V109.93C171.14 109.93 171.14 109.93 171.14 109.755C171.14 109.755 171.14 109.755 170.965 109.755L170.789 109.93C170.614 110.105 170.439 110.281 170.263 110.105H170.088H169.912C169.737 110.105 169.737 110.105 169.737 109.93C169.737 109.93 169.737 109.755 169.737 109.579L169.912 108.877V108.702C169.912 108.527 169.912 108.527 170.088 108.351H170.263H170.614C170.965 108.351 171.14 108.527 171.316 108.527C171.491 108.702 171.491 108.702 171.491 109.053C171.491 109.228 171.491 109.228 171.491 109.228C171.491 109.228 171.667 109.228 171.667 109.053C171.667 109.053 171.667 108.877 171.667 108.702C172.018 109.228 172.017 109.053 171.842 108.877C172.017 108.877 172.017 108.877 171.842 108.877Z" fill="white"/>
<path d="M150.965 111.333C150.965 111.333 150.79 111.333 150.965 111.333C150.79 111.333 150.614 111.333 150.614 111.333C150.614 111.333 150.439 111.158 150.263 110.982L149.912 110.456L149.561 110.105V109.93C149.737 109.754 149.912 109.754 149.912 109.579C150.088 109.403 150.088 109.228 150.088 109.052C150.088 108.702 149.912 108.526 149.737 108.351C149.561 108.175 149.211 108.175 148.86 108.175C148.684 108.175 148.509 108.175 148.158 108.351C147.807 108.351 147.632 108.351 147.456 108.526C147.281 108.526 147.105 108.526 146.93 108.526H146.754C146.754 108.526 146.754 108.526 146.93 108.702C147.105 108.702 147.281 108.702 147.456 108.877C147.456 108.877 147.632 109.052 147.632 109.403L147.807 111.509V111.684V112.035C147.807 112.21 147.807 112.21 147.807 112.386L147.632 112.561C147.632 112.561 147.632 112.561 147.632 112.737C147.632 112.737 147.632 112.737 147.807 112.737C147.807 112.737 147.807 112.737 147.982 112.737H148.158H148.333C148.509 112.737 148.509 112.737 148.684 112.737C148.86 112.737 149.035 112.737 149.211 112.737H149.386C149.386 112.737 149.561 112.737 149.386 112.561C149.386 112.561 149.386 112.561 149.211 112.561C149.035 112.561 148.86 112.561 148.86 112.386C148.86 112.21 148.684 112.035 148.684 111.684V111.158V110.982H148.86H149.035C149.211 110.982 149.211 110.982 149.386 110.982C149.386 110.982 149.561 111.158 149.737 111.333C150.088 111.86 150.263 112.21 150.439 112.386C150.614 112.561 150.79 112.561 150.965 112.561C151.14 112.561 151.14 112.561 151.316 112.386C150.965 111.509 150.965 111.333 150.965 111.333ZM149.211 109.579L149.035 109.754C149.035 109.754 148.684 109.754 148.333 109.754C148.158 109.754 148.158 109.754 148.158 109.754V109.579V108.526C148.158 108.351 148.158 108.351 148.158 108.175L148.333 108C148.684 108 148.86 108 149.035 108.175C149.211 108.351 149.386 108.526 149.386 108.877C149.386 109.228 149.386 109.403 149.211 109.579Z" fill="white"/>
<path d="M186.93 112.912C187.105 112.737 187.281 112.737 187.281 112.737C187.456 112.737 187.456 112.737 187.632 112.737H187.807C187.807 112.737 187.807 112.737 187.807 112.562C187.807 112.562 187.807 112.562 187.632 112.562C187.281 112.562 187.105 112.562 187.105 112.386V112.211V112.035C187.105 111.86 187.105 111.684 187.105 111.509L187.281 111.334L187.632 111.158C187.983 110.983 188.158 110.983 188.333 110.983C188.333 110.983 188.509 110.983 188.509 111.158C188.86 111.509 189.035 111.684 189.035 111.684V111.86C189.035 111.86 189.035 112.035 188.86 112.035C188.86 112.035 188.86 112.035 189.035 112.035C189.211 112.035 189.386 111.86 189.737 111.684C190.088 111.509 190.263 111.509 190.439 111.509C190.439 111.509 190.439 111.509 190.614 111.509C190.614 111.509 190.614 111.509 190.614 111.334C190.439 111.334 190.263 111.334 190.263 111.334C190.088 111.334 190.088 111.158 189.912 111.158L187.632 108.702L187.456 108.527C187.281 108.351 187.281 108.351 187.281 108.351V108.527V108.877V109.404C187.281 109.404 187.281 109.579 187.281 109.755L187.105 111.684C187.105 112.035 187.105 112.211 187.105 112.386C187.105 112.562 187.105 112.562 186.93 112.562C186.93 112.562 186.93 112.562 186.93 112.737C186.93 112.737 186.93 112.737 187.105 112.737C186.754 113.088 186.755 112.912 186.93 112.912ZM187.105 110.807V109.93V109.755C187.105 109.579 187.105 109.579 187.105 109.579C187.105 109.579 187.281 109.579 187.456 109.755L188.158 110.456C188.158 110.456 188.158 110.456 188.158 110.632L187.281 110.983C187.281 110.983 187.105 110.983 187.105 110.807C187.105 110.983 187.105 110.983 187.105 110.807Z" fill="white"/>
<path d="M168.509 112.035C168.333 112.035 168.158 112.035 168.158 111.86C168.158 111.86 167.983 111.684 167.983 111.509L167.807 110.982L167.632 110.456V110.281C167.807 110.281 167.983 110.105 168.158 109.93C168.333 109.754 168.333 109.579 168.333 109.404C168.333 109.053 168.333 108.877 167.983 108.526C167.807 108.351 167.456 108.175 167.105 108.175C166.93 108.175 166.754 108.175 166.404 108.175C166.053 108.175 165.877 108.175 165.702 108.175C165.526 108.175 165.351 108.175 165.175 108.175C165.175 108.175 165.176 108.175 165 108.175C165 108.175 165 108.175 164.825 108.175C164.825 108.175 164.825 108.351 165 108.351C165.176 108.351 165.351 108.526 165.351 108.702C165.351 108.702 165.351 108.877 165.351 109.228L165.175 111.333V111.509V111.86C165.175 112.035 165.176 112.035 165 112.211C165 112.211 164.825 112.386 164.649 112.386C164.649 112.386 164.649 112.561 164.825 112.561C164.825 112.561 164.825 112.561 165 112.561H165.175H165.351C165.526 112.561 165.526 112.561 165.702 112.561C165.877 112.561 166.053 112.561 166.228 112.561H166.404H166.579C166.579 112.561 166.579 112.561 166.404 112.386C166.228 112.386 166.053 112.211 166.053 112.211C166.053 112.035 166.053 111.86 166.053 111.509V110.982V110.807H166.228H166.404C166.579 110.807 166.579 110.807 166.754 110.982C166.754 110.982 166.93 111.158 166.93 111.509C167.105 112.035 167.281 112.386 167.456 112.737C167.632 112.912 167.807 113.088 167.983 113.088C168.158 113.088 168.158 113.088 168.333 113.088C168.509 112.211 168.684 112.211 168.509 112.035C168.684 112.035 168.684 112.035 168.509 112.035ZM166.93 110.105C166.93 110.105 166.579 110.105 166.228 110.105C166.053 110.105 166.053 110.105 166.053 110.105V109.93L166.228 108.877C166.228 108.702 166.228 108.702 166.404 108.526C166.404 108.526 166.579 108.526 166.754 108.526C167.105 108.526 167.281 108.702 167.456 108.877C167.632 109.053 167.632 109.404 167.632 109.579C167.632 109.754 167.456 109.93 167.281 110.105C167.105 110.105 167.105 110.105 166.93 110.105Z" fill="white"/>
<path d="M162.719 108.877V108.702C162.719 108.351 162.719 108.351 162.895 108.176C162.895 108 163.07 108 163.246 108C163.246 108 163.246 108 163.07 107.825C163.07 107.825 163.07 107.825 162.895 107.825C162.719 107.825 162.719 107.825 162.544 107.825H162.369H162.193H162.018C162.018 107.825 161.842 108 161.842 108.176L160.614 110.456C160.614 110.456 160.614 110.632 160.439 110.632C160.439 110.632 160.439 110.632 160.263 110.456L159.211 107.825C159.211 107.649 159.035 107.649 159.035 107.649H158.86C158.684 107.649 158.684 107.649 158.509 107.649H158.333H158.158H157.983C157.983 107.649 157.983 107.825 158.158 107.825C158.333 107.825 158.509 107.825 158.684 108C158.86 108.176 158.86 108.351 158.86 108.527V108.702L158.684 110.632C158.684 110.807 158.684 110.983 158.509 111.158C158.509 111.334 158.333 111.334 158.158 111.334C157.983 111.334 157.983 111.334 157.807 111.158C157.632 111.158 157.632 110.983 157.632 110.807L156.404 107.825V107.649C156.404 107.474 156.228 107.474 156.228 107.474C156.228 107.474 156.228 107.474 156.053 107.649L155.877 108L155.526 108.527C155.526 108.527 155.526 108.702 155.351 108.877L154.474 110.632C154.298 110.983 154.298 111.158 154.123 111.158C154.123 111.334 153.948 111.334 153.948 111.334C153.948 111.334 154.123 111.334 154.298 111.334C154.474 111.334 154.649 111.334 154.825 111.334C154.825 111.334 155 111.334 155.175 111.334H155.351H155.526C155.526 111.334 155.526 111.334 155.351 111.158C155 111.158 154.825 110.983 154.825 110.807V110.632L155 110.456C155 110.281 155.175 110.105 155.175 110.105H155.351H155.702C156.053 110.105 156.228 110.105 156.404 110.105C156.404 110.105 156.579 110.105 156.579 110.281C156.755 110.632 156.754 110.807 156.754 110.983C156.754 110.983 156.755 111.158 156.579 111.158L156.404 111.334C156.579 111.334 156.755 111.334 157.105 111.334C157.456 111.334 157.632 111.334 157.807 111.334C157.807 111.334 157.807 111.334 157.983 111.334C157.983 111.334 157.983 111.334 158.158 111.334C158.333 111.334 158.333 111.334 158.509 111.334C158.684 111.334 158.684 111.334 158.684 111.334H158.86H159.035H159.211C159.211 111.334 159.211 111.334 159.035 111.158C158.86 111.158 158.684 110.983 158.684 110.632V110.281V110.105L158.86 108.702V108.527V108.351L159.737 110.456L159.912 110.807C160.088 110.983 160.088 111.158 160.088 111.158C160.088 111.158 160.088 111.158 160.263 110.983V110.807L161.491 108.527C161.491 108.351 161.667 108.351 161.667 108.351V110.281C161.667 110.281 161.667 110.281 161.667 110.456C161.667 110.632 161.667 110.632 161.667 110.807L161.491 110.983H161.316H161.491C161.667 110.983 161.842 110.983 162.018 110.983C162.193 110.983 162.368 110.983 162.544 110.983C162.719 110.983 162.719 110.983 162.719 110.983C162.895 110.983 162.895 110.983 162.895 110.983C162.895 110.983 162.895 110.983 162.895 110.807C162.719 110.807 162.544 110.632 162.369 110.632C162.369 110.456 162.193 110.281 162.193 110.105V109.93L162.719 108.877ZM156.579 109.755H155.702C155.526 109.755 155.526 109.755 155.526 109.579L155.877 108.877V108.702C155.877 108.527 156.053 108.527 156.053 108.527C156.053 108.527 156.228 108.702 156.228 108.877L156.579 109.755Z" fill="white"/>
<path d="M154.298 110.456L154.123 110.807C153.947 110.983 153.772 110.983 153.597 111.158C153.421 111.334 153.246 111.334 153.07 111.334C152.719 111.334 152.369 111.158 152.193 110.983C151.842 110.632 151.667 110.105 151.667 109.579C151.667 109.053 151.667 108.702 152.018 108.351C152.193 108 152.544 107.825 152.895 107.825C153.246 107.825 153.597 108 153.947 108.351C153.947 108.527 154.123 108.527 154.298 108.702C154.474 108.877 154.474 108.877 154.474 109.053C154.474 109.053 154.474 109.053 154.474 108.877V108.702V108.527V108.351V108V107.825C154.474 107.649 154.474 107.649 154.298 107.649V107.825C154.298 107.825 154.298 107.825 154.123 107.825L153.947 107.649C153.597 107.474 153.421 107.474 153.07 107.474C152.544 107.474 152.193 107.649 151.842 108C151.667 108.176 151.491 108.527 151.316 108.702C151.14 109.053 151.14 109.404 151.14 109.579C151.14 110.105 151.316 110.632 151.667 110.983C152.018 111.334 152.544 111.509 153.07 111.509C153.597 111.509 154.123 111.334 154.474 110.807C154.298 110.807 154.474 110.632 154.298 110.456C154.474 110.456 154.474 110.456 154.298 110.456Z" fill="white"/>
<path d="M179.035 112.737C178.684 113.263 178.158 113.439 177.456 113.439H177.281C177.281 113.439 177.281 113.263 177.105 113.263C177.105 113.088 177.105 112.912 177.105 112.737V112.561C177.105 112.386 177.105 112.211 177.105 112.035V111.86H177.281H177.456C177.631 111.86 177.807 111.86 177.807 111.86C177.807 111.86 177.982 111.86 177.982 112.035C177.982 112.211 178.158 112.211 178.158 112.386V112.561V112.386C178.158 112.211 178.158 112.211 178.158 112.035C178.158 111.86 178.158 111.684 178.158 111.684V111.509V111.333C178.158 111.333 178.158 111.333 177.982 111.333V111.509C177.807 111.684 177.631 111.86 177.456 111.86H177.281H177.105H176.93C176.754 111.86 176.754 111.86 176.754 111.684C176.754 111.684 176.754 111.509 176.754 111.333V110.632V110.456C176.754 110.281 176.754 110.281 176.93 110.105H177.105H177.456C177.807 110.105 177.982 110.105 178.158 110.281C178.333 110.456 178.333 110.456 178.333 110.632C178.333 110.807 178.333 110.807 178.333 110.807C178.333 110.807 178.509 110.807 178.509 110.632C178.509 110.632 178.509 110.456 178.509 110.281C178.509 110.105 178.509 110.105 178.509 110.105V109.93C178.333 109.93 177.982 109.93 177.281 109.93H176.228H175.877H175.702C175.702 109.93 175.702 109.93 175.526 109.93C175.351 109.93 175.351 109.93 175.175 109.93C175.175 109.93 175 109.93 174.824 109.93H174.474H174.298C174.298 109.93 174.298 109.93 174.298 110.105C174.474 110.105 174.474 110.281 174.649 110.281C174.649 110.281 174.824 110.456 174.824 110.632C174.824 110.807 174.649 111.158 174.298 111.684L173.421 113.088C173.421 113.088 173.421 113.088 173.421 112.912L173.07 111.333C172.895 110.807 172.895 110.456 172.895 110.281C172.895 110.105 173.07 110.105 173.07 110.105H173.246C173.246 110.105 173.246 110.105 173.246 109.93H173.07H172.719H172.193C172.017 109.93 172.017 109.93 171.842 109.93C171.842 109.93 171.842 109.93 171.667 109.93C171.667 109.93 171.667 109.93 171.491 109.93C171.491 109.93 171.491 110.105 171.667 110.105C171.842 110.105 171.842 110.281 171.842 110.281C171.842 110.456 172.018 110.632 172.018 110.982C172.018 111.333 172.193 111.684 172.193 112.035L172.544 113.614V113.789V113.965C172.544 113.965 172.719 113.965 172.719 113.789C172.719 113.789 172.895 113.614 172.895 113.439C172.895 113.439 173.07 113.263 173.246 112.912L173.947 111.86L174.474 110.982C174.649 110.632 174.824 110.456 174.824 110.456C174.824 110.456 175 110.281 175.175 110.281C175.351 110.281 175.526 110.456 175.526 110.456C175.526 110.456 175.702 110.632 175.526 110.982L175.351 113.263C175.351 113.439 175.351 113.614 175.351 113.614C175.351 113.789 175.351 113.789 175.175 113.789C175.175 113.789 175 113.789 175 113.965H175.175C175.526 113.965 175.702 113.965 175.877 113.965C176.053 113.965 176.228 113.965 176.403 113.965H176.754C176.93 113.965 177.105 113.965 177.105 113.965C177.281 113.965 177.456 113.965 177.632 113.965C177.807 113.965 177.807 113.789 177.982 113.614C179.035 113.263 179.035 113.088 179.035 112.737Z" fill="white"/>
<path d="M193.596 89.2283H193.421C192.895 89.2283 192.368 89.2283 192.017 89.0529H191.316H190.789C190.614 89.0529 190.614 89.0529 190.439 89.0529C190.439 89.0529 190.438 89.0529 190.263 89.0529C190.263 89.0529 190.088 89.0529 190.088 89.2283V89.4038V89.5792V89.7546C190.088 89.93 190.088 89.93 190.088 89.93C190.088 89.93 190.088 89.9301 190.088 90.1055C190.088 90.1055 190.088 90.1055 190.263 89.93C190.263 89.7546 190.439 89.5792 190.439 89.5792C190.439 89.5792 190.614 89.5792 190.614 89.4038C190.789 89.4038 190.965 89.4038 191.491 89.4038C191.667 89.4038 191.667 89.5792 191.667 89.5792L191.491 91.8599V92.0353C191.491 92.2108 191.491 92.2107 191.316 92.3862C191.14 92.3862 191.14 92.5616 190.965 92.5616C190.965 92.5616 190.965 92.5616 190.789 92.5616C190.789 92.5616 190.789 92.5616 190.965 92.5616H191.14H191.842C191.842 92.5616 192.017 92.5616 192.193 92.5616H192.368H192.719H192.895H193.07V92.3862C192.895 92.3862 192.719 92.2108 192.544 92.2108C192.544 92.0353 192.368 91.8599 192.544 91.509L192.719 89.5792C192.719 89.4038 192.719 89.4037 192.895 89.2283C192.895 89.2283 193.246 89.2283 193.421 89.2283C193.596 89.2283 193.772 89.2283 193.947 89.4038C194.123 89.4038 194.123 89.5792 194.123 89.7546C194.123 89.7546 194.123 89.93 194.298 89.93V89.7546C194.298 89.5792 194.298 89.5792 194.298 89.5792L193.596 89.2283C193.772 89.2283 193.772 89.2283 193.596 89.2283Z" fill="white"/>
<path d="M182.719 102.737C182.544 102.737 182.544 102.912 182.544 102.912C182.544 103.614 183.07 104.14 183.772 104.14C184.474 104.14 185 103.614 185 102.912C185 102.737 184.825 102.737 184.825 102.737H182.719Z" fill="white"/>
<path d="M194.474 94.6668V94.3159C194.298 89.9299 196.403 88.351 196.579 88.351L197.105 88.0001L196.403 87.8247C195.702 87.6493 193.947 87.2983 191.842 87.1229C190.088 85.1931 188.158 83.6141 184.474 81.3334C183.596 80.8071 183.07 80.1054 183.07 79.4036V79.2282C183.772 79.7545 184.474 80.4562 185.526 81.158C186.053 81.5089 186.579 81.6843 187.105 81.6843C187.631 81.6843 188.333 81.5089 188.86 81.158C190.088 80.4562 191.316 78.8773 191.667 78.351L186.053 73.4387C185.877 73.2633 185.526 73.2633 185.175 73.2633C184.824 73.2633 184.649 73.2633 184.298 73.4387C184.474 72.3861 184.298 71.6843 183.947 71.5089L179.561 66.9475L180.088 52.5615L154.649 52.737L129.21 52.5615L129.737 66.9475L125.351 71.5089C125.175 71.8597 124.825 72.5615 125 73.4387C124.649 73.2633 124.474 73.2633 124.123 73.2633C123.772 73.2633 123.421 73.2633 123.246 73.4387L117.631 78.351C117.982 78.8773 119.21 80.4562 120.438 81.158C120.965 81.5089 121.667 81.6843 122.193 81.6843C122.719 81.6843 123.246 81.5089 123.772 81.158C124.649 80.4562 125.526 79.9299 126.228 79.2282V79.4036C126.228 80.1054 125.702 80.8071 124.824 81.3334C121.14 83.7896 119.21 85.1931 117.456 87.1229C115.526 87.2983 113.772 87.4738 113.246 87.8247L112.719 88.0001L113.246 88.351C113.246 88.351 115 89.4036 115.175 92.5615C115 94.3159 115 96.0703 115.351 97.8247C115.351 98.1755 115.526 98.5264 115.526 98.8773C113.596 97.2984 113.947 95.0176 113.947 95.0176C113.947 95.0176 112.193 99.0528 113.421 101.86C113.947 103.439 114.649 105.544 115.175 106.772L115.351 107.298C115.526 107.649 115.526 108 115.526 108.526C115.702 110.105 116.053 112.035 118.158 113.263C120.263 114.491 123.947 115.895 130.614 115.895C133.421 115.895 136.403 115.719 139.561 115.193C144.474 114.491 149.386 114.14 154.474 114.14C156.403 114.14 158.333 114.14 160.088 114.316C163.246 114.491 166.228 114.842 169.21 115.193C172.368 115.719 175.526 115.895 178.158 115.895C184.824 115.895 188.684 114.491 190.614 113.263C192.895 112.035 193.07 110.105 193.245 108.526C193.245 108.176 193.421 107.649 193.421 107.298C193.596 106.597 194.298 105.193 194.824 103.965C195.175 103.263 195.526 102.562 195.702 101.86C196.93 98.8773 195.175 94.8422 195.175 94.8422C195.175 94.8422 195.526 97.2983 193.596 98.7019C193.596 98.351 193.772 98.0001 193.772 97.6492C194.474 96.772 194.474 95.7194 194.474 94.6668ZM182.895 71.158L183.421 71.8598C183.421 72.0352 183.947 72.7369 183.596 74.1404C183.596 74.3159 183.596 74.4914 183.772 74.6668C183.947 74.8422 184.123 74.8422 184.298 74.6668C184.824 74.3159 185.175 74.1404 185.526 74.1404C185.877 74.1404 186.053 74.1405 186.228 74.3159L186.93 74.8422L190.614 78.1756C190.263 78.7019 189.386 79.4036 188.684 79.7545C188.158 80.1054 187.807 80.2808 187.281 80.2808C186.93 80.2808 186.579 80.1054 186.228 79.93C184.824 78.8773 183.596 78.0001 182.895 77.1229L182.719 77.4738C182.544 77.6492 182.544 78.0001 182.544 78.1756C182.544 78.5264 182.368 78.8773 182.544 79.2282C182.719 80.2808 183.245 81.158 184.474 82.0352C187.807 84.1404 189.561 85.544 190.965 86.9475H190.789C188.684 86.9475 186.93 87.1229 185.526 87.6492C184.825 87.8247 184.298 88.0001 183.772 88.1755C183.421 87.6492 182.895 87.1229 182.368 86.4212C180.438 84.4913 179.561 82.5615 179.561 80.4562C179.561 78.8773 180.263 77.4738 180.789 76.4212L181.14 76.0703C181.14 76.0703 181.14 75.8948 181.316 75.8948L181.491 75.7194C180.789 75.0176 179.737 73.965 178.86 72.9124C178.158 72.2107 178.158 71.158 178.333 70.1054C178.509 69.2282 179.21 68.351 179.561 67.8246L182.895 71.158ZM178.86 86.4212C179.21 87.1229 180.614 88.8773 181.491 87.8247C181.667 87.6493 181.667 87.6492 181.667 87.6492C182.017 88.0001 182.368 88.5264 182.719 88.8773C182.368 89.0527 182.017 89.2282 181.667 89.4036C181.316 89.5791 181.14 89.7545 180.789 89.9299C179.386 88.7019 178.86 87.2983 178.86 86.4212ZM179.912 90.2808C179.561 90.4563 179.386 90.8071 179.035 90.9826V89.4036C179.386 89.9299 179.737 90.1054 179.912 90.2808ZM178.509 81.158C178.509 81.3334 178.509 81.3335 178.509 81.5089C178.509 81.6843 178.509 81.6843 178.509 81.8597C178.509 82.2106 178.684 82.3861 178.684 82.7369V84.4913C178.684 84.4913 178.684 84.4913 178.684 84.6668C178.684 84.6668 178.684 84.8422 178.509 84.8422C178.509 85.0177 178.333 85.0177 178.333 85.1931C178.333 85.3686 178.333 85.3685 178.158 85.544V85.7194V85.8949V86.0703V86.2457V86.4212V86.5966V86.772V86.9475C178.158 87.1229 178.158 87.1229 178.158 87.2983V87.4738C178.158 87.6492 178.158 87.6493 178.333 87.8247C178.333 87.8247 178.333 87.8246 178.333 88.0001C178.333 88.1755 178.509 88.1755 178.509 88.351L178.333 91.6843C177.631 92.5615 177.105 93.4387 176.579 94.1404L177.281 72.5615C177.281 72.737 177.456 72.737 177.456 72.9124C177.456 73.0879 177.631 73.0878 177.807 73.2633C177.982 73.4387 178.158 73.7896 178.509 73.965C178.684 74.1404 178.86 74.3159 179.035 74.4913L178.86 77.8247C178.86 78.0001 178.684 78.1755 178.684 78.351C178.684 78.351 178.684 78.351 178.684 78.5264C178.684 78.7019 178.684 78.8773 178.509 78.8773V79.0528C178.509 79.2282 178.509 79.4036 178.509 79.4036V79.5791C178.509 79.7545 178.509 79.9299 178.509 80.1054C178.509 80.8071 178.509 80.9826 178.509 81.158ZM180.965 87.1229C180.965 87.2983 180.614 87.1229 180.438 86.9475C180.088 86.7721 179.737 86.2457 179.21 85.544V84.4913C179.561 85.3685 180.088 86.0703 180.789 86.772C180.965 86.772 180.965 86.9475 180.965 87.1229ZM154.825 53.0878L179.561 52.9124L179.21 66.0703C178.86 66.4211 177.982 67.6492 177.456 68.8773L177.807 54.6668L154.825 54.8422L131.842 54.6668L132.193 68.8773C131.667 67.4738 130.789 66.4212 130.438 65.8949L130.088 52.9124L154.825 53.0878ZM179.561 98.1756C179.386 98.5264 179.21 98.7019 179.035 99.0527C178.684 99.9299 178.509 100.983 178.509 102.211C178.333 102.562 177.807 103.088 177.456 103.439C176.93 103.088 176.403 102.386 176.053 101.684C175.877 100.456 176.053 99.579 176.403 98.5264C176.579 98.1755 176.754 98.0001 176.93 97.6492C177.631 97.2983 178.86 96.772 179.561 96.2457C179.561 96.5966 179.386 96.772 179.386 97.1229C179.561 97.2984 179.561 97.6492 179.561 98.1756ZM176.754 103.79C176.754 103.79 176.754 103.965 176.754 103.79C176.579 103.965 176.579 103.965 176.579 103.965L176.403 104.14C176.403 104.316 176.403 104.316 176.228 104.491C175.877 104.842 175.351 105.193 174.649 105.544H174.474C173.947 105.719 173.421 106.07 172.544 106.421C172.017 106.421 171.667 106.246 171.14 106.246C170.439 106.07 169.737 106.07 169.035 105.895C170.965 105.193 172.544 104.491 173.596 103.965H173.772C174.824 103.614 175.351 102.912 175.702 102.386C176.053 102.912 176.403 103.263 176.754 103.614C176.93 103.614 176.93 103.79 176.754 103.79ZM177.982 106.597H184.824C183.421 106.772 182.193 106.947 180.789 106.947C180.439 106.947 180.088 106.947 179.561 106.947C177.807 106.947 176.053 106.772 173.947 106.421C174.298 106.246 174.474 106.246 174.824 106.07H175C175.526 105.895 176.053 105.544 176.403 105.193C176.403 105.369 176.579 105.719 176.579 105.719C176.93 106.421 177.456 106.597 177.982 106.597ZM166.403 84.3159C166.579 84.6668 166.754 86.0703 164.474 86.0703C164.649 86.4212 164.824 87.6492 160.438 87.4738C160.438 87.6492 160.263 88.0001 161.14 88.1755C162.017 88.1755 163.421 88.0001 162.017 89.0527C160.438 90.1054 159.912 88.7019 159.561 90.8071C159.561 91.5089 159.386 92.3861 159.386 92.3861L163.07 99.0527C163.07 99.0527 162.193 98.7019 161.667 99.2282C161.316 99.5791 160.438 100.456 159.386 100.281C159.035 100.807 157.631 101.509 156.403 101.158C156.053 101.333 155.175 102.211 153.246 101.158C152.193 101.158 151.14 100.632 150.789 100.281C149.737 100.456 148.86 99.7545 148.509 99.2282C148.158 98.7019 147.105 99.0527 147.105 99.0527L150.789 92.3861C150.789 92.3861 150.614 91.5089 150.614 90.8071C150.263 88.7019 149.737 90.1054 148.158 89.0527C146.754 88.0001 148.158 88.1755 149.035 88.1755C149.912 88.1755 149.737 87.8247 149.737 87.4738C145.351 87.6492 145.526 86.4212 145.702 86.0703C143.421 85.8949 143.596 84.4914 143.772 84.3159C140.965 82.737 141.842 82.0352 142.017 82.0352C139.21 80.1054 140.439 79.5791 140.789 79.5791C139.035 77.2984 139.912 77.4738 140.263 77.4738C138.158 74.8422 139.386 74.4913 139.737 74.4913C137.281 71.8598 138.684 72.0352 139.21 72.0352C136.403 68.5264 137.807 68.8773 138.333 68.8773C136.053 66.4212 137.281 66.2457 137.281 66.2457H137.631C137.631 66.2457 137.632 66.0703 137.281 65.1931C134.825 60.2808 138.86 63.2633 138.86 63.2633C138.86 63.2633 147.456 68.7018 148.684 70.4562C149.912 72.3861 149.561 73.6142 148.684 74.6668C147.807 75.8949 148.158 74.8422 147.807 76.9475C147.456 79.0527 148.684 79.0528 148.684 79.0528L151.667 79.2282V79.0528L153.421 72.5615L152.193 71.5089H152.017V72.737H151.491V71.5089H150.965C150.965 71.5089 150.789 71.158 151.316 70.9826H151.491V66.4212C151.491 66.4212 148.86 65.3685 152.017 61.8597C152.719 63.6141 153.421 65.3685 151.842 66.4212C151.842 66.5966 151.842 66.5966 151.667 66.5966V70.6317C152.017 70.6317 152.544 70.6317 152.544 70.6317C152.544 70.6317 152.719 70.2808 153.07 70.2808C153.421 70.2808 153.596 70.2808 153.596 70.2808C153.596 70.2808 153.772 69.2282 154.649 69.2282C155.702 69.2282 155.877 70.2808 156.228 71.3334C156.579 72.5615 158.684 78.8773 158.684 78.8773L161.667 78.7019C161.667 78.7019 162.719 78.7018 162.544 76.5966C162.193 74.4913 162.719 75.544 161.667 74.3159C160.789 73.0878 160.438 71.8598 161.667 70.1054C162.895 68.1756 171.491 62.9124 171.491 62.9124C171.491 62.9124 175.351 60.1054 173.07 64.8422C172.719 65.7194 172.544 65.8949 172.544 65.8949H173.07C173.07 65.8949 174.298 66.0703 172.017 68.5264C172.544 68.5264 173.947 68.1755 171.14 71.6843C171.491 71.6843 173.07 71.5089 170.614 74.1404C170.965 74.1404 172.193 74.3159 170.088 77.1229C170.438 77.1229 171.316 77.1229 169.561 79.2282C169.912 79.2282 170.965 79.7545 168.333 81.6843C168.158 82.0352 169.21 82.737 166.403 84.3159ZM135 105.719C134.123 105.369 133.596 105.018 133.245 104.491C133.07 104.14 132.895 103.79 132.544 103.614C132.895 103.263 133.421 102.737 133.772 102.211C134.123 102.912 134.649 103.614 135.702 104.14H135.877C136.93 104.667 138.684 105.369 140.789 106.07C140.263 106.07 139.737 106.246 139.035 106.246C138.333 106.246 137.807 106.421 137.105 106.421C136.228 106.246 135.526 105.895 135 105.719ZM135.702 106.597C133.421 106.772 131.491 106.947 129.737 106.947C129.21 106.947 128.86 106.947 128.333 106.947C126.93 106.947 125.526 106.772 124.298 106.421H131.667C132.193 106.421 132.719 106.246 133.07 105.719C133.246 105.544 133.245 105.369 133.245 105.018C133.596 105.369 134.123 105.544 134.649 105.895H134.824C135 106.421 135.351 106.597 135.702 106.597ZM129.737 95.8948C130.438 96.4211 131.316 96.772 132.017 97.1229C132.193 97.2984 132.368 97.2984 132.544 97.4738C132.719 97.6493 132.719 97.6492 132.895 97.8247C133.421 98.8773 133.421 100.105 133.245 101.509C132.895 102.211 132.544 102.562 132.017 103.088C131.667 102.737 131.316 102.386 131.14 102.035C131.14 100.807 130.965 99.7545 130.614 98.8773C130.438 98.5264 130.263 98.1755 129.912 97.8247C129.912 97.1229 129.737 96.4211 129.737 95.8948ZM147.631 64.6668C149.386 65.1931 151.14 65.8949 150.965 67.6493C151.316 68.1756 150.614 68.0001 150.614 68.0001C150.614 68.0001 148.158 69.2282 147.631 64.6668ZM156.228 65.7194C155.175 67.2984 154.298 68.8773 152.544 68.351C152.017 68.7019 152.193 68.0001 152.193 68.0001C152.193 68.0001 151.491 65.3685 156.228 65.7194ZM131.491 85.3685C131.316 85.0176 131.14 84.6668 131.14 84.6668V82.5615C131.316 81.8598 131.316 81.3335 131.316 80.6317C131.316 79.9299 131.14 79.0527 130.965 78.5264L130.789 75.0176C131.14 74.6668 131.491 74.1405 131.842 73.7896C132.017 73.4387 132.193 73.2633 132.368 72.9124L133.07 95.3685C132.719 94.4913 132.017 93.4387 131.316 92.5615L131.14 88.7019C131.667 87.2984 131.842 86.2457 131.491 85.3685ZM128.86 89.7545C128.684 89.579 128.333 89.4036 128.158 89.2282C127.807 89.0527 127.456 88.8773 127.105 88.7019C127.456 88.351 127.807 87.8247 128.333 87.2983C128.333 87.2983 128.333 87.4738 128.509 87.4738C129.386 88.5264 130.789 86.7721 131.14 86.0703C130.965 87.2984 130.263 88.8773 128.86 89.7545ZM130.614 91.5089C130.614 91.3334 130.614 91.3334 130.614 91.5089C130.263 91.158 130.088 90.8071 129.561 90.4563C129.912 90.1054 130.263 89.93 130.438 89.5791L130.614 91.5089ZM128.684 87.1229C128.684 87.1229 128.684 86.9475 128.684 86.772C129.386 85.8949 129.912 85.1931 130.263 84.3159V85.544C129.737 86.4212 129.386 86.772 129.035 87.1229H128.684ZM125.351 82.2106C126.403 81.5089 127.105 80.6317 127.281 79.4036C127.281 79.0527 127.281 78.7018 127.281 78.351C127.281 78.1755 127.105 77.8247 127.105 77.6492L126.93 77.2984C126.228 78.0001 125 79.0527 123.596 80.1054C123.245 80.2808 122.895 80.4562 122.544 80.4562C122.193 80.4562 121.667 80.2808 121.14 79.93C120.439 79.4036 119.561 78.8773 119.21 78.351L122.895 75.0176L123.596 74.4913C123.772 74.3159 124.123 74.3159 124.298 74.3159C124.649 74.3159 125.175 74.4913 125.526 74.8422C125.702 75.0176 125.877 74.8422 126.053 74.8422C126.228 74.6668 126.228 74.4913 126.228 74.3159C125.702 73.0878 126.228 72.2107 126.403 72.0352L126.93 71.3334L130.438 67.8246C130.789 68.351 131.316 69.2282 131.667 70.1054C132.017 71.158 131.842 72.2107 131.14 72.9124C130.088 74.1405 129.21 75.0176 128.509 75.7194L128.684 75.8948C128.684 75.8948 128.684 76.0703 128.86 76.0703L129.21 76.4212C129.912 77.4738 130.438 78.8773 130.438 80.4562C130.438 82.5615 129.561 84.6668 127.632 86.4212C127.105 86.9475 126.579 87.6492 126.053 88.1755C125.526 88.0001 125 87.8247 124.474 87.6492C123.07 87.1229 121.316 86.9475 119.386 86.9475H119.21C120.263 85.7194 122.017 84.3159 125.351 82.2106ZM114.123 88.1755C115.175 88.0001 117.105 87.6492 119.21 87.6492C121.14 87.6492 122.719 87.8247 124.123 88.351C128.158 89.7545 129.386 90.8071 130.263 91.8598C131.842 93.6141 132.719 95.3685 133.245 96.9475C133.07 96.772 132.895 96.4212 132.719 96.2457C130.614 93.6141 126.403 93.0878 123.246 93.0878C120.439 93.0878 117.807 93.4387 116.228 93.965C116.053 90.6317 114.824 88.8773 114.123 88.1755ZM129.21 97.4738C128.86 97.2984 128.684 97.1229 128.333 97.1229C127.456 96.9475 125.702 96.0703 125.175 94.3159C125.175 94.3159 125.175 94.1405 125.175 93.965C126.053 93.965 127.105 94.1404 127.982 94.3159C128.158 94.4913 128.333 94.6668 128.509 94.8422L128.86 95.544C128.86 95.544 129.21 96.4212 129.21 97.4738ZM114.474 101.86C114.474 101.684 114.474 101.684 114.474 101.86C114.298 101.684 114.298 101.509 114.298 101.509C114.298 101.509 114.298 101.333 114.123 101.333V101.158C114.123 100.983 114.123 100.983 113.947 100.807C113.947 100.807 113.947 100.807 113.947 100.632C113.947 100.456 113.947 100.456 113.947 100.281C113.947 100.105 113.947 99.9299 113.947 99.9299C113.947 99.7545 113.947 99.579 113.947 99.4036C113.947 99.2282 113.947 99.0527 113.947 98.8773C113.947 98.7019 113.947 98.7018 113.947 98.5264C114.298 99.4036 115.175 100.105 116.579 100.456C116.754 100.456 116.93 100.456 117.105 100.632C117.105 100.632 117.105 100.632 117.281 100.632C117.456 100.632 117.631 100.632 117.631 100.632H117.807C117.982 100.632 117.982 100.632 118.158 100.632H118.333C118.509 100.632 118.684 100.632 119.035 100.632H119.386L117.631 99.7545C117.281 99.5791 117.105 99.4036 116.93 99.2282C116.754 98.8773 116.403 98.1755 116.228 97.6492C116.053 96.5966 115.877 95.544 116.053 94.6668H116.228C116.579 94.4913 116.93 94.4913 117.456 94.3159C117.631 94.3159 117.807 94.3159 117.982 94.3159C118.333 94.3159 118.86 94.1404 119.21 94.1404C119.561 94.1404 119.912 94.1405 120.263 93.965C120.614 93.965 120.965 93.965 121.14 93.7896C121.842 93.7896 122.544 93.7896 123.246 93.7896C123.596 93.7896 123.772 93.7896 124.123 93.7896C124.123 93.965 124.123 94.1404 124.298 94.3159V94.4913C125 96.772 127.105 98.0001 128.158 98.1756C129.561 98.351 130.088 99.9299 130.088 101.509V101.684L129.386 102.386H130.088V102.562C130.263 102.737 130.438 102.912 130.614 103.263L129.035 103.965H131.842C132.193 103.965 132.368 104.491 132.368 104.842C132.368 105.193 132.193 105.544 131.842 105.544H123.07C122.895 105.544 121.842 105.369 121.491 105.193L121.316 105.018L120.263 103.965H119.912H117.631C117.456 103.965 116.93 103.79 116.403 103.614C116.403 103.614 116.228 103.614 116.228 103.439L116.053 103.263C115.877 103.263 115.877 103.088 115.702 103.088L115.526 102.912C115.526 102.912 115.526 102.912 115.526 102.737L115.351 102.562C115.351 102.562 115.351 102.562 115.351 102.386C115.175 102.211 115.175 102.211 115.175 102.035C114.649 102.035 114.474 101.86 114.474 101.86ZM194.649 103.79C194.123 105.193 193.421 106.421 193.245 107.298C193.07 107.649 193.07 108.176 193.07 108.526C192.895 109.93 192.544 111.684 190.614 112.737C188.684 113.79 185 115.193 178.509 115.193C175.877 115.193 172.895 115.018 169.561 114.491C166.579 113.965 163.421 113.79 160.263 113.614C158.333 113.439 156.403 113.439 154.649 113.439C149.561 113.439 144.474 113.79 139.561 114.491C136.403 115.018 133.421 115.193 130.614 115.193C124.123 115.193 120.439 113.79 118.509 112.737C116.579 111.684 116.403 109.93 116.053 108.526C116.053 108 115.877 107.649 115.877 107.298L115.702 106.772C115.526 105.895 115.175 104.667 114.824 103.614C117.631 106.246 123.421 107.474 128.333 107.825C128.86 107.825 129.21 107.825 129.737 107.825C132.368 107.825 135.526 107.474 139.035 106.947C142.193 106.597 145.877 106.07 149.912 105.895C152.017 105.719 153.947 105.719 156.052 105.719C162.193 105.719 167.105 106.421 171.316 106.947C174.474 107.474 177.105 107.825 179.737 107.825C180.088 107.825 180.614 107.825 180.965 107.825C185.702 107.474 191.667 106.246 194.649 103.79C194.824 103.79 194.649 103.79 194.649 103.79ZM195.702 98.351C195.702 98.5264 195.702 98.5264 195.702 98.7019C195.702 98.8773 195.702 99.0528 195.702 99.2282C195.702 99.4036 195.702 99.5791 195.702 99.7545C195.702 99.9299 195.702 99.93 195.702 100.105C195.702 100.281 195.702 100.281 195.702 100.456C195.702 100.456 195.702 100.456 195.702 100.632C195.702 100.807 195.702 100.807 195.702 100.983V101.158V101.333C195.702 101.333 195.702 101.509 195.526 101.509V101.684C195.526 101.86 195.351 101.86 195.351 102.035C195.351 102.211 195.175 102.211 195.175 102.386C195.175 102.386 195.175 102.386 195.175 102.562L195 102.737C195 102.737 195 102.737 195 102.912L194.824 103.088C194.649 103.088 194.649 103.263 194.474 103.263L194.298 103.439C194.298 103.439 194.123 103.439 194.123 103.614C193.421 103.965 192.895 103.965 192.895 103.965H190.614H190.263L189.21 105.018L189.035 105.193C188.684 105.369 187.631 105.544 187.456 105.544H177.807C177.456 105.544 177.281 105.193 177.281 104.842C177.281 104.491 177.456 103.965 177.807 103.965H180.614L179.035 103.263C179.386 102.912 179.386 102.737 179.561 102.562V102.386H180.263L179.561 101.684V101.509C179.561 99.9299 180.263 98.351 181.491 98.1756C182.544 98.0001 184.649 96.772 185.351 94.4913V94.3159C185.351 94.1404 185.351 93.965 185.351 93.7896C185.702 93.7896 186.053 93.7896 186.228 93.7896C186.93 93.7896 187.631 93.7896 188.333 93.7896C188.684 93.7896 189.035 93.7896 189.386 93.965C189.737 93.965 189.912 93.965 190.263 93.965C190.789 93.965 191.316 94.1404 191.842 94.1404H192.017C192.544 94.3159 193.07 94.3159 193.421 94.4913C193.421 95.544 193.421 96.5966 193.245 97.6492C193.07 98.351 192.719 98.8773 192.544 99.2282C192.368 99.4036 192.193 99.5791 191.842 99.7545L190.088 100.632H190.439C190.614 100.632 190.789 100.632 191.14 100.632H191.316C191.491 100.632 191.667 100.632 191.667 100.632H191.842C192.017 100.632 192.193 100.632 192.193 100.632C192.193 100.632 192.193 100.632 192.368 100.632C192.544 100.632 192.719 100.632 192.895 100.456C194.474 99.9299 195.351 99.2282 195.702 98.351ZM180.088 97.6492C179.912 96.5966 180.438 95.544 180.438 95.544L180.789 94.8422C180.965 94.6668 181.316 94.4913 181.491 94.3159C182.368 94.1404 183.421 93.965 184.298 93.965C184.298 94.1405 184.298 94.3159 184.298 94.3159C183.772 96.0703 182.017 96.9475 181.14 97.1229C180.965 97.1229 180.614 97.2983 180.088 97.6492ZM193.947 93.965C192.368 93.6142 189.561 93.0878 186.579 93.0878C183.246 93.0878 178.86 93.6141 176.754 96.2457C176.579 96.4212 176.403 96.772 176.228 96.9475C176.754 95.1931 177.807 93.6141 179.386 91.8598C180.263 90.8071 181.667 89.7545 185.702 88.351C187.105 88.0001 188.684 87.6492 190.789 87.6492C192.895 87.6492 195 88.0001 195.877 88.1755C195 88.8773 193.772 90.6317 193.947 93.965Z" fill="white"/>
<path d="M188.333 90.2809C187.982 90.1055 187.632 90.1055 187.632 89.93C187.456 89.7546 187.456 89.7546 187.456 89.5792C187.456 89.4038 187.456 89.4037 187.632 89.2283C187.807 89.0529 187.982 89.0529 188.158 89.0529C188.333 89.0529 188.684 89.0529 188.86 89.2283C189.035 89.4037 189.21 89.5792 189.386 89.7546V89.93C189.386 89.93 189.386 89.93 189.386 89.7546V89.5792V89.4038C189.386 89.4038 189.386 89.4037 189.386 89.2283V89.0529H189.211C189.211 89.0529 189.211 89.0529 189.035 89.0529H188.86H188.684C188.509 89.0529 188.333 89.0529 188.158 89.0529C187.807 89.0529 187.632 89.2283 187.456 89.4038C187.281 89.5792 187.105 89.7546 187.105 90.1055C187.105 90.2809 187.281 90.4564 187.281 90.6318C187.456 90.8072 187.807 90.9827 188.158 90.9827L188.684 91.1581C188.86 91.1581 189.035 91.3336 189.035 91.3336C189.035 91.3336 189.211 91.509 189.211 91.6844C189.211 91.8599 189.211 92.0353 189.035 92.2108C188.86 92.3862 188.684 92.3862 188.509 92.3862C188.333 92.3862 187.982 92.3862 187.807 92.0353C187.632 91.8599 187.456 91.6845 187.281 91.3336C187.281 91.3336 187.281 91.3335 187.281 91.509C187.281 91.509 187.281 91.6845 187.456 92.0353C187.456 92.2108 187.632 92.2107 187.632 92.3862V92.5616C187.632 92.5616 187.632 92.5616 187.807 92.5616C187.807 92.5616 187.982 92.5616 188.158 92.5616C188.509 92.5616 188.684 92.7371 188.86 92.7371C189.21 92.7371 189.561 92.5616 189.737 92.3862C189.912 92.2107 190.088 91.8599 190.088 91.6844C190.088 91.509 189.912 91.1581 189.737 90.9827C189.21 90.4564 188.86 90.4564 188.333 90.2809Z" fill="white"/>
<path d="M186.754 91.509C186.579 92.0353 186.053 92.2107 185.175 92.3862H185C185 92.3862 184.824 92.3862 184.824 92.2108C184.824 92.0353 184.649 92.0353 184.649 91.6844V91.509C184.649 91.3335 184.649 91.1581 184.649 91.1581V90.9827C184.649 90.9827 184.649 90.9827 184.824 90.9827H185C185.175 90.9827 185.351 90.9827 185.351 90.9827H185.526C185.702 90.9827 185.702 91.1582 185.702 91.3336C185.702 91.3336 185.702 91.3336 185.877 91.3336V91.1581C185.877 90.9827 185.877 90.9827 185.877 90.8072C185.877 90.6318 185.877 90.4564 185.877 90.4564C185.877 90.4564 185.877 90.4564 185.877 90.2809V90.1055V90.2809C185.877 90.4564 185.702 90.6318 185.526 90.6318H185.351H185.175C185 90.6318 185 90.6318 185 90.6318C185 90.6318 185 90.4564 184.824 90.2809V89.7546V89.5792C184.824 89.4038 184.824 89.4037 185 89.2283H185.175H185.526C185.877 89.2283 186.053 89.2283 186.228 89.2283C186.403 89.2283 186.403 89.4038 186.403 89.5792V89.7546C186.403 89.7546 186.579 89.7546 186.403 89.5792C186.403 89.5792 186.403 89.4037 186.403 89.2283C186.403 89.0529 186.403 89.0529 186.403 89.0529C186.403 89.0529 186.403 89.0529 186.228 89.0529C186.053 89.0529 185.702 89.0529 185 89.2283L183.947 89.4038H183.596H183.421C183.421 89.4038 183.246 89.4038 183.421 89.4038C183.596 89.4038 183.772 89.4038 183.947 89.5792C183.947 89.5792 184.123 89.7546 184.123 89.93L184.474 91.8599C184.474 92.0353 184.474 92.2108 184.474 92.2108C184.474 92.3862 184.474 92.3862 184.474 92.3862L184.298 92.5616C184.298 92.5616 184.298 92.5616 184.474 92.5616H184.649C185 92.5616 185.175 92.5616 185.351 92.3862C185.526 92.3862 185.702 92.3862 185.877 92.3862H186.228C186.403 92.3862 186.579 92.3862 186.579 92.3862C186.754 92.3862 186.93 92.3862 187.105 92.2108C187.281 92.2108 187.281 92.0353 187.456 91.8599C186.93 92.0353 186.93 91.8599 186.754 91.509C186.93 91.6844 186.93 91.6844 186.754 91.509C186.93 91.509 186.754 91.509 186.754 91.509Z" fill="white"/>
<path d="M184.474 111.684L185 111.86C185.175 111.86 185.351 112.035 185.526 112.035C185.702 112.035 185.702 112.211 185.702 112.386C185.702 112.561 185.702 112.737 185.526 112.912C185.351 113.088 185.175 113.263 185 113.263C184.824 113.263 184.474 113.263 184.298 113.088C183.947 112.912 183.772 112.737 183.596 112.386C183.596 112.386 183.596 112.386 183.596 112.561C183.596 112.561 183.596 112.737 183.772 113.088C183.772 113.263 183.947 113.439 183.947 113.439V113.614C183.947 113.614 183.947 113.614 184.123 113.614C184.123 113.614 184.298 113.614 184.474 113.614C184.825 113.614 185 113.614 185.175 113.614C185.526 113.614 185.702 113.439 185.877 113.088C186.053 112.737 186.053 112.561 186.053 112.211C186.053 111.86 185.877 111.684 185.702 111.509C185.526 111.333 185.175 111.158 184.649 111.158C184.298 111.158 183.947 110.982 183.947 110.982C183.772 110.807 183.772 110.807 183.772 110.632C183.772 110.456 183.772 110.281 183.947 110.281C184.123 110.105 184.123 110.105 184.298 110.105C184.474 110.105 184.824 110.105 185 110.281C185.351 110.456 185.526 110.632 185.526 110.982C185.526 110.982 185.526 111.158 185.702 111.158C185.702 111.158 185.702 111.158 185.702 110.982V110.807L185.526 110.456C185.526 110.456 185.526 110.456 185.526 110.281V110.105V109.93H185.351H185.175H185C184.824 109.93 184.649 109.93 184.474 109.93C184.123 109.93 183.947 110.105 183.772 110.456C183.596 110.632 183.596 110.982 183.596 111.333C183.596 111.684 183.772 111.86 183.947 112.035C183.772 111.333 184.123 111.509 184.474 111.684Z" fill="white"/>
<path d="M117.807 91.158L118.333 91.3334C118.509 91.3334 118.684 91.5088 118.684 91.5088C118.684 91.5088 118.86 91.6843 118.86 91.8597C118.86 92.0351 118.86 92.2105 118.684 92.386C118.509 92.5614 118.333 92.5614 118.158 92.5614C117.982 92.5614 117.631 92.5614 117.456 92.386C117.281 92.2105 116.93 92.0351 116.93 91.6842C116.93 91.6842 116.93 91.6843 116.93 91.8597C116.93 91.8597 116.93 92.0352 117.105 92.2106C117.105 92.386 117.281 92.386 117.281 92.5614V92.7369C117.281 92.7369 117.281 92.7369 117.456 92.7369C117.456 92.7369 117.631 92.7369 117.807 92.7369C118.158 92.7369 118.333 92.7369 118.333 92.7369C118.684 92.7369 118.86 92.5614 119.035 92.386C119.21 92.2105 119.386 91.8597 119.21 91.5088C119.21 91.1579 119.035 90.9825 118.86 90.8071C118.684 90.6316 118.333 90.4562 117.982 90.4562C117.632 90.2808 117.456 90.2808 117.281 90.2808C117.105 90.2808 117.105 90.1053 117.105 89.9299C117.105 89.7544 117.105 89.579 117.281 89.579C117.456 89.4036 117.456 89.4036 117.631 89.4036C117.807 89.4036 118.158 89.4036 118.333 89.579C118.509 89.7545 118.684 89.9299 118.86 90.1053C118.86 90.1053 118.86 90.2808 119.035 90.2808C119.035 90.2808 119.035 90.2807 119.035 90.1053V89.9299V89.7544C119.035 89.7544 119.035 89.7545 119.035 89.579V89.4036H118.86H118.684H118.509C118.333 89.4036 118.158 89.4036 117.982 89.4036C117.632 89.4036 117.456 89.579 117.281 89.7544C117.105 89.9298 117.105 90.2808 117.105 90.4562C117.105 90.6316 117.281 90.8071 117.456 90.9825C117.105 90.8071 117.281 90.9825 117.807 91.158Z" fill="white"/>
<path d="M126.053 104.14C126.754 104.14 127.281 103.614 127.281 102.912C127.281 102.737 127.105 102.737 127.105 102.737H125.175C125 102.737 125 102.912 125 102.912C124.825 103.614 125.351 104.14 126.053 104.14Z" fill="white"/>
<path d="M123.07 92.3857C123.596 92.3857 124.123 92.2103 124.474 91.8594C124.649 91.684 124.649 91.684 124.649 91.5085L124.474 91.684C124.298 91.8594 124.123 91.8594 123.947 92.0349C123.772 92.0349 123.596 92.2103 123.421 92.2103C123.07 92.2103 122.895 92.0348 122.544 91.8594C122.193 91.5085 122.018 91.1577 122.018 90.4559C122.018 90.105 122.193 89.7542 122.368 89.4033C122.544 89.2278 122.895 89.0524 123.246 89.0524C123.596 89.0524 123.947 89.2279 124.298 89.5787C124.298 89.5787 124.474 89.7541 124.474 89.9296C124.474 90.105 124.649 90.105 124.649 90.2805C124.649 90.2805 124.649 90.2805 124.649 90.105V89.9296V89.7541V89.5787V89.4033V89.2278C124.649 89.0524 124.649 89.0524 124.649 89.0524C124.649 89.0524 124.649 89.0524 124.474 89.0524L124.298 88.8769C124.123 88.7015 123.772 88.7015 123.421 88.7015C122.895 88.7015 122.544 88.8769 122.193 89.0524C122.017 89.2278 121.842 89.4032 121.667 89.7541C121.491 90.105 121.491 90.2804 121.491 90.6313C121.491 91.1576 121.667 91.5085 122.018 91.8594C122.193 92.2103 122.544 92.3857 123.07 92.3857Z" fill="white"/>
<path d="M120.614 112.035C120.614 111.86 120.614 111.859 120.614 111.684V111.333L121.491 109.052C121.491 108.877 121.667 108.877 121.667 108.702C121.667 108.702 121.842 108.702 122.018 108.702C122.018 108.702 122.018 108.702 122.018 108.526C121.842 108.526 121.842 108.526 121.667 108.351H121.491C121.316 108.351 121.14 108.351 121.14 108.175C120.965 108.175 120.789 108 120.789 108H120.614C120.614 108 120.614 108 120.439 108C120.439 108 120.439 108 120.614 108.175C120.789 108.175 120.789 108.351 120.965 108.351C120.965 108.526 120.965 108.526 120.965 108.702L120.088 110.807L119.912 110.982C119.912 111.158 119.737 111.158 119.737 111.333C119.737 111.333 119.561 111.333 119.386 111.333H119.21C119.21 111.333 119.21 111.333 119.21 111.509H119.386C119.561 111.509 119.561 111.509 119.737 111.684C119.912 111.684 120.088 111.859 120.263 111.859C120.263 111.859 120.439 111.86 120.439 112.035C120.614 112.035 120.614 112.035 120.614 112.035C120.614 112.035 120.614 111.859 120.439 111.859C120.789 112.21 120.614 112.035 120.614 112.035Z" fill="white"/>
<path d="M119.386 89.2283C119.561 89.2283 119.737 89.2283 119.737 89.4038C119.737 89.4038 119.912 89.5792 119.912 89.7546L120.088 91.8599V92.0353C120.088 92.2108 120.088 92.2107 120.088 92.3862L119.912 92.5616H120.088C120.263 92.5616 120.263 92.5616 120.439 92.5616C120.614 92.5616 120.789 92.5616 120.965 92.5616H121.14C121.316 92.5616 121.316 92.5616 121.316 92.3862C121.316 92.3862 121.316 92.3862 121.14 92.3862C120.965 92.3862 120.965 92.3862 120.789 92.2108C120.789 92.2108 120.614 92.0353 120.614 91.8599V91.6844L120.439 89.5792C120.439 89.4038 120.439 89.4037 120.439 89.2283L120.614 89.0529C120.614 89.0529 120.614 89.0529 120.439 89.0529C120.263 89.0529 120.263 89.0529 120.088 89.0529H119.912C119.737 89.0529 119.561 89.0529 119.561 89.0529L119.386 89.2283C119.211 89.0529 119.211 89.0529 119.386 89.2283C119.211 89.0529 119.21 89.0529 119.21 89.0529C119.21 89.0529 119.211 89.0529 119.386 89.2283Z" fill="white"/>
<path d="M137.105 113.263C136.93 113.263 136.93 113.088 136.93 112.912L135.351 109.93V109.754C135.351 109.579 135.176 109.579 135.176 109.579C135.176 109.579 135.175 109.579 135 109.754L134.825 110.105L134.649 110.632C134.649 110.632 134.649 110.807 134.474 110.982L133.772 112.912C133.597 113.263 133.597 113.439 133.597 113.439C133.597 113.614 133.421 113.614 133.421 113.614C133.421 113.614 133.421 113.614 133.421 113.789C133.421 113.789 133.597 113.789 133.772 113.789C133.947 113.789 134.123 113.789 134.298 113.789C134.474 113.789 134.474 113.789 134.649 113.789H134.825H135C135 113.789 135 113.789 134.825 113.789C134.474 113.789 134.298 113.614 134.298 113.439V113.263V113.088C134.298 112.912 134.474 112.737 134.474 112.737H134.649H135C135.351 112.737 135.526 112.737 135.702 112.737C135.702 112.737 135.877 112.737 135.877 112.912C136.053 113.263 136.228 113.439 136.228 113.614V113.789L136.053 113.965C136.228 113.965 136.404 113.965 136.754 113.789C137.105 113.789 137.281 113.789 137.456 113.789C137.456 113.789 137.456 113.789 137.632 113.789C137.456 113.263 137.281 113.263 137.105 113.263ZM135.526 111.86H134.649C134.474 111.86 134.474 111.86 134.474 111.86L134.649 110.982V110.807C134.649 110.632 134.649 110.632 134.825 110.632C134.825 110.632 135 110.807 135 110.982L135.526 111.86C135.702 111.86 135.702 111.86 135.526 111.86C135.702 111.86 135.702 111.86 135.526 111.86Z" fill="white"/>
<path d="M131.667 113.614C131.667 113.614 131.491 113.438 131.491 113.263L130.263 110.105V109.93C130.263 109.754 130.088 109.754 130.088 109.754C130.088 109.754 130.088 109.754 129.912 109.93L129.737 110.28L129.386 110.807C129.386 110.807 129.386 110.982 129.211 111.158L128.333 112.912C128.158 113.263 128.158 113.438 127.983 113.438L127.807 113.614C127.807 113.614 127.807 113.614 127.807 113.789C127.807 113.789 127.983 113.789 128.158 113.789C128.333 113.789 128.509 113.789 128.509 113.789C128.684 113.789 128.684 113.789 128.86 113.789H129.035H129.211C129.211 113.789 129.211 113.789 129.035 113.789C128.684 113.789 128.509 113.614 128.509 113.263V113.087L128.684 112.912C128.86 112.737 128.86 112.561 128.86 112.561H129.035H129.386C129.737 112.561 129.912 112.561 130.088 112.561L130.263 112.737C130.439 113.087 130.439 113.263 130.439 113.438C130.439 113.438 130.439 113.614 130.263 113.614L130.088 113.789C130.263 113.789 130.439 113.789 130.79 113.789C131.14 113.789 131.316 113.789 131.491 113.789C131.491 113.789 131.491 113.789 131.667 113.789C131.842 113.614 131.842 113.614 131.667 113.614ZM130.263 112.035H129.386C129.211 112.035 129.211 112.035 129.211 111.859L129.562 111.158V110.982C129.562 110.807 129.737 110.807 129.737 110.807C129.737 110.807 129.912 110.982 129.912 111.158L130.263 112.035Z" fill="white"/>
<path d="M146.754 111.684C146.579 111.684 146.579 111.509 146.404 111.333L144.649 108.526L144.474 108.351C144.298 108.175 144.298 108.175 144.298 108.175C144.298 108.175 144.298 108.175 144.298 108.351L144.123 108.702L143.948 109.228C143.948 109.228 143.948 109.404 143.948 109.579L143.421 111.509C143.421 111.86 143.246 112.035 143.246 112.035C143.246 112.211 143.07 112.211 143.07 112.211C143.07 112.211 143.07 112.211 143.07 112.386C143.07 112.386 143.07 112.386 143.246 112.386C143.246 112.386 143.421 112.386 143.597 112.386C143.772 112.386 143.948 112.386 143.948 112.211C144.123 112.211 144.123 112.211 144.298 112.211H144.474C144.474 112.211 144.649 112.211 144.649 112.035C144.649 112.035 144.649 112.035 144.474 112.035C144.123 112.035 143.948 111.86 143.948 111.684V111.509V111.333C143.948 111.158 144.123 110.982 144.123 110.982H144.298H144.649C145 110.982 145.176 110.982 145.351 110.982C145.351 110.982 145.526 110.982 145.526 111.158C145.702 111.509 145.877 111.684 145.877 111.86V112.035L145.702 112.211C145.877 112.211 146.053 112.035 146.404 112.035C146.754 112.035 146.93 112.035 147.105 112.035C147.105 112.035 147.105 112.035 147.281 112.035C146.93 111.86 146.93 111.684 146.754 111.684ZM145.176 110.456L144.298 110.632C144.123 110.632 144.123 110.632 144.123 110.632L144.298 109.754V109.579C144.298 109.404 144.298 109.404 144.474 109.404C144.474 109.404 144.649 109.579 144.649 109.754L145.176 110.456Z" fill="white"/>
<path d="M140.614 109.404C140.088 109.053 139.561 109.053 139.035 109.228C138.86 109.228 138.684 109.228 138.333 109.404C138.158 109.404 137.982 109.579 137.807 109.579H137.632H137.281H137.105C137.105 109.579 137.105 109.579 137.281 109.579C137.456 109.579 137.632 109.579 137.807 109.579C137.982 109.579 137.982 109.755 137.982 109.93L138.333 112.386C138.333 112.562 138.333 112.737 138.333 112.737L138.158 112.912C138.158 112.912 138.158 112.912 138.333 112.912C138.509 112.912 138.684 112.737 139.035 112.737C139.211 112.737 139.386 112.737 139.386 112.737C139.561 112.737 139.737 112.737 139.912 112.737C140.439 112.737 140.789 112.386 141.14 112.035C141.667 111.509 141.667 110.983 141.667 110.281C141.316 110.105 140.965 109.579 140.614 109.404ZM140.614 112.211C140.439 112.562 140.088 112.737 139.737 112.912C139.386 112.912 139.035 112.912 139.035 112.737V112.562L138.684 110.105C138.684 109.93 138.684 109.755 138.684 109.755C138.684 109.755 138.86 109.579 139.035 109.579C139.561 109.579 139.912 109.579 140.263 109.93C140.614 110.281 140.789 110.632 140.965 111.158C140.789 111.509 140.789 111.86 140.614 112.211Z" fill="white"/>
<path d="M127.982 112.737C127.982 112.737 127.807 112.737 127.982 112.737C127.456 113.263 127.105 113.439 126.403 113.263C126.228 113.263 126.228 113.263 126.053 113.263C126.053 113.263 125.877 113.088 126.053 112.561L126.403 110.105C126.403 109.93 126.579 109.754 126.754 109.754H126.93C126.93 109.754 126.93 109.579 126.754 109.579C126.579 109.579 126.403 109.579 126.228 109.579C126.053 109.579 125.877 109.579 125.702 109.579H125.526H125.351C125.351 109.579 125.351 109.579 125.175 109.579H125C125 109.579 125 109.579 125.175 109.754H125.351C125.526 109.754 125.702 109.93 125.702 110.281L125.351 112.737C125.351 112.912 125.351 113.088 125.175 113.263C125.175 113.439 125 113.439 124.824 113.439C124.824 113.439 124.825 113.439 125 113.439C125.175 113.439 125.526 113.439 125.702 113.439C125.877 113.439 125.877 113.439 126.053 113.439H126.403C126.579 113.439 126.754 113.439 126.754 113.439C126.93 113.439 126.93 113.439 127.105 113.439C127.281 113.439 127.632 113.439 127.632 113.263C127.807 113.263 127.982 113.088 127.982 112.737Z" fill="white"/>
<path d="M124.474 112.386C124.123 112.737 123.596 112.737 123.07 112.561C122.895 112.561 122.895 112.561 122.719 112.386C122.719 112.386 122.719 112.035 122.719 111.684L123.246 109.228C123.246 109.053 123.421 108.877 123.596 108.877H123.772C123.772 108.877 123.772 108.702 123.596 108.702C123.421 108.702 123.246 108.702 123.07 108.702C122.895 108.702 122.719 108.702 122.719 108.702H122.544H122.368C122.368 108.702 122.368 108.702 122.193 108.702C122.193 108.702 122.193 108.702 122.018 108.702C122.018 108.702 122.017 108.702 121.842 108.702V108.877H122.018C122.193 109.053 122.368 109.228 122.193 109.404L121.667 111.684C121.667 111.86 121.491 112.035 121.491 112.211C121.491 112.211 121.316 112.386 121.14 112.386C121.14 112.386 121.14 112.386 120.965 112.386C120.965 112.386 120.965 112.386 120.965 112.561C120.965 112.561 120.965 112.561 121.14 112.561C121.316 112.561 121.667 112.561 121.842 112.737C122.017 112.737 122.017 112.737 122.193 112.912H122.544C122.719 112.912 122.895 112.912 122.895 113.088C123.07 113.088 123.07 113.088 123.07 113.088C123.246 113.088 123.421 113.088 123.772 112.912C123.947 112.737 124.123 112.561 124.123 112.386V112.211C124.649 112.211 124.474 112.386 124.474 112.386Z" fill="white"/>
<path d="M67.1053 163.614C62.193 163.614 58.1579 162.737 55 159.403L60.0878 154.316C61.8421 155.895 64.6491 156.596 67.2807 156.596C70.4386 156.596 71.8421 155.544 71.8421 153.789C71.8421 153.088 71.6667 152.386 71.1404 151.86C70.7895 151.509 70.0877 151.158 69.0351 150.982L65.1754 150.456C62.3684 150.105 60.0877 149.052 58.6842 147.649C57.1052 146.07 56.4035 143.965 56.4035 141.158C56.4035 135.368 60.7895 130.982 68.1579 130.982C72.7193 130.982 76.2281 132.035 79.0351 134.842L74.1229 139.754C72.0176 137.649 69.386 137.824 67.9825 137.824C65.1755 137.824 64.1228 139.403 64.1228 140.807C64.1228 141.158 64.2982 141.86 64.8245 142.21C65.1754 142.561 65.8772 143.088 67.1053 143.088L70.9649 143.614C73.7719 143.965 75.8772 144.842 77.2807 146.245C79.0351 148 79.7368 150.281 79.7368 153.263C79.5614 160.105 73.772 163.614 67.1053 163.614ZM99.9122 163.438L98.5088 158.702H88.6842L87.1052 163.438H78.8596L90.614 131.333H96.7544L108.509 163.438H99.9122ZM93.5965 143.438L90.7895 152.035H96.4035L93.5965 143.438ZM109.561 163.438V131.333H117.456V156.421H130.965V163.438H109.561ZM142.018 163.438H136.228L125.702 131.333H133.772L139.211 149.228L144.474 131.333H152.719L142.018 163.438ZM166.93 163.438L165.526 158.702H155.702L154.123 163.438H145.877L157.632 131.333H163.772L175.526 163.438H166.93ZM160.614 143.438L157.807 152.035H163.421L160.614 143.438ZM197.105 160.281C194.825 162.561 191.842 163.438 188.509 163.438H176.579V131.333H188.509C191.842 131.333 195 132.21 197.105 134.491C200.789 138.175 200.439 142.386 200.439 147.474C200.439 152.386 200.965 156.421 197.105 160.281ZM191.842 140.105C191.14 139.052 190.088 138.351 187.982 138.351H184.474V156.421H187.982C189.912 156.421 191.14 155.719 191.842 154.666C192.544 153.789 192.719 152.912 192.719 147.474C192.719 141.86 192.368 140.982 191.842 140.105ZM223.947 160.105C221.667 162.386 218.86 163.789 215 163.789C211.14 163.789 208.333 162.561 206.053 160.105C202.719 156.772 202.719 152.21 202.719 147.298C202.719 142.561 202.544 138 206.053 134.491C208.333 132.21 211.14 130.807 215 130.807C218.86 130.807 221.667 132.035 223.947 134.491C227.281 137.824 227.105 142.386 227.105 147.298C227.105 152.21 227.281 156.596 223.947 160.105ZM218.158 139.403C217.632 138.702 216.404 138 215 138C213.597 138 212.368 138.702 211.842 139.403C211.14 140.281 210.614 141.509 210.614 147.298C210.614 153.088 211.14 154.14 211.842 155.193C212.368 155.895 213.597 156.596 215 156.596C216.404 156.596 217.632 155.895 218.158 155.193C218.86 154.316 219.386 153.263 219.386 147.298C219.211 141.509 218.86 140.456 218.158 139.403ZM245.702 163.438L240.088 151.509H237.456V163.438H229.561V131.333H242.368C249.561 131.333 253.246 136.421 253.246 141.684C253.246 146.07 250.614 148.877 247.982 150.105L255 163.438H245.702ZM241.842 138.351H237.456V144.842H241.842C243.947 144.842 245.351 143.263 245.351 141.509C245.175 139.93 243.947 138.351 241.842 138.351Z" fill="white"/>
<path d="M90.263 183.088H86.5788V188.526H84.8245V173.088H90.6139C94.1227 173.088 96.4034 175.017 96.4034 178C96.4034 181.333 93.5964 183.088 90.263 183.088ZM90.4385 174.666H86.5788V181.509H90.4385C93.0701 181.509 94.649 180.105 94.649 178.175C94.649 175.895 92.8947 174.666 90.4385 174.666ZM109.912 188.526L105.526 182.561H101.14V188.526H99.3858V173.088H106.052C109.386 173.088 111.667 174.842 111.667 177.649C111.667 180.28 109.912 181.684 107.456 182.21L112.193 188.526H109.912ZM105.877 174.666H101.14V180.982H105.877C108.158 180.982 109.912 179.754 109.912 177.824C109.737 175.895 108.333 174.666 105.877 174.666ZM126.053 174.666H116.579V179.93H125V181.509H116.579V186.947H126.053V188.526H114.824V173.088H126.053V174.666ZM140.614 174.666H131.316V180.105H139.737V181.684H131.316V188.351H129.561V172.912H140.614V174.666ZM154.825 174.666H145.351V179.93H153.772V181.509H145.351V186.947H154.825V188.526H143.596V173.088H154.825V174.666ZM160.088 188.526H158.333V173.088H160.088V188.526ZM170.263 188.526H168.509V174.666H163.246V173.088H175.351V174.666H170.088V188.526H170.263ZM190.965 181.859C190.965 186.421 188.333 188.702 184.474 188.702C180.614 188.702 177.982 186.421 177.982 182.035V173.088H179.737V181.859C179.737 185.193 181.491 187.123 184.474 187.123C187.281 187.123 189.035 185.368 189.035 182.035V173.088H190.789V181.859H190.965ZM205.526 188.526L201.14 182.561H196.754V188.526H195V173.088H201.667C205 173.088 207.281 174.842 207.281 177.649C207.281 180.28 205.526 181.684 203.07 182.21L207.807 188.526H205.526ZM201.316 174.666H196.579V180.982H201.316C203.596 180.982 205.351 179.754 205.351 177.824C205.351 175.895 203.947 174.666 201.316 174.666ZM224.824 188.526H222.895L221.14 184.491H212.895L211.14 188.526H209.386L216.403 173.088H217.982L224.824 188.526ZM217.105 175.017L213.596 182.912H220.614L217.105 175.017Z" fill="white"/>
<path d="M57.807 209.93H56.579V212.211H55V204.842H57.9825C59.7369 204.842 60.7895 205.895 60.7895 207.474C60.7895 209.053 59.3859 209.93 57.807 209.93ZM59.0351 207.298C59.0351 206.597 58.5088 206.246 57.6316 206.246H56.4035V208.527H57.6316C58.6842 208.527 59.0351 208 59.0351 207.298Z" fill="white"/>
<path d="M67.8071 212.211L66.2282 209.755H65.0001V212.211H63.4211V204.842H66.7545C68.5089 204.842 69.5615 205.719 69.5615 207.298C69.5615 208.526 68.8598 209.228 67.9826 209.579L69.737 212.211H67.8071ZM67.8071 207.298C67.8071 206.597 67.2808 206.246 66.579 206.246H65.0001V208.351H66.579C67.2808 208.351 67.8071 208 67.8071 207.298Z" fill="white"/>
<path d="M73.7719 204.842H72.1929V212.211H73.7719V204.842Z" fill="white"/>
<path d="M82.8948 212.211V207.298L80.7895 210.456H80.614L78.6842 207.298V212.211H77.1052V204.842H78.8596L80.7895 207.825L82.7193 204.842H84.4737V212.211H82.8948Z" fill="white"/>
<path d="M87.4561 212.211V204.842H93.0701V206.246H89.2104V207.649H92.5438V209.228H89.2104V210.632H93.0701V212.211H87.4561Z" fill="white"/>
<path d="M97.6316 204.842H96.0527V212.211H97.6316V204.842Z" fill="white"/>
<path d="M105.176 212.211L103.597 209.755H102.369V212.211H100.79V204.842H104.123C105.877 204.842 106.93 205.719 106.93 207.298C106.93 208.526 106.228 209.228 105.351 209.579L107.105 212.211H105.176ZM105.351 207.298C105.351 206.597 104.825 206.246 104.123 206.246H102.369V208.351H103.948C104.825 208.351 105.351 208 105.351 207.298Z" fill="white"/>
<path d="M115.176 212.211L114.474 210.632H111.316L110.614 212.211H109.035L112.193 204.667H113.772L116.93 212.211H115.176ZM112.895 206.596L111.842 209.053H113.772L112.895 206.596Z" fill="white"/>
<path d="M127.281 212.21C125.176 212.21 123.421 210.456 123.421 208.351C123.421 206.245 125 204.491 127.281 204.491C128.684 204.491 129.562 205.017 130.263 205.719L129.211 206.947C128.684 206.421 127.983 206.07 127.281 206.07C126.053 206.07 125.176 207.123 125.176 208.351C125.176 209.579 126.053 210.631 127.281 210.631C128.158 210.631 128.684 210.281 129.211 209.754L130.263 210.807C129.562 211.859 128.684 212.21 127.281 212.21Z" fill="white"/>
<path d="M138.333 212.211L137.632 210.632H134.474L133.772 212.211H132.018L135.175 204.667H136.754L139.912 212.211H138.333ZM136.228 206.596L135.175 209.053H137.105L136.228 206.596Z" fill="white"/>
<path d="M145.351 209.93H144.123V212.211H142.544V204.842H145.526C147.281 204.842 148.333 205.895 148.333 207.474C148.333 209.053 147.105 209.93 145.351 209.93ZM146.754 207.298C146.754 206.597 146.228 206.246 145.351 206.246H144.123V208.527H145.351C146.228 208.527 146.754 208 146.754 207.298Z" fill="white"/>
<path d="M152.544 204.842H150.965V212.211H152.544V204.842Z" fill="white"/>
<path d="M159.035 206.246V212.211H157.456V206.246H155.175V204.842H161.316V206.246H159.035Z" fill="white"/>
<path d="M168.509 212.211L167.807 210.632H164.649L163.947 212.211H162.193L165.351 204.667H166.93L170.088 212.211H168.509ZM166.228 206.596L165.175 209.053H167.105L166.228 206.596Z" fill="white"/>
<path d="M172.544 212.211V204.842H174.298V210.632H177.982V212.211H172.544Z" fill="white"/>
<path d="M187.807 212.211H184.824V204.842H187.807C190.088 204.842 191.667 206.421 191.667 208.527C191.667 210.456 190.088 212.211 187.807 212.211ZM190.088 208.527C190.088 207.123 189.21 206.246 187.807 206.246H186.579V210.632H187.807C189.035 210.632 190.088 209.755 190.088 208.527Z" fill="white"/>
<path d="M197.982 212.21C195.702 212.21 194.123 210.456 194.123 208.351C194.123 206.245 195.702 204.491 198.158 204.491C200.439 204.491 202.018 206.245 202.018 208.351C202.018 210.631 200.263 212.21 197.982 212.21ZM200.263 208.526C200.263 207.298 199.386 206.245 197.982 206.245C196.579 206.245 195.702 207.298 195.702 208.526C195.702 209.754 196.579 210.807 197.982 210.807C199.386 210.807 200.263 209.754 200.263 208.526Z" fill="white"/>
<path d="M212.719 212.211H209.21V204.842H212.719C214.298 204.842 215.175 205.544 215.175 206.772C215.175 207.649 214.649 208 214.123 208.351C215 208.702 215.526 209.228 215.526 210.105C215.526 211.509 214.474 212.211 212.719 212.211ZM213.421 206.948C213.421 206.421 213.07 206.246 212.368 206.246H210.789V207.825H212.368C213.07 207.825 213.421 207.474 213.421 206.948ZM213.947 209.93C213.947 209.404 213.596 209.053 212.719 209.053H210.789V210.632H212.719C213.421 210.807 213.947 210.456 213.947 209.93Z" fill="white"/>
<path d="M222.719 212.211L221.14 209.755H219.912V212.211H218.158V204.842H221.491C223.246 204.842 224.298 205.719 224.298 207.298C224.298 208.526 223.597 209.228 222.719 209.579L224.474 212.211H222.719ZM222.719 207.298C222.719 206.597 222.193 206.246 221.491 206.246H219.912V208.351H221.491C222.193 208.351 222.719 208 222.719 207.298Z" fill="white"/>
<path d="M232.544 212.211L231.842 210.632H228.684L227.982 212.211H226.404L229.561 204.667H231.14L234.298 212.211H232.544ZM230.263 206.596L229.211 209.053H231.14L230.263 206.596Z" fill="white"/>
<path d="M239.211 212.21C238.158 212.21 236.93 211.859 236.053 210.982L236.93 209.754C237.632 210.281 238.333 210.631 239.211 210.631C239.912 210.631 240.263 210.281 240.263 209.93C240.263 209.579 240.088 209.228 238.684 209.052C237.281 208.702 236.228 208.175 236.228 206.772C236.228 205.368 237.281 204.491 238.86 204.491C239.912 204.491 240.79 204.842 241.667 205.368L240.965 206.772C240.263 206.245 239.737 206.07 239.035 206.07C238.333 206.07 238.158 206.421 238.158 206.772C238.158 207.298 238.509 207.474 239.737 207.824C241.316 208.175 242.018 208.702 242.018 210.105C242.018 211.509 240.79 212.21 239.211 212.21Z" fill="white"/>
<path d="M246.404 204.842H244.825V212.211H246.404V204.842Z" fill="white"/>
<path d="M249.562 212.211V204.842H251.14V210.632H254.825V212.211H249.562Z" fill="white"/>
</svg>
