<svg width="60" height="90" viewBox="0 0 60 90" fill="none" xmlns="http://www.w3.org/2000/svg">
<path d="M59.7354 80.7913V88.4483C59.7354 89.3056 59.0411 89.9999 58.1839 89.9999H1.55157C0.694327 89.9999 0 89.3056 0 88.4483V80.7913C0 72.793 6.54375 66.449 14.5421 66.3714C17.1869 66.3433 19.5835 65.0414 21.0529 62.9444C22.6591 60.6496 22.4978 58.5828 22.4978 57.029L22.5269 56.9573C15.5642 54.0752 10.667 47.2154 10.667 39.2112C10.667 39.2112 10.667 38.9921 10.667 38.6042C9.02664 38.6042 7.62344 37.8408 6.74545 36.6531C6.74545 36.6511 6.74351 36.6511 6.74351 36.6492C6.22024 35.988 5.81839 34.9345 5.81839 33.8447V14.9427C5.81839 12.051 8.1632 9.70617 11.0549 9.70617C13.3939 3.86218 19.0533 0.00885643 25.3779 0.00885643C34.607 0.00885643 40.5384 -0.0601884 41.0332 0.187287C41.1496 0.204936 42.2192 0.395391 42.3036 0.437478C43.8377 0.790072 45.5349 1.57226 45.6123 1.64964C50.6529 4.18646 54.111 9.40749 54.111 15.4353V33.5616C54.111 36.3466 51.8535 38.6042 49.0684 38.6042V39.2112C49.0684 47.2154 44.1712 54.0752 37.2086 56.9573L37.2377 57.029C37.2377 58.5383 37.0633 60.6312 38.6826 62.9444C40.1478 65.0357 42.5411 66.3433 45.1933 66.3714C53.1917 66.449 59.7354 72.793 59.7354 80.7913Z" fill="#E7B281"/>
<path d="M54.1255 15.3921V33.4676C54.1255 36.2449 51.866 38.4961 49.0785 38.4961V27.7873C49.0785 26.9692 48.4399 26.2923 47.6207 26.244C38.5188 25.7032 29.4052 22.9441 21.1978 17.7768C20.3049 17.214 19.1305 17.6782 18.8587 18.6955C18.453 20.2253 17.5407 22.1844 15.4966 23.4106C13.6166 24.5382 12.1614 24.3154 11.6144 24.5401C11.0417 24.7683 10.6438 25.3253 10.6438 25.9713V38.4961C9.00196 38.4961 7.59754 37.7348 6.71878 36.5504C6.71878 36.5485 6.71684 36.5485 6.71684 36.5466C6.3688 36.1085 6.02152 35.3883 5.87827 34.6512C5.75345 34.0188 5.79092 35.4459 5.79092 14.9009C5.79092 12.0172 8.13776 9.67899 11.032 9.67899C13.361 3.88135 19.0086 0.00883163 25.3674 0.00883163C34.6045 0.00883163 40.5411 -0.0600199 41.0363 0.186763C42.5424 0.414205 44.027 0.886882 45.2117 1.44775C45.2348 1.45916 45.6042 1.62994 45.6194 1.64502C50.6644 4.17474 54.1255 9.38115 54.1255 15.3921Z" fill="#42434D"/>
<path d="M59.7354 80.7911V88.4481C59.7354 89.3054 59.0411 89.9997 58.1839 89.9997H1.55157C0.694327 89.9997 0 89.3054 0 88.4481V80.7911C0 72.7928 6.54375 66.4488 14.5421 66.3712C17.1869 66.3431 19.5835 65.0412 21.0529 62.9442C27.7948 70.4364 26.2438 68.7126 28.7137 71.4585C29.3305 72.1431 30.405 72.1431 31.0217 71.4585C33.2364 68.9961 31.4284 71.0054 38.6826 62.9442C40.1478 65.0355 42.5411 66.3431 45.1933 66.3712C53.1917 66.4488 59.7354 72.7928 59.7354 80.7911Z" fill="#0E61A6"/>
</svg>
