<svg width="62" height="90" viewBox="0 0 62 90" fill="none" xmlns="http://www.w3.org/2000/svg">
<path d="M60.712 80.8332V88.4483C60.712 89.3056 60.0176 90 59.1603 90H2.52235C1.66502 90 0.970622 89.3056 0.970622 88.4483V80.8332C0.970622 74.9774 4.4523 69.9323 9.45855 67.6571C7.4159 66.0319 4.30256 63.8474 2.03743 59.1478C-1.11742 52.6116 -0.577417 44.9007 3.44174 38.8649C5.62579 35.5868 6.78959 31.7386 6.78959 27.8011V19.3965C6.78959 8.68384 15.4734 0 26.1861 0H35.4965C46.2092 0 54.893 8.68384 54.893 19.3965C54.893 28.297 54.6756 30.04 55.7484 33.5793C57.2623 38.5838 59.2619 39.2029 60.8032 44.2959C63.226 52.3016 60.546 61.0326 53.9426 66.2896L52.2241 67.6571C57.2303 69.9323 60.712 74.9774 60.712 80.8332Z" fill="#E7B281"/>
<path d="M60.712 80.8333V88.4484C60.712 89.3053 60.0172 90.0001 59.1602 90.0001H2.52231C1.66537 90.0001 0.970581 89.3053 0.970581 88.4484V80.8333C0.970581 72.8493 7.44302 66.3693 15.4346 66.3693C16.6236 66.3693 17.7525 66.1113 18.7669 65.6497L18.8154 65.7544L29.8914 74.3292C30.4506 74.7622 31.2319 74.7622 31.7913 74.3292L42.8671 65.7544L42.9156 65.6497C43.9301 66.1113 45.0589 66.3693 46.2479 66.3693C54.2085 66.3693 60.712 72.8184 60.712 80.8333Z" fill="#0E61A6"/>
<path d="M48.5751 28.3689C49.3989 28.4158 50.0438 29.0927 50.0438 29.9179V39.2061C50.0438 47.211 45.1462 54.0716 38.1829 56.9539C25.5912 62.1807 11.6387 52.8954 11.6387 39.2061V30.0529C11.6387 29.1434 12.4176 28.4247 13.3235 28.5068C22.6313 29.3507 31.7971 27.0002 39.4939 21.8151C40.3692 21.2255 41.5745 21.6623 41.8509 22.681C42.8083 26.21 45.4197 28.189 48.5751 28.3689Z" fill="#E7B281"/>
<path d="M53.9426 66.2896L52.2241 67.6571C50.4027 66.8308 48.3797 66.3692 46.248 66.3692C41.82 66.3692 38.212 62.7934 38.212 58.3506V57.0259L38.1829 56.9541C45.1463 54.0718 50.0439 47.2112 50.0439 39.2062V29.918C50.0439 29.0929 49.399 28.4159 48.5752 28.369C45.4392 28.1904 42.8146 26.2329 41.851 22.6814C41.5746 21.6626 40.3693 21.2258 39.4939 21.8155C31.8022 26.9971 22.637 29.3514 13.3235 28.5071C12.4177 28.4251 11.6387 29.1437 11.6387 30.0532V39.2064C11.6387 47.2114 16.5364 54.072 23.4997 56.9543L23.4706 57.026V58.3508C23.4706 62.7928 19.8637 66.3694 15.4346 66.3694C13.303 66.3694 11.2799 66.831 9.45857 67.6573L7.74004 66.2898C-0.602614 59.6423 -2.46022 47.7283 3.44176 38.8651C5.62581 35.587 6.7896 31.7388 6.7896 27.8013V19.3965C6.7896 8.68422 15.4738 0 26.1862 0H35.4965C46.2088 0 54.8931 8.68422 54.8931 19.3965V27.8011C54.8931 31.7339 56.0568 35.5868 58.2409 38.8649C64.1644 47.7605 62.2537 59.6731 53.9426 66.2896Z" fill="#42434D"/>
</svg>
