<svg width="300" height="286" viewBox="0 0 300 286" fill="none" xmlns="http://www.w3.org/2000/svg">
<path d="M4.10156 92.2228H295.898V268.215C295.898 271.634 294.664 274.914 292.466 277.332C290.268 279.751 287.288 281.109 284.18 281.109H15.8203C12.7123 281.109 9.7316 279.751 7.5339 277.332C5.33621 274.914 4.10156 271.634 4.10156 268.215V92.2228Z" fill="white"/>
<path d="M18.1641 42.8956H281.836C285.566 42.8956 289.142 44.5259 291.78 47.4277C294.417 50.3296 295.898 54.2654 295.898 58.3693V92.223H4.10156V58.3693C4.10156 54.2654 5.58314 50.3296 8.22037 47.4277C10.8576 44.5259 14.4345 42.8956 18.1641 42.8956V42.8956Z" fill="#0E61A6"/>
<path d="M44.8242 4.51318H54.2789C56.7653 4.51318 59.1499 5.60002 60.908 7.5346C62.6662 9.46918 63.6539 12.093 63.6539 14.8289V42.8955H35.4492V14.8289C35.4492 12.093 36.4369 9.46918 38.1951 7.5346C39.9532 5.60002 42.3378 4.51318 44.8242 4.51318V4.51318Z" fill="white"/>
<path d="M111.797 4.51318H121.252C123.738 4.51318 126.123 5.60002 127.881 7.5346C129.639 9.46918 130.627 12.093 130.627 14.8289V42.8955H102.422V14.8289C102.422 12.093 103.41 9.46918 105.168 7.5346C106.926 5.60002 109.31 4.51318 111.797 4.51318V4.51318Z" fill="white"/>
<path d="M178.755 4.51318H188.203C190.689 4.51318 193.074 5.60002 194.832 7.5346C196.59 9.46918 197.578 12.093 197.578 14.8289V42.8955H169.38V14.8289C169.38 12.093 170.368 9.46918 172.126 7.5346C173.884 5.60002 176.269 4.51318 178.755 4.51318V4.51318Z" fill="white"/>
<path d="M245.721 4.51318H255.176C257.662 4.51318 260.047 5.60002 261.805 7.5346C263.563 9.46918 264.551 12.093 264.551 14.8289V42.8955H236.346V14.8289C236.346 12.093 237.334 9.46918 239.092 7.5346C240.85 5.60002 243.235 4.51318 245.721 4.51318V4.51318Z" fill="white"/>
<path d="M57.3891 118.015H32.2266C29.6377 118.015 27.5391 120.324 27.5391 123.173V143.618C27.5391 146.467 29.6377 148.776 32.2266 148.776H57.3891C59.9779 148.776 62.0766 146.467 62.0766 143.618V123.173C62.0766 120.324 59.9779 118.015 57.3891 118.015Z" fill="white"/>
<path d="M127.517 118.015H102.354C99.7652 118.015 97.6665 120.324 97.6665 123.173V143.618C97.6665 146.467 99.7652 148.776 102.354 148.776H127.517C130.105 148.776 132.204 146.467 132.204 143.618V123.173C132.204 120.324 130.105 118.015 127.517 118.015Z" fill="white"/>
<path d="M197.644 118.015H172.481C169.892 118.015 167.794 120.324 167.794 123.173V143.618C167.794 146.467 169.892 148.776 172.481 148.776H197.644C200.233 148.776 202.331 146.467 202.331 143.618V123.173C202.331 120.324 200.233 118.015 197.644 118.015Z" fill="white"/>
<path d="M267.773 118.015H242.611C240.022 118.015 237.923 120.324 237.923 123.173V143.618C237.923 146.467 240.022 148.776 242.611 148.776H267.773C270.362 148.776 272.461 146.467 272.461 143.618V123.173C272.461 120.324 270.362 118.015 267.773 118.015Z" fill="white"/>
<path d="M57.3891 171.285H32.2266C29.6377 171.285 27.5391 173.594 27.5391 176.443V196.889C27.5391 199.737 29.6377 202.047 32.2266 202.047H57.3891C59.9779 202.047 62.0766 199.737 62.0766 196.889V176.443C62.0766 173.594 59.9779 171.285 57.3891 171.285Z" fill="white"/>
<path d="M127.517 171.285H102.354C99.7652 171.285 97.6665 173.594 97.6665 176.443V196.889C97.6665 199.737 99.7652 202.047 102.354 202.047H127.517C130.105 202.047 132.204 199.737 132.204 196.889V176.443C132.204 173.594 130.105 171.285 127.517 171.285Z" fill="white"/>
<path d="M197.644 171.285H172.481C169.892 171.285 167.794 173.594 167.794 176.443V196.889C167.794 199.737 169.892 202.047 172.481 202.047H197.644C200.233 202.047 202.331 199.737 202.331 196.889V176.443C202.331 173.594 200.233 171.285 197.644 171.285Z" fill="white"/>
<path d="M267.773 171.285H242.611C240.022 171.285 237.923 173.594 237.923 176.443V196.889C237.923 199.737 240.022 202.047 242.611 202.047H267.773C270.362 202.047 272.461 199.737 272.461 196.889V176.443C272.461 173.594 270.362 171.285 267.773 171.285Z" fill="white"/>
<path d="M127.517 224.558H102.354C99.7652 224.558 97.6665 226.867 97.6665 229.716V250.162C97.6665 253.011 99.7652 255.32 102.354 255.32H127.517C130.105 255.32 132.204 253.011 132.204 250.162V229.716C132.204 226.867 130.105 224.558 127.517 224.558Z" fill="white"/>
<path d="M57.8271 224.582H32.6646C30.0757 224.582 27.9771 226.892 27.9771 229.74V250.186C27.9771 253.035 30.0757 255.344 32.6646 255.344H57.8271C60.4159 255.344 62.5146 253.035 62.5146 250.186V229.74C62.5146 226.892 60.4159 224.582 57.8271 224.582Z" fill="white"/>
<path d="M197.965 224.582H172.803C170.214 224.582 168.115 226.892 168.115 229.74V250.186C168.115 253.035 170.214 255.344 172.803 255.344H197.965C200.554 255.344 202.653 253.035 202.653 250.186V229.74C202.653 226.892 200.554 224.582 197.965 224.582Z" fill="white"/>
<path d="M267.516 224.582H242.353C239.764 224.582 237.666 226.892 237.666 229.74V250.186C237.666 253.035 239.764 255.344 242.353 255.344H267.516C270.104 255.344 272.203 253.035 272.203 250.186V229.74C272.203 226.892 270.104 224.582 267.516 224.582Z" fill="white"/>
<path d="M214.891 87.7123H201.9C200.812 87.7123 199.769 88.1878 199 89.0342C198.23 89.8805 197.798 91.0285 197.798 92.2254C197.798 93.4224 198.23 94.5703 199 95.4167C199.769 96.2631 200.812 96.7386 201.9 96.7386H214.891C215.979 96.7386 217.022 96.2631 217.792 95.4167C218.561 94.5703 218.993 93.4224 218.993 92.2254C218.993 91.0285 218.561 89.8805 217.792 89.0342C217.022 88.1878 215.979 87.7123 214.891 87.7123V87.7123Z" fill="black"/>
<path d="M281.836 38.3823H268.652V14.8289C268.649 10.8973 267.228 7.12787 264.701 4.3478C262.174 1.56774 258.749 0.00409614 255.176 0H245.721C242.148 0.00409614 238.722 1.56774 236.196 4.3478C233.669 7.12787 232.248 10.8973 232.245 14.8289V38.3823H201.687V14.8289C201.683 10.8973 200.262 7.12787 197.735 4.3478C195.209 1.56774 191.783 0.00409614 188.21 0H178.755C175.183 0.00477733 171.757 1.56864 169.231 4.34855C166.704 7.12847 165.283 10.8975 165.279 14.8289V38.3823H134.721V14.8289C134.717 10.8975 133.296 7.12847 130.769 4.34855C128.243 1.56864 124.817 0.00477733 121.245 0H111.797C108.224 0.00477733 104.799 1.56864 102.272 4.34855C99.7459 7.12847 98.3247 10.8975 98.3203 14.8289V38.3823H67.7555V14.8289C67.7511 10.8975 66.3299 7.12847 63.8035 4.34855C61.2771 1.56864 57.8518 0.00477733 54.2789 0H44.8242C41.2513 0.00477733 37.8261 1.56864 35.2996 4.34855C32.7732 7.12847 31.352 10.8975 31.3477 14.8289V38.3823H18.1641C13.3484 38.3884 8.73151 40.4962 5.3263 44.2431C1.92108 47.99 0.0055827 53.0701 0 58.369L0 268.214C0.00496219 272.83 1.67333 277.254 4.63914 280.518C7.60495 283.781 11.626 285.617 15.8203 285.622H284.18C288.374 285.617 292.395 283.781 295.361 280.518C298.327 277.254 299.995 272.83 300 268.214V58.369C299.994 53.0701 298.079 47.99 294.674 44.2431C291.268 40.4962 286.652 38.3884 281.836 38.3823V38.3823ZM240.448 14.8289C240.45 13.2906 241.006 11.8158 241.994 10.7281C242.983 9.64032 244.323 9.02832 245.721 9.02627H255.176C256.574 9.02832 257.914 9.64032 258.903 10.7281C259.891 11.8158 260.447 13.2906 260.449 14.8289V38.3823H240.448V14.8289ZM173.482 14.8289C173.484 13.2906 174.04 11.8158 175.029 10.7281C176.017 9.64032 177.357 9.02832 178.755 9.02627H188.203C189.601 9.02832 190.941 9.64032 191.93 10.7281C192.919 11.8158 193.475 13.2906 193.477 14.8289V38.3823H173.482V14.8289ZM106.516 14.8289C106.518 13.2906 107.074 11.8158 108.063 10.7281C109.052 9.64032 110.392 9.02832 111.79 9.02627H121.245C122.643 9.02832 123.983 9.64032 124.971 10.7281C125.96 11.8158 126.516 13.2906 126.518 14.8289V38.3823H106.516V14.8289ZM39.5508 14.8289C39.5526 13.2906 40.1088 11.8158 41.0974 10.7281C42.086 9.64032 43.4262 9.02832 44.8242 9.02627H54.2789C55.6769 9.02832 57.0172 9.64032 58.0057 10.7281C58.9943 11.8158 59.5505 13.2906 59.5523 14.8289V38.3823H39.5508V14.8289ZM291.797 268.214C291.794 270.437 290.991 272.567 289.563 274.138C288.135 275.709 286.199 276.593 284.18 276.596H15.8203C13.8009 276.593 11.8648 275.709 10.4369 274.138C9.00893 272.567 8.20561 270.437 8.20312 268.214V96.7384H169.38C170.468 96.7384 171.512 96.263 172.281 95.4166C173.05 94.5702 173.482 93.4223 173.482 92.2253C173.482 91.0284 173.05 89.8804 172.281 89.034C171.512 88.1877 170.468 87.7122 169.38 87.7122H8.20312V58.369C8.20623 55.4632 9.25668 52.6773 11.124 50.6226C12.9914 48.5678 15.5232 47.412 18.1641 47.4086H281.836C284.477 47.4113 287.009 48.5669 288.877 50.6218C290.744 52.6767 291.794 55.463 291.797 58.369V87.7122H247.411C246.323 87.7122 245.28 88.1877 244.511 89.034C243.742 89.8804 243.309 91.0284 243.309 92.2253C243.309 93.4223 243.742 94.5702 244.511 95.4166C245.28 96.263 246.323 96.7384 247.411 96.7384H291.797V268.214Z" fill="black"/>
<path d="M57.3891 113.502H32.2266C29.8963 113.504 27.6622 114.524 26.0145 116.337C24.3668 118.15 23.44 120.609 23.4375 123.173V143.619C23.4406 146.182 24.3676 148.64 26.0152 150.453C27.6628 152.266 29.8965 153.286 32.2266 153.29H57.3891C59.7191 153.286 61.9528 152.266 63.6004 150.453C65.248 148.64 66.175 146.182 66.1781 143.619V123.173C66.1756 120.609 65.2489 118.15 63.6011 116.337C61.9534 114.524 59.7193 113.504 57.3891 113.502V113.502ZM57.975 143.619C57.9744 143.789 57.9125 143.953 57.8027 144.074C57.6929 144.194 57.5443 144.263 57.3891 144.263H32.2266C32.0714 144.263 31.9227 144.194 31.8129 144.074C31.7032 143.953 31.6412 143.789 31.6406 143.619V123.173C31.6406 123.002 31.7024 122.838 31.8122 122.717C31.9221 122.596 32.0712 122.528 32.2266 122.528H57.3891C57.5445 122.528 57.6935 122.596 57.8034 122.717C57.9133 122.838 57.975 123.002 57.975 123.173V143.619Z" fill="black"/>
<path d="M127.517 113.502H102.354C100.024 113.504 97.7897 114.524 96.1419 116.337C94.4942 118.15 93.5674 120.609 93.5649 123.173V143.619C93.568 146.182 94.495 148.64 96.1426 150.453C97.7902 152.266 100.024 153.286 102.354 153.29H127.517C129.847 153.286 132.08 152.266 133.728 150.453C135.375 148.64 136.302 146.182 136.306 143.619V123.173C136.303 120.609 135.376 118.15 133.729 116.337C132.081 114.524 129.847 113.504 127.517 113.502V113.502ZM128.102 143.619C128.102 143.789 128.04 143.953 127.93 144.074C127.82 144.194 127.672 144.263 127.517 144.263H102.354C102.199 144.263 102.05 144.194 101.94 144.074C101.831 143.953 101.769 143.789 101.768 143.619V123.173C101.769 123.002 101.831 122.838 101.94 122.718C102.05 122.597 102.199 122.529 102.354 122.528H127.517C127.672 122.528 127.821 122.596 127.931 122.717C128.041 122.838 128.102 123.002 128.102 123.173V143.619Z" fill="black"/>
<path d="M197.646 113.502H172.484C170.153 113.504 167.919 114.524 166.272 116.337C164.624 118.15 163.697 120.609 163.695 123.173V143.619C163.698 146.182 164.625 148.64 166.272 150.453C167.92 152.266 170.154 153.286 172.484 153.29H197.646C199.976 153.286 202.21 152.266 203.858 150.453C205.505 148.64 206.432 146.182 206.435 143.619V123.173C206.432 120.609 205.505 118.151 203.858 116.338C202.21 114.525 199.976 113.505 197.646 113.502V113.502ZM198.232 143.619C198.231 143.789 198.17 143.953 198.06 144.074C197.95 144.194 197.801 144.263 197.646 144.263H172.484C172.328 144.263 172.18 144.194 172.07 144.074C171.96 143.953 171.898 143.789 171.898 143.619V123.173C171.898 123.002 171.959 122.838 172.069 122.717C172.179 122.596 172.328 122.528 172.484 122.528H197.646C197.802 122.528 197.951 122.596 198.06 122.717C198.17 122.838 198.232 123.002 198.232 123.173V143.619Z" fill="black"/>
<path d="M233.822 123.173V143.619C233.825 146.182 234.752 148.64 236.4 150.453C238.047 152.266 240.281 153.286 242.611 153.29H267.773C270.104 153.286 272.337 152.266 273.985 150.453C275.632 148.64 276.559 146.182 276.563 143.619V123.173C276.559 120.609 275.632 118.151 273.985 116.338C272.337 114.525 270.104 113.505 267.773 113.502H242.611C240.281 113.504 238.047 114.524 236.399 116.337C234.751 118.15 233.824 120.609 233.822 123.173V123.173ZM268.359 123.173V143.619C268.359 143.789 268.297 143.953 268.187 144.074C268.077 144.194 267.929 144.263 267.773 144.263H242.611C242.456 144.263 242.307 144.194 242.197 144.074C242.088 143.953 242.026 143.789 242.025 143.619V123.173C242.025 123.002 242.087 122.838 242.197 122.717C242.307 122.596 242.456 122.528 242.611 122.528H267.773C267.929 122.528 268.078 122.596 268.188 122.717C268.298 122.838 268.359 123.002 268.359 123.173V123.173Z" fill="black"/>
<path d="M57.3891 166.772H32.2266C29.8965 166.776 27.6628 167.796 26.0152 169.609C24.3676 171.421 23.4406 173.879 23.4375 176.443V196.889C23.4406 199.453 24.3676 201.911 26.0152 203.724C27.6628 205.537 29.8965 206.557 32.2266 206.56H57.3891C59.7191 206.557 61.9528 205.537 63.6004 203.724C65.248 201.911 66.175 199.453 66.1781 196.889V176.443C66.175 173.879 65.248 171.421 63.6004 169.609C61.9528 167.796 59.7191 166.776 57.3891 166.772V166.772ZM57.975 196.889C57.9744 197.06 57.9125 197.223 57.8027 197.344C57.6929 197.465 57.5443 197.533 57.3891 197.534H32.2266C32.0714 197.533 31.9227 197.465 31.8129 197.344C31.7032 197.223 31.6412 197.06 31.6406 196.889V176.443C31.6406 176.272 31.7024 176.108 31.8122 175.987C31.9221 175.866 32.0712 175.798 32.2266 175.798H57.3891C57.5445 175.798 57.6935 175.866 57.8034 175.987C57.9133 176.108 57.975 176.272 57.975 176.443V196.889Z" fill="black"/>
<path d="M127.517 166.772H102.354C100.024 166.776 97.7902 167.796 96.1426 169.609C94.495 171.421 93.568 173.879 93.5649 176.443V196.889C93.568 199.453 94.495 201.911 96.1426 203.724C97.7902 205.537 100.024 206.557 102.354 206.56H127.517C129.847 206.557 132.08 205.537 133.728 203.724C135.375 201.911 136.302 199.453 136.306 196.889V176.443C136.302 173.879 135.375 171.421 133.728 169.609C132.08 167.796 129.847 166.776 127.517 166.772ZM128.102 196.889C128.102 197.06 128.04 197.223 127.93 197.344C127.82 197.465 127.672 197.533 127.517 197.534H102.354C102.199 197.533 102.05 197.465 101.94 197.344C101.831 197.223 101.769 197.06 101.768 196.889V176.443C101.769 176.272 101.831 176.109 101.94 175.988C102.05 175.867 102.199 175.799 102.354 175.798H127.517C127.672 175.798 127.821 175.866 127.931 175.987C128.041 176.108 128.102 176.272 128.102 176.443V196.889Z" fill="black"/>
<path d="M197.646 166.772H172.484C170.154 166.776 167.92 167.796 166.272 169.609C164.625 171.421 163.698 173.879 163.695 176.443V196.889C163.698 199.453 164.625 201.911 166.272 203.724C167.92 205.537 170.154 206.557 172.484 206.56H197.646C199.976 206.557 202.21 205.537 203.858 203.724C205.505 201.911 206.432 199.453 206.435 196.889V176.443C206.432 173.879 205.505 171.421 203.858 169.609C202.21 167.796 199.976 166.776 197.646 166.772V166.772ZM198.232 196.889C198.231 197.06 198.17 197.223 198.06 197.344C197.95 197.465 197.801 197.533 197.646 197.534H172.484C172.328 197.533 172.18 197.465 172.07 197.344C171.96 197.223 171.898 197.06 171.898 196.889V176.443C171.898 176.272 171.959 176.108 172.069 175.987C172.179 175.866 172.328 175.798 172.484 175.798H197.646C197.802 175.798 197.951 175.866 198.06 175.987C198.17 176.108 198.232 176.272 198.232 176.443V196.889Z" fill="black"/>
<path d="M267.773 166.772H242.611C240.281 166.776 238.047 167.796 236.4 169.609C234.752 171.421 233.825 173.879 233.822 176.443V196.889C233.825 199.453 234.752 201.911 236.4 203.724C238.047 205.537 240.281 206.557 242.611 206.56H267.773C270.104 206.557 272.337 205.537 273.985 203.724C275.632 201.911 276.559 199.453 276.563 196.889V176.443C276.559 173.879 275.632 171.421 273.985 169.609C272.337 167.796 270.104 166.776 267.773 166.772V166.772ZM268.359 196.889C268.359 197.06 268.297 197.223 268.187 197.344C268.077 197.465 267.929 197.533 267.773 197.534H242.611C242.456 197.533 242.307 197.465 242.197 197.344C242.088 197.223 242.026 197.06 242.025 196.889V176.443C242.025 176.272 242.087 176.108 242.197 175.987C242.307 175.866 242.456 175.798 242.611 175.798H267.773C267.929 175.798 268.078 175.866 268.188 175.987C268.298 176.108 268.359 176.272 268.359 176.443V196.889Z" fill="black"/>
<path d="M127.517 220.045H102.354C100.024 220.049 97.7902 221.069 96.1426 222.882C94.495 224.694 93.568 227.152 93.5649 229.716V250.162C93.568 252.726 94.495 255.184 96.1426 256.997C97.7902 258.81 100.024 259.83 102.354 259.833H127.517C129.847 259.83 132.08 258.81 133.728 256.997C135.375 255.184 136.302 252.726 136.306 250.162V229.721C136.304 227.157 135.377 224.697 133.73 222.883C132.082 221.069 129.847 220.049 127.517 220.045V220.045ZM128.102 250.162C128.102 250.333 128.041 250.497 127.931 250.618C127.821 250.739 127.672 250.807 127.517 250.807H102.354C102.199 250.806 102.05 250.738 101.94 250.617C101.831 250.496 101.769 250.333 101.768 250.162V229.721C101.769 229.551 101.831 229.387 101.94 229.266C102.05 229.145 102.199 229.077 102.354 229.077H127.517C127.672 229.077 127.821 229.145 127.931 229.265C128.041 229.386 128.102 229.55 128.102 229.721V250.162Z" fill="black"/>
<path d="M57.8271 220.069H32.6646C30.3345 220.073 28.1008 221.093 26.4532 222.906C24.8056 224.719 23.8786 227.176 23.8755 229.74V250.186C23.8786 252.75 24.8056 255.208 26.4532 257.021C28.1008 258.834 30.3345 259.854 32.6646 259.857H57.8271C60.1571 259.854 62.3908 258.834 64.0384 257.021C65.686 255.208 66.613 252.75 66.6161 250.186V229.745C66.6143 227.181 65.6878 224.722 64.0401 222.907C62.3924 221.093 60.1579 220.073 57.8271 220.069V220.069ZM58.413 250.186C58.413 250.357 58.3513 250.521 58.2414 250.642C58.1315 250.763 57.9825 250.831 57.8271 250.831H32.6646C32.5093 250.83 32.3607 250.762 32.2509 250.641C32.1412 250.521 32.0792 250.357 32.0786 250.186V229.745C32.0792 229.575 32.1412 229.411 32.2509 229.29C32.3607 229.17 32.5093 229.101 32.6646 229.101H57.8271C57.9825 229.101 58.1315 229.169 58.2414 229.29C58.3513 229.411 58.413 229.575 58.413 229.745V250.186Z" fill="black"/>
<path d="M197.965 220.069H172.803C170.473 220.073 168.239 221.093 166.591 222.906C164.944 224.719 164.017 227.176 164.014 229.74V250.186C164.017 252.75 164.944 255.208 166.591 257.021C168.239 258.834 170.473 259.854 172.803 259.857H197.965C200.295 259.854 202.529 258.834 204.177 257.021C205.824 255.208 206.751 252.75 206.754 250.186V229.745C206.753 227.181 205.826 224.722 204.178 222.907C202.531 221.093 200.296 220.073 197.965 220.069V220.069ZM198.551 250.186C198.551 250.357 198.49 250.521 198.38 250.642C198.27 250.763 198.121 250.831 197.965 250.831H172.803C172.648 250.83 172.499 250.762 172.389 250.641C172.279 250.521 172.218 250.357 172.217 250.186V229.745C172.218 229.575 172.279 229.411 172.389 229.29C172.499 229.17 172.648 229.101 172.803 229.101H197.965C198.121 229.101 198.27 229.169 198.38 229.29C198.49 229.411 198.551 229.575 198.551 229.745V250.186Z" fill="black"/>
<path d="M267.516 220.069H242.353C240.023 220.073 237.789 221.093 236.142 222.906C234.494 224.719 233.567 227.176 233.564 229.74V250.186C233.567 252.75 234.494 255.208 236.142 257.021C237.789 258.834 240.023 259.854 242.353 259.857H267.516C269.846 259.854 272.079 258.834 273.727 257.021C275.375 255.208 276.302 252.75 276.305 250.186V229.745C276.303 227.181 275.376 224.722 273.729 222.907C272.081 221.093 269.847 220.073 267.516 220.069V220.069ZM268.102 250.186C268.102 250.357 268.04 250.521 267.93 250.642C267.82 250.763 267.671 250.831 267.516 250.831H242.353C242.198 250.83 242.049 250.762 241.94 250.641C241.83 250.521 241.768 250.357 241.767 250.186V229.745C241.768 229.575 241.83 229.411 241.94 229.29C242.049 229.17 242.198 229.101 242.353 229.101H267.516C267.671 229.101 267.82 229.169 267.93 229.29C268.04 229.411 268.102 229.575 268.102 229.745V250.186Z" fill="black"/>
</svg>
