<svg width="141" height="60" viewBox="0 0 141 60" fill="none" xmlns="http://www.w3.org/2000/svg">
<path d="M0.525391 49.7025H6.07974V51.2583H2.10162V52.8959H5.62938V54.5336H2.10162V56.2531H6.1548V57.8089H0.525391V49.7025Z" fill="white"/>
<path d="M7.28101 51.5859H8.9323V52.4866C9.00736 52.3228 9.15747 52.2409 9.23253 52.0772C9.30759 51.9953 9.45771 51.8315 9.60783 51.7496C9.75794 51.6678 9.90806 51.5859 10.0582 51.504C10.2083 51.4221 10.4335 51.4221 10.5836 51.4221C10.9589 51.4221 11.2591 51.504 11.5594 51.6678C11.8596 51.8315 12.0097 52.0772 12.1598 52.4047C12.385 52.0772 12.6852 51.8315 12.9855 51.6678C13.2857 51.504 13.661 51.4221 14.0363 51.4221C14.6368 51.4221 15.0871 51.5859 15.4624 51.9953C15.8377 52.4047 15.9878 52.9779 15.9878 53.7148V57.7271H14.3365V54.288C14.3365 53.8786 14.2615 53.5511 14.1114 53.3054C13.9612 53.0598 13.7361 52.9779 13.4358 52.9779C13.1356 52.9779 12.9104 53.0598 12.6852 53.3054C12.5351 53.5511 12.4601 53.7967 12.4601 54.288V57.7271H10.8088V54.288C10.8088 53.8786 10.7337 53.5511 10.5836 53.3054C10.4335 53.0598 10.2083 52.9779 9.90806 52.9779C9.60783 52.9779 9.38265 53.0598 9.15748 53.3054C9.00736 53.5511 8.9323 53.7967 8.9323 54.288V57.7271H7.28101V51.5859Z" fill="white"/>
<path d="M17.1882 51.5859H18.8395V52.4866C19.0647 52.1591 19.2899 51.9134 19.5901 51.7497C19.8904 51.5859 20.1906 51.504 20.6409 51.504C20.9412 51.504 21.3165 51.5859 21.6167 51.7497C21.9169 51.9134 22.2172 52.0772 22.4423 52.4047C22.6675 52.6504 22.8927 52.9779 23.0428 53.3873C23.1929 53.7967 23.268 54.2061 23.268 54.7793C23.268 55.2706 23.1929 55.7619 23.0428 56.1713C22.8927 56.5807 22.7426 56.9083 22.4423 57.1539C22.2172 57.3996 21.9169 57.6452 21.6167 57.809C21.3165 57.9727 21.0162 58.0546 20.6409 58.0546C20.1906 58.0546 19.8153 57.9727 19.5901 57.809C19.2899 57.6452 19.0647 57.3996 18.9146 57.1539V59.856H17.2633V51.5859H17.1882ZM20.1906 56.417C20.4158 56.417 20.5659 56.417 20.716 56.3351C20.8661 56.2532 21.0162 56.1713 21.1664 56.0076C21.3165 55.8438 21.3915 55.68 21.4666 55.4344C21.5416 55.1887 21.5416 55.025 21.5416 54.6974C21.5416 54.4518 21.4666 54.2061 21.4666 53.9605C21.3915 53.7149 21.3165 53.5511 21.1664 53.3873C21.0162 53.2236 20.8661 53.1417 20.716 53.0598C20.5659 52.9779 20.3407 52.9779 20.1906 52.9779C19.9654 52.9779 19.8153 52.9779 19.6652 53.0598C19.5151 53.1417 19.3649 53.2236 19.2148 53.3873C19.0647 53.5511 18.9896 53.7149 18.9146 53.9605C18.8395 54.2061 18.7645 54.3699 18.7645 54.6974C18.7645 54.9431 18.7645 55.1887 18.9146 55.4344C18.9896 55.68 19.0647 55.8438 19.2148 56.0076C19.3649 56.1713 19.5151 56.2532 19.6652 56.3351C19.8153 56.417 20.0405 56.417 20.1906 56.417Z" fill="white"/>
<path d="M24.2437 51.5859H25.8949V52.8141C26.0451 52.4047 26.2702 52.0771 26.5705 51.8315C26.8707 51.5859 27.246 51.4221 27.6964 51.504V53.3873H27.6213C27.0959 53.3873 26.6455 53.551 26.3453 53.9604C26.0451 54.288 25.8949 54.8611 25.8949 55.5981V57.8908H24.2437V51.5859Z" fill="white"/>
<path d="M31.2248 57.9727C30.7744 57.9727 30.3991 57.8909 30.0238 57.7271C29.6485 57.5633 29.3483 57.3177 29.0481 57.072C28.7478 56.8264 28.5977 56.417 28.4476 56.0894C28.2975 55.68 28.2224 55.2706 28.2224 54.7793C28.2224 54.3699 28.2975 53.9605 28.4476 53.5511C28.5977 53.1417 28.7478 52.8142 29.0481 52.4866C29.2732 52.1591 29.5735 51.9953 29.9488 51.7497C30.3241 51.5859 30.6993 51.504 31.0746 51.504C31.525 51.504 31.9753 51.5859 32.2756 51.7497C32.6509 51.9134 32.876 52.1591 33.1763 52.4866C33.4015 52.8142 33.5516 53.1417 33.7017 53.5511C33.7768 53.9605 33.8518 54.3699 33.8518 54.8612C33.8518 54.9431 33.8518 55.025 33.8518 55.1068C33.8518 55.1887 33.8518 55.2706 33.8518 55.3525H29.8737C29.9488 55.7619 30.0989 56.0895 30.3241 56.2532C30.5492 56.4989 30.8495 56.5807 31.2248 56.5807C31.525 56.5807 31.7502 56.4988 31.9754 56.417C32.2005 56.3351 32.4257 56.1713 32.6509 55.9257L33.5516 56.8264C33.2513 57.1539 32.9511 57.4814 32.5758 57.6452C32.2005 57.809 31.7502 57.9727 31.2248 57.9727ZM32.2756 54.2062C32.2005 53.7967 32.1255 53.4692 31.9003 53.2236C31.6751 52.9779 31.4499 52.896 31.0746 52.896C30.6993 52.896 30.4742 52.9779 30.249 53.2236C30.0238 53.4692 29.8737 53.7967 29.8737 54.2062H32.2756Z" fill="white"/>
<path d="M36.8537 57.8908C36.4784 57.8908 36.028 57.8089 35.5777 57.6452C35.1273 57.4814 34.752 57.2358 34.3767 56.9082L35.0522 55.7619C35.3525 56.0075 35.6527 56.1713 35.9529 56.335C36.2532 56.4988 36.5534 56.4988 36.8537 56.4988C37.0788 56.4988 37.2289 56.4169 37.3791 56.335C37.4541 56.2532 37.5292 56.1713 37.5292 56.0075C37.5292 55.9256 37.5292 55.8438 37.4541 55.7619C37.3791 55.68 37.304 55.5981 37.2289 55.5981C37.1539 55.5162 37.0038 55.5162 36.8537 55.4344C36.7035 55.3525 36.5534 55.3525 36.4033 55.2706C36.1781 55.1887 36.028 55.1068 35.8028 55.0249C35.5776 54.9431 35.4275 54.7793 35.2774 54.6974C35.1273 54.5336 34.9772 54.3699 34.9021 54.2061C34.8271 53.9605 34.752 53.7148 34.752 53.4692C34.752 53.1416 34.8271 52.896 34.9021 52.6503C34.9772 52.4047 35.1273 52.1591 35.3525 51.9953C35.5026 51.8315 35.7278 51.6678 36.028 51.5859C36.2532 51.504 36.5534 51.4221 36.8537 51.4221C37.2289 51.4221 37.6042 51.504 37.9795 51.5859C38.3548 51.7496 38.7301 51.9134 39.0304 52.0772L38.4299 53.3054C38.1296 53.1417 37.9045 52.9779 37.6042 52.896C37.304 52.8141 37.0788 52.7322 36.9287 52.7322C36.7035 52.7322 36.5534 52.7322 36.4784 52.8141C36.4033 52.896 36.3282 52.9779 36.3282 53.1416C36.3282 53.2235 36.3282 53.3054 36.4033 53.3873C36.4784 53.4692 36.5534 53.5511 36.6285 53.5511C36.7035 53.6329 36.8536 53.6329 37.0038 53.7148C37.1539 53.7967 37.304 53.7967 37.4541 53.8786C37.6793 53.9605 37.8294 54.0424 38.0546 54.1242C38.2798 54.2061 38.4299 54.3699 38.58 54.4518C38.7301 54.6155 38.8802 54.7793 38.9553 54.9431C39.0304 55.1068 39.1054 55.3525 39.1054 55.68C39.1054 56.0075 39.0304 56.3351 38.9553 56.5807C38.8802 56.8264 38.6551 57.072 38.5049 57.2358C38.2798 57.3995 38.0546 57.4814 37.8294 57.5633C37.4541 57.8908 37.1539 57.8908 36.8537 57.8908Z" fill="white"/>
<path d="M41.6573 57.8907C41.3571 57.8907 41.1319 57.8907 40.9067 57.8088C40.6816 57.7269 40.4564 57.6451 40.3063 57.4813C40.1562 57.3175 40.006 57.1537 39.8559 56.9081C39.7809 56.6625 39.7058 56.4168 39.7058 56.0893C39.7058 55.7617 39.7809 55.4342 39.8559 55.1886C40.006 54.9429 40.1562 54.6973 40.3063 54.6154C40.5314 54.4516 40.7566 54.3697 41.0569 54.2879C41.3571 54.206 41.6573 54.206 41.9576 54.206C42.2578 54.206 42.483 54.206 42.7082 54.2879C42.9333 54.3697 43.1585 54.3697 43.3086 54.4516V54.3697C43.3086 53.9603 43.2336 53.7147 43.0084 53.5509C42.7832 53.3872 42.483 53.2234 42.1077 53.2234C41.8075 53.2234 41.5072 53.2234 41.282 53.3053C41.0569 53.3872 40.7566 53.469 40.5315 53.5509L40.1562 52.2408C40.4564 52.077 40.8317 51.9952 41.1319 51.9133C41.5072 51.8314 41.8825 51.7495 42.3329 51.7495C42.7832 51.7495 43.1585 51.8314 43.4587 51.9133C43.759 51.9952 44.0592 52.2408 44.2093 52.4046C44.4345 52.6502 44.5846 52.8959 44.6597 53.2234C44.7347 53.5509 44.8098 53.9603 44.8098 54.3697V57.9726H43.2336V57.3175C43.0084 57.5632 42.7832 57.7269 42.558 57.8907C42.4079 57.8907 42.0326 57.8907 41.6573 57.8907ZM42.1827 56.7443C42.558 56.7443 42.8583 56.6624 43.0835 56.4168C43.3086 56.253 43.4587 55.9255 43.4587 55.598V55.2705C43.3086 55.1886 43.1585 55.1067 43.0084 55.1067C42.8583 55.0248 42.6331 55.0248 42.483 55.0248C42.1077 55.0248 41.8825 55.1067 41.6573 55.2705C41.4322 55.4342 41.3571 55.598 41.3571 55.9255C41.3571 56.1711 41.4322 56.3349 41.5823 56.4987C41.6573 56.6625 41.8825 56.7443 42.1827 56.7443Z" fill="white"/>
<path d="M52.016 57.8908C51.4155 57.8908 50.8901 57.8089 50.3647 57.5632C49.8393 57.3176 49.3139 56.99 48.8635 56.5806L49.8393 55.3524C50.2146 55.6799 50.5148 55.9256 50.8901 56.0893C51.2654 56.2531 51.6407 56.335 52.0911 56.335C52.4663 56.335 52.6915 56.2531 52.9167 56.1712C53.0668 56.0075 53.2169 55.8437 53.2169 55.598C53.2169 55.5162 53.2169 55.3524 53.1419 55.2705C53.0668 55.1886 52.9918 55.1068 52.9167 55.0249C52.8416 54.943 52.6915 54.8611 52.4663 54.7792C52.2412 54.6973 52.016 54.6155 51.7158 54.5336C51.3405 54.4517 50.9652 54.2879 50.6649 54.2061C50.3647 54.0423 50.0645 53.9604 49.9143 53.7148C49.6892 53.551 49.5391 53.3053 49.3889 53.0597C49.2388 52.814 49.2388 52.4865 49.2388 52.0771C49.2388 51.6677 49.3139 51.3402 49.464 51.0945C49.6141 50.767 49.7642 50.5213 49.9894 50.3576C50.2146 50.1119 50.5148 49.9482 50.815 49.8663C51.1153 49.7844 51.4906 49.7025 51.8659 49.7025C52.3913 49.7025 52.9167 49.7844 53.3671 49.9482C53.8174 50.1119 54.2678 50.3576 54.643 50.6851L53.8174 51.9952C53.5172 51.7496 53.1419 51.5858 52.8416 51.422C52.5414 51.2583 52.2412 51.1764 51.8659 51.1764C51.5656 51.1764 51.3405 51.2583 51.1153 51.3402C50.9652 51.5039 50.8901 51.6677 50.8901 51.8315C50.8901 51.9952 50.8901 52.0771 50.9652 52.159C51.0402 52.2409 51.1153 52.3228 51.1903 52.4046C51.3405 52.4865 51.4906 52.5684 51.7158 52.6503C51.9409 52.7322 52.1661 52.8141 52.5414 52.8959C52.9167 52.9778 53.2169 53.1416 53.5172 53.2235C53.8174 53.3872 54.0426 53.551 54.2678 53.7148C54.4929 53.8785 54.6431 54.1242 54.7181 54.3698C54.7932 54.6155 54.8682 54.943 54.8682 55.2705C54.8682 55.6799 54.7932 56.0074 54.643 56.335C54.4929 56.6625 54.3428 56.9082 54.1176 57.1538C53.8925 57.3994 53.5922 57.5632 53.292 57.6451C52.8416 57.8907 52.4663 57.8908 52.016 57.8908Z" fill="white"/>
<path d="M57.495 57.8907C57.1948 57.8907 56.9696 57.8907 56.7444 57.8088C56.5192 57.7269 56.294 57.6451 56.1439 57.4813C55.9938 57.3175 55.8437 57.1537 55.6936 56.9081C55.6185 56.6625 55.5435 56.4168 55.5435 56.0893C55.5435 55.7617 55.6185 55.4342 55.6936 55.1886C55.8437 54.9429 55.9938 54.6973 56.1439 54.6154C56.3691 54.4516 56.5943 54.3697 56.8945 54.2879C57.1948 54.206 57.495 54.206 57.7952 54.206C58.0955 54.206 58.3206 54.206 58.5458 54.2879C58.771 54.3697 58.9962 54.3697 59.1463 54.4516V54.3697C59.1463 53.9603 59.0712 53.7147 58.8461 53.5509C58.6209 53.3872 58.3206 53.2234 57.9453 53.2234C57.6451 53.2234 57.3449 53.2234 57.1197 53.3053C56.8945 53.3872 56.6693 53.469 56.3691 53.5509L55.9938 52.2408C56.294 52.077 56.6693 51.9952 56.9696 51.9133C57.3449 51.8314 57.7202 51.7495 58.1705 51.7495C58.6209 51.7495 58.9962 51.8314 59.2964 51.9133C59.5966 51.9952 59.8969 52.2408 60.047 52.4046C60.2722 52.6502 60.4223 52.8959 60.4973 53.2234C60.5724 53.5509 60.6475 53.9603 60.6475 54.3697V57.9726H59.0712V57.3175C58.846 57.5632 58.6209 57.7269 58.3957 57.8907C58.2456 57.8907 57.8703 57.8907 57.495 57.8907ZM57.9453 56.7443C58.3206 56.7443 58.6209 56.6624 58.8461 56.4168C59.0712 56.253 59.2213 55.9255 59.2213 55.598V55.2705C59.0712 55.1886 58.9211 55.1067 58.771 55.1067C58.6209 55.0248 58.3957 55.0248 58.2456 55.0248C57.8703 55.0248 57.6451 55.1067 57.4199 55.2705C57.1948 55.4342 57.1197 55.598 57.1197 55.9255C57.1197 56.1711 57.1948 56.3349 57.3449 56.4987C57.495 56.6625 57.7202 56.7443 57.9453 56.7443Z" fill="white"/>
<path d="M63.725 49.375H62.0737V57.8089H63.725V49.375Z" fill="white"/>
<path d="M64.5505 51.5858H66.2769L67.5529 55.7618L68.8289 51.5858H70.4802L68.2284 57.8908H66.8023L64.5505 51.5858Z" fill="white"/>
<path d="M72.8822 57.8907C72.582 57.8907 72.3568 57.8907 72.1316 57.8088C71.9064 57.7269 71.6813 57.6451 71.5311 57.4813C71.381 57.3175 71.2309 57.1537 71.0808 56.9081C71.0057 56.6625 70.9307 56.4168 70.9307 56.0893C70.9307 55.7617 71.0057 55.4342 71.0808 55.1886C71.2309 54.9429 71.381 54.6973 71.5311 54.6154C71.7563 54.4516 71.9815 54.3697 72.2817 54.2879C72.582 54.206 72.8822 54.206 73.1824 54.206C73.4827 54.206 73.7078 54.206 73.933 54.2879C74.1582 54.3697 74.3834 54.3697 74.5335 54.4516V54.3697C74.5335 53.9603 74.4584 53.7147 74.2333 53.5509C74.0081 53.3872 73.7078 53.2234 73.3325 53.2234C73.0323 53.2234 72.7321 53.2234 72.5069 53.3053C72.2817 53.3872 71.9815 53.469 71.7563 53.5509L71.381 52.2408C71.6813 52.077 72.0566 51.9952 72.3568 51.9133C72.7321 51.8314 73.1074 51.7495 73.5577 51.7495C74.0081 51.7495 74.3834 51.8314 74.6836 51.9133C74.9838 51.9952 75.2841 52.2408 75.4342 52.4046C75.6594 52.6502 75.8095 52.8959 75.8845 53.2234C75.9596 53.5509 76.0347 53.9603 76.0347 54.3697V57.9726H74.4584V57.3175C74.2332 57.5632 74.0081 57.7269 73.7829 57.8907C73.6328 57.8907 73.2575 57.8907 72.8822 57.8907ZM73.3325 56.7443C73.7078 56.7443 74.0081 56.6624 74.2333 56.4168C74.4584 56.253 74.6086 55.9255 74.6086 55.598V55.2705C74.4584 55.1886 74.3083 55.1067 74.1582 55.1067C74.0081 55.0248 73.7829 55.0248 73.6328 55.0248C73.2575 55.0248 73.0323 55.1067 72.8071 55.2705C72.582 55.4342 72.5069 55.598 72.5069 55.9255C72.5069 56.1711 72.582 56.3349 72.7321 56.4987C72.8822 56.6625 73.1074 56.7443 73.3325 56.7443Z" fill="white"/>
<path d="M79.7128 57.8907C79.4125 57.8907 79.0372 57.8088 78.737 57.645C78.4368 57.4813 78.1365 57.3175 77.9113 56.99C77.6862 56.7444 77.461 56.4168 77.3109 56.0074C77.1608 55.598 77.0857 55.1886 77.0857 54.6154C77.0857 54.1241 77.1608 53.6328 77.3109 53.2234C77.461 52.814 77.6111 52.4865 77.9113 52.2408C78.1365 51.9952 78.4368 51.7495 78.737 51.5858C79.0372 51.422 79.4125 51.3401 79.7128 51.3401C80.1631 51.3401 80.5384 51.422 80.7636 51.5858C81.0638 51.7495 81.289 51.9952 81.4391 52.2408V49.2112H83.0904V57.645H81.4391V56.9081C81.2139 57.2356 80.9888 57.4813 80.6885 57.645C80.5384 57.8088 80.1631 57.8907 79.7128 57.8907ZM80.1631 56.4168C80.3883 56.4168 80.5384 56.4168 80.6885 56.3349C80.8386 56.253 80.9888 56.1712 81.1389 56.0074C81.289 55.8436 81.364 55.6799 81.4391 55.4342C81.5142 55.1886 81.5142 55.0248 81.5142 54.6973C81.5142 54.4516 81.5142 54.206 81.4391 53.9603C81.364 53.7147 81.289 53.5509 81.1389 53.3872C80.9888 53.2234 80.8386 53.1415 80.6885 53.0596C80.5384 52.9778 80.3132 52.9778 80.1631 52.9778C79.9379 52.9778 79.7878 52.9778 79.6377 53.0596C79.4876 53.1415 79.3375 53.2234 79.1873 53.3872C79.0372 53.5509 78.9622 53.7147 78.8871 53.9603C78.8121 54.206 78.737 54.3698 78.737 54.6973C78.737 54.9429 78.8121 55.1886 78.8871 55.4342C78.9622 55.6799 79.0372 55.8436 79.1873 56.0074C79.3375 56.1712 79.4876 56.253 79.6377 56.3349C79.7878 56.4168 79.9379 56.4168 80.1631 56.4168Z" fill="white"/>
<path d="M87.2185 57.9726C86.7682 57.9726 86.3929 57.8908 86.0176 57.727C85.6423 57.5632 85.3421 57.3176 85.0418 57.0719C84.7416 56.7444 84.5915 56.4169 84.3663 56.0893C84.2162 55.6799 84.1411 55.2705 84.1411 54.8611C84.1411 54.4517 84.2162 53.9604 84.3663 53.6329C84.5164 53.2235 84.7416 52.8959 85.0418 52.5684C85.3421 52.2409 85.6423 52.0771 86.0176 51.8315C86.3929 51.6677 86.7682 51.5858 87.2185 51.5858C87.6689 51.5858 88.0442 51.6677 88.4195 51.8315C88.7948 51.9952 89.095 52.2409 89.3952 52.4865C89.6955 52.8141 89.9206 53.1416 90.0708 53.4691C90.2209 53.8785 90.2959 54.2879 90.2959 54.6973C90.2959 55.1067 90.2209 55.598 90.0708 55.9256C89.9206 56.335 89.6955 56.6625 89.3952 56.9901C89.095 57.3176 88.7948 57.4813 88.4195 57.727C88.0442 57.8908 87.6689 57.9726 87.2185 57.9726ZM87.2185 56.4169C87.4437 56.4169 87.6689 56.335 87.819 56.2531C87.9691 56.1712 88.1192 56.0075 88.2693 55.9256C88.4195 55.7618 88.4945 55.5981 88.5696 55.3524C88.6446 55.1886 88.6446 54.943 88.6446 54.6973C88.6446 54.4517 88.6446 54.206 88.5696 54.0423C88.4945 53.8785 88.4195 53.6329 88.2693 53.4691C88.1192 53.3053 87.9691 53.2235 87.819 53.0597C87.6689 52.9778 87.4437 52.8959 87.2185 52.8959C86.9933 52.8959 86.7682 52.9778 86.6181 53.0597C86.4679 53.1416 86.3178 53.3054 86.1677 53.3872C86.0176 53.551 85.9425 53.7148 85.8675 53.9604C85.7924 54.1242 85.7924 54.3698 85.7924 54.6155C85.7924 54.8611 85.7924 55.0249 85.8675 55.2705C85.9425 55.5162 86.0176 55.6799 86.1677 55.8437C86.3178 56.0075 86.4679 56.0894 86.6181 56.2531C86.7682 56.4169 86.9933 56.4169 87.2185 56.4169Z" fill="white"/>
<path d="M91.3464 51.5859H92.9977V52.8141C93.1479 52.4047 93.373 52.0771 93.6733 51.8315C93.9735 51.5859 94.3488 51.4221 94.7991 51.504V53.3873H94.7241C94.1987 53.3873 93.7483 53.551 93.4481 53.9604C93.1478 54.288 92.9977 54.8611 92.9977 55.5981V57.8908H91.3464V51.5859V51.5859Z" fill="white"/>
<path d="M100.503 51.3402H98.2517V49.7025H104.407V51.3402H102.155V57.8089H100.503V51.3402Z" fill="white"/>
<path d="M107.259 57.8908C106.658 57.8908 106.133 57.727 105.833 57.3176C105.533 56.9082 105.307 56.335 105.307 55.598V51.5858H106.959V55.0249C106.959 55.4343 107.034 55.7618 107.184 56.0075C107.334 56.2531 107.559 56.335 107.934 56.335C108.235 56.335 108.46 56.2531 108.685 56.0075C108.835 55.7618 108.985 55.5162 108.985 55.0249V51.5858H110.637V57.8089H108.985V56.9082C108.91 57.0719 108.76 57.1538 108.685 57.3176C108.61 57.3995 108.46 57.5632 108.31 57.6451C108.16 57.727 108.009 57.8089 107.859 57.8908C107.634 57.8908 107.484 57.8908 107.259 57.8908Z" fill="white"/>
<path d="M111.837 51.5859H113.489V52.8141C113.639 52.4047 113.864 52.0771 114.164 51.8315C114.464 51.5859 114.84 51.4221 115.29 51.504V53.3873H115.215C114.69 53.3873 114.239 53.551 113.939 53.9604C113.639 54.288 113.489 54.8611 113.489 55.5981V57.8908H111.837V51.5859V51.5859Z" fill="white"/>
<path d="M116.116 49.375H117.842V50.9308H116.116V49.375ZM116.191 51.5858H117.842V57.8089H116.191V51.5858Z" fill="white"/>
<path d="M121.145 57.8908C120.77 57.8908 120.319 57.8089 119.944 57.6452C119.494 57.4814 119.118 57.2358 118.743 56.9082L119.418 55.7619C119.719 56.0075 120.019 56.1713 120.319 56.335C120.619 56.4988 120.92 56.4988 121.22 56.4988C121.445 56.4988 121.595 56.4169 121.745 56.335C121.82 56.2532 121.895 56.1713 121.895 56.0075C121.895 55.9256 121.895 55.8438 121.82 55.7619C121.745 55.68 121.67 55.5981 121.595 55.5981C121.52 55.5162 121.37 55.5162 121.22 55.4344C121.07 55.3525 120.92 55.3525 120.77 55.2706C120.544 55.1887 120.394 55.1068 120.169 55.0249C119.944 54.9431 119.794 54.7793 119.644 54.6974C119.494 54.5336 119.343 54.3699 119.268 54.2061C119.193 53.9605 119.118 53.7148 119.118 53.4692C119.118 53.1416 119.193 52.896 119.268 52.6503C119.343 52.4047 119.494 52.1591 119.719 51.9953C119.944 51.8315 120.094 51.6678 120.394 51.5859C120.619 51.504 120.92 51.4221 121.22 51.4221C121.595 51.4221 121.97 51.504 122.346 51.5859C122.721 51.7496 123.096 51.9134 123.397 52.0772L122.796 53.3054C122.496 53.1417 122.271 52.9779 121.97 52.896C121.67 52.8141 121.445 52.7322 121.295 52.7322C121.07 52.7322 120.92 52.7322 120.845 52.8141C120.77 52.896 120.694 52.9779 120.694 53.1416C120.694 53.2235 120.694 53.3054 120.77 53.3873C120.845 53.4692 120.92 53.5511 120.995 53.5511C121.07 53.6329 121.22 53.6329 121.37 53.7148C121.52 53.7967 121.67 53.7967 121.82 53.8786C122.046 53.9605 122.196 54.0424 122.421 54.1242C122.646 54.2061 122.796 54.3699 122.946 54.4518C123.096 54.6155 123.246 54.7793 123.322 54.9431C123.397 55.1068 123.472 55.3525 123.472 55.68C123.472 56.0075 123.397 56.3351 123.322 56.5807C123.246 56.8264 123.021 57.072 122.871 57.2358C122.646 57.3995 122.421 57.4814 122.196 57.5633C121.745 57.8908 121.445 57.8908 121.145 57.8908Z" fill="white"/>
<path d="M124.297 51.5859H125.949V52.4866C126.024 52.3228 126.174 52.2409 126.249 52.0772C126.324 51.9953 126.474 51.8315 126.624 51.7496C126.774 51.6678 126.924 51.5859 127.075 51.504C127.225 51.4221 127.45 51.4221 127.6 51.4221C127.975 51.4221 128.275 51.504 128.576 51.6678C128.876 51.8315 129.026 52.0772 129.176 52.4047C129.401 52.0772 129.702 51.8315 130.002 51.6678C130.302 51.504 130.677 51.4221 131.053 51.4221C131.653 51.4221 132.103 51.5859 132.479 51.9953C132.854 52.4047 133.004 52.9779 133.004 53.7148V57.7271H131.353V54.288C131.353 53.8786 131.278 53.5511 131.128 53.3054C130.978 53.0598 130.752 52.9779 130.452 52.9779C130.152 52.9779 129.927 53.0598 129.702 53.3054C129.551 53.5511 129.476 53.7967 129.476 54.288V57.7271H127.825V54.288C127.825 53.8786 127.75 53.5511 127.6 53.3054C127.45 53.0598 127.225 52.9779 126.924 52.9779C126.624 52.9779 126.399 53.0598 126.174 53.3054C126.024 53.5511 125.949 53.7967 125.949 54.288V57.7271H124.297V51.5859V51.5859Z" fill="white"/>
<path d="M137.057 57.9726C136.607 57.9726 136.232 57.8908 135.856 57.727C135.481 57.5632 135.181 57.3176 134.881 57.0719C134.58 56.7444 134.355 56.4169 134.205 56.0893C134.055 55.6799 133.98 55.2705 133.98 54.8611C133.98 54.4517 134.055 53.9604 134.205 53.6329C134.355 53.2235 134.58 52.8959 134.881 52.5684C135.181 52.2409 135.481 52.0771 135.856 51.8315C136.232 51.6677 136.607 51.5858 137.057 51.5858C137.508 51.5858 137.883 51.6677 138.258 51.8315C138.634 51.9952 138.934 52.2409 139.234 52.4865C139.534 52.8141 139.684 53.1416 139.91 53.4691C140.06 53.8785 140.135 54.2879 140.135 54.6973C140.135 55.1067 140.06 55.598 139.91 55.9256C139.76 56.335 139.534 56.6625 139.234 56.9901C138.934 57.3176 138.634 57.4813 138.258 57.727C137.883 57.8908 137.508 57.9726 137.057 57.9726ZM137.057 56.4169C137.283 56.4169 137.508 56.335 137.658 56.2531C137.808 56.1712 137.958 56.0075 138.108 55.9256C138.258 55.7618 138.333 55.5981 138.408 55.3524C138.484 55.1886 138.484 54.943 138.484 54.6973C138.484 54.4517 138.484 54.206 138.408 54.0423C138.333 53.8785 138.258 53.6329 138.108 53.4691C137.958 53.3053 137.808 53.2235 137.658 53.0597C137.508 52.9778 137.283 52.8959 137.057 52.8959C136.832 52.8959 136.607 52.9778 136.457 53.0597C136.307 53.1416 136.157 53.3054 136.007 53.3872C135.856 53.551 135.781 53.7148 135.706 53.9604C135.631 54.1242 135.631 54.3698 135.631 54.6155C135.631 54.8611 135.631 55.0249 135.706 55.2705C135.781 55.5162 135.856 55.6799 136.007 55.8437C136.157 56.0075 136.307 56.0894 136.457 56.2531C136.682 56.4169 136.832 56.4169 137.057 56.4169Z" fill="white"/>
<path d="M18.1642 37.4202C16.5129 39.1397 13.8108 40.368 10.2831 40.368C6.68024 40.368 4.05318 39.2216 2.40188 37.5021C0.600474 35.5369 0 32.7529 0 28.7407H7.28071C7.28071 30.3783 7.35577 31.5247 8.03129 32.3435C8.40659 32.8348 9.15718 33.3261 10.2831 33.3261C11.4089 33.3261 12.0845 32.9986 12.6099 32.3435C13.1353 31.6885 13.3605 30.624 13.3605 28.9863C13.3605 25.2197 12.8351 24.5647 10.208 23.3365L5.62941 21.2894C1.95153 19.6518 0.450357 17.5228 0.450357 11.2998C0.450357 7.61506 1.50118 4.58541 3.75294 2.53836C5.47929 0.90071 7.656 0 10.4332 0C13.6607 0 15.9875 0.90071 17.5638 2.53836C19.5903 4.50353 20.3409 7.69694 20.3409 11.7092H12.9852C12.9852 10.3172 12.9852 9.00705 12.3847 8.10634C12.0094 7.53317 11.3339 7.12376 10.2831 7.12376C9.23224 7.12376 8.63176 7.53317 8.18141 8.18823C7.73106 8.84329 7.58094 9.66211 7.58094 11.0541C7.58094 13.5925 7.95623 14.2475 10.0579 15.2301L14.6365 17.1953C19.2151 19.1605 20.5661 21.4532 20.5661 28.6588C20.4911 32.671 20.0407 35.455 18.1642 37.4202Z" fill="white"/>
<path d="M39.4812 39.9584L38.2803 33.8173H29.8737L28.6727 39.9584H21.0918L30.3991 0.327393H37.5297L46.837 39.9584H39.4812ZM34.077 11.9547L31.2998 26.6116H36.9292L34.077 11.9547Z" fill="white"/>
<path d="M49.0881 39.9584V0.327393H56.3688V32.8347H65.8262V39.9584H49.0881Z" fill="white"/>
<path d="M77.6107 7.45116V39.9584H70.33V7.45116H64.2502V0.327393H83.6905V7.45116H77.6107Z" fill="white"/>
<path d="M103.806 37.0926C101.855 39.3034 99.3026 40.3679 96.2252 40.3679C93.1478 40.3679 90.5958 39.2215 88.6443 37.0926C86.9179 35.1274 85.9421 32.5072 85.9421 29.3137V0.327393H93.2228V29.7232C93.2228 32.2615 94.5739 33.326 96.2252 33.326C97.8765 33.326 99.2275 32.3434 99.2275 29.7232V0.327393H106.508V29.3137C106.508 32.5072 105.532 35.1274 103.806 37.0926Z" fill="white"/>
<path d="M124.673 39.9584L120.244 24.5646H117.842V39.9584H110.562V0.327393H120.92C128.801 0.327393 131.053 4.83092 131.053 12.446C131.053 16.7039 130.452 20.4704 126.924 22.845L132.254 39.9584H124.673ZM120.845 7.45116H117.767V17.4408H120.845C123.622 17.4408 123.772 14.7387 123.772 12.446C123.772 10.0714 123.622 7.45116 120.845 7.45116Z" fill="white"/>
</svg>
