<?xml version="1.0" encoding="utf-8"?>
<!-- Generator: Adobe Illustrator 23.0.0, SVG Export Plug-In . SVG Version: 6.00 Build 0)  -->
<svg version="1.1" id="Camada_1" xmlns="http://www.w3.org/2000/svg" xmlns:xlink="http://www.w3.org/1999/xlink" x="0px" y="0px"
	 viewBox="0 0 308.4 103.2" style="enable-background:new 0 0 308.4 103.2;" xml:space="preserve">
<style type="text/css">
	.st0{fill:#231F20;}
	.st1{fill:#0066B2;}
	.st2{display:none;}
	.st3{display:inline;fill:#231F20;}
</style>
<g>
	<path class="st0" d="M1.5,91.3h8v2.2H3.8V96h5v2.2h-5v2.5h5.8v2.2H1.5V91.3z"/>
	<path class="st0" d="M11.2,94.1h2.3v1.3c0.1-0.2,0.3-0.4,0.5-0.5c0.2-0.2,0.4-0.3,0.6-0.5c0.2-0.1,0.4-0.2,0.6-0.3
		c0.3-0.1,0.5-0.1,0.8-0.1c0.6,0,1,0.1,1.4,0.4c0.4,0.2,0.7,0.6,0.9,1c0.4-0.5,0.7-0.8,1.2-1.1c0.5-0.2,0.9-0.4,1.5-0.4
		c0.8,0,1.6,0.3,2,0.8c0.5,0.5,0.7,1.4,0.7,2.4v5.9h-2.4v-5c0-0.6-0.1-1-0.4-1.3c-0.3-0.3-0.6-0.5-1-0.5c-0.5,0-0.7,0.2-1,0.5
		c-0.3,0.3-0.4,0.8-0.4,1.3v5h-2.3v-5c0-0.6-0.1-1-0.4-1.3c-0.3-0.3-0.6-0.5-1-0.5c-0.5,0-0.7,0.2-1,0.5c-0.3,0.3-0.4,0.8-0.4,1.3v5
		h-2.3V94.1z"/>
	<path class="st0" d="M25.5,94.1h2.3v1.3c0.3-0.4,0.6-0.8,1-1c0.4-0.3,0.9-0.4,1.5-0.4c0.5,0,0.9,0.1,1.4,0.3
		c0.5,0.2,0.8,0.5,1.2,0.9c0.4,0.4,0.6,0.9,0.8,1.4c0.2,0.6,0.3,1.2,0.3,2c0,0.7-0.1,1.4-0.3,2c-0.2,0.6-0.5,1-0.8,1.4
		c-0.4,0.4-0.7,0.7-1.2,0.9c-0.5,0.2-0.9,0.3-1.4,0.3c-0.6,0-1.1-0.1-1.6-0.4c-0.4-0.3-0.7-0.6-1-0.9v3.8h-2.3L25.5,94.1L25.5,94.1z
		 M29.8,101c0.3,0,0.6-0.1,0.7-0.2c0.3-0.1,0.5-0.3,0.6-0.5c0.2-0.2,0.4-0.5,0.5-0.8c0.1-0.3,0.2-0.6,0.2-1c0-0.4-0.1-0.7-0.2-1
		c-0.1-0.3-0.3-0.6-0.5-0.8c-0.2-0.2-0.4-0.4-0.6-0.5c-0.3-0.1-0.5-0.2-0.7-0.2c-0.3,0-0.6,0.1-0.7,0.2c-0.3,0.1-0.5,0.3-0.6,0.5
		c-0.2,0.2-0.3,0.5-0.5,0.8c-0.1,0.3-0.2,0.6-0.2,1c0,0.4,0.1,0.7,0.2,1c0.1,0.3,0.3,0.6,0.5,0.8c0.2,0.2,0.4,0.4,0.6,0.5
		C29.2,100.9,29.5,101,29.8,101z"/>
	<path class="st0" d="M35.6,94.1H38v1.8c0.3-0.6,0.6-1.1,0.9-1.5s0.9-0.5,1.7-0.5v2.6h-0.1c-0.7,0-1.4,0.3-1.9,0.8
		c-0.5,0.5-0.6,1.3-0.6,2.4v3.3h-2.3V94.1z"/>
	<path class="st0" d="M45.7,103.2c-0.6,0-1.2-0.1-1.7-0.3c-0.6-0.2-1-0.5-1.4-0.9s-0.6-0.9-0.9-1.4c-0.2-0.6-0.3-1.2-0.3-1.9
		c0-0.6,0.1-1.2,0.3-1.8c0.2-0.6,0.5-1.1,0.8-1.5s0.7-0.7,1.3-1c0.5-0.2,1-0.4,1.7-0.4c0.6,0,1.3,0.1,1.8,0.4
		c0.5,0.3,0.9,0.6,1.2,1.1c0.4,0.4,0.6,1,0.7,1.5c0.2,0.6,0.3,1.2,0.3,1.8c0,0.1,0,0.2,0,0.3c0,0.1,0,0.2,0,0.3h-5.8
		c0.1,0.6,0.4,1,0.7,1.3c0.4,0.3,0.7,0.4,1.3,0.4c0.4,0,0.7-0.1,1-0.2c0.3-0.1,0.6-0.4,0.9-0.7l1.3,1.3c-0.4,0.5-0.8,0.9-1.4,1.2
		C47.1,103.1,46.4,103.2,45.7,103.2z M47.2,97.8c-0.1-0.6-0.3-1-0.6-1.4c-0.3-0.3-0.6-0.5-1.2-0.5c-0.5,0-0.9,0.2-1.2,0.5
		c-0.3,0.3-0.5,0.8-0.6,1.4H47.2z"/>
	<path class="st0" d="M53.8,103.2c-0.6,0-1.2-0.1-1.8-0.3c-0.6-0.2-1.2-0.6-1.8-1l1-1.6c0.5,0.4,0.9,0.6,1.3,0.8
		c0.5,0.2,0.8,0.3,1.2,0.3c0.4,0,0.6-0.1,0.7-0.2c0.2-0.1,0.3-0.3,0.3-0.5c0-0.1-0.1-0.2-0.1-0.3c-0.1-0.1-0.2-0.2-0.4-0.3
		c-0.2-0.1-0.4-0.1-0.6-0.2c-0.2-0.1-0.5-0.1-0.6-0.2c-0.3-0.1-0.6-0.2-0.8-0.3c-0.3-0.1-0.6-0.3-0.7-0.5c-0.3-0.2-0.5-0.5-0.6-0.7
		c-0.2-0.3-0.2-0.7-0.2-1.1s0.1-0.8,0.3-1.2c0.2-0.3,0.4-0.6,0.6-0.9c0.3-0.2,0.6-0.4,0.9-0.5c0.4-0.1,0.7-0.2,1.2-0.2
		c0.6,0,1,0.1,1.6,0.3c0.6,0.2,1,0.4,1.5,0.8L56.1,97c-0.4-0.3-0.8-0.5-1.2-0.6c-0.4-0.1-0.7-0.2-1-0.2c-0.3,0-0.5,0.1-0.6,0.2
		C53,96.5,53,96.7,53,96.8c0,0.1,0,0.2,0.1,0.3c0.1,0.1,0.2,0.2,0.4,0.3c0.2,0.1,0.4,0.2,0.6,0.2c0.2,0.1,0.4,0.2,0.6,0.2
		c0.3,0.1,0.6,0.2,0.8,0.4c0.3,0.1,0.6,0.3,0.8,0.5s0.5,0.4,0.6,0.7c0.2,0.3,0.2,0.6,0.2,1c0,0.5-0.1,0.9-0.3,1.3s-0.4,0.7-0.6,0.9
		c-0.3,0.2-0.6,0.4-1,0.5C54.7,103.1,54.3,103.2,53.8,103.2z"/>
	<path class="st0" d="M60.7,103.2c-0.4,0-0.7-0.1-1.1-0.2c-0.4-0.1-0.6-0.3-0.9-0.5s-0.5-0.5-0.6-0.8c-0.2-0.3-0.2-0.7-0.2-1.2
		s0.1-0.9,0.3-1.3s0.4-0.6,0.6-0.9c0.3-0.2,0.6-0.4,1-0.5c0.4-0.1,0.8-0.2,1.3-0.2c0.5,0,0.7,0,1.1,0.1c0.3,0.1,0.6,0.2,0.9,0.3
		v-0.1c0-0.5-0.2-0.9-0.5-1.2c-0.3-0.3-0.7-0.4-1.3-0.4c-0.5,0-0.8,0-1.2,0.1c-0.4,0.1-0.7,0.2-1.1,0.4l-0.6-2
		c0.5-0.2,0.9-0.4,1.4-0.5c0.5-0.1,1.1-0.2,1.8-0.2c0.6,0,1.2,0.1,1.7,0.3c0.5,0.2,0.8,0.4,1.1,0.7c0.3,0.3,0.6,0.7,0.6,1.2
		c0.2,0.5,0.2,1,0.2,1.6v5.2h-2.1v-1c-0.3,0.3-0.6,0.6-1,0.8C61.8,103.1,61.3,103.2,60.7,103.2z M61.4,101.5c0.6,0,1-0.1,1.3-0.4
		c0.4-0.3,0.5-0.7,0.5-1.1v-0.4c-0.2-0.1-0.5-0.2-0.6-0.2c-0.3-0.1-0.6-0.1-0.8-0.1c-0.5,0-0.9,0.1-1.2,0.3
		c-0.3,0.2-0.5,0.5-0.5,0.9c0,0.3,0.1,0.6,0.4,0.8C60.7,101.4,61.1,101.5,61.4,101.5z"/>
	<path class="st0" d="M75.6,103.2c-0.8,0-1.6-0.2-2.4-0.5c-0.7-0.3-1.5-0.8-2.1-1.4l1.4-1.8c0.5,0.4,1,0.8,1.5,1
		c0.6,0.3,1.1,0.4,1.7,0.4c0.5,0,0.8-0.1,1.1-0.3c0.3-0.2,0.4-0.5,0.4-0.8c0-0.2,0-0.3-0.1-0.4c-0.1-0.1-0.2-0.2-0.3-0.4
		c-0.2-0.1-0.4-0.2-0.6-0.3c-0.3-0.1-0.6-0.2-1.1-0.3c-0.6-0.1-1-0.3-1.5-0.5c-0.5-0.2-0.8-0.4-1.1-0.6c-0.3-0.3-0.6-0.6-0.7-1
		c-0.2-0.4-0.3-0.9-0.3-1.4s0.1-1,0.3-1.4c0.2-0.4,0.5-0.8,0.7-1.1c0.4-0.3,0.7-0.5,1.2-0.7c0.5-0.2,0.9-0.2,1.5-0.2
		c0.7,0,1.5,0.1,2.1,0.4c0.6,0.3,1.3,0.6,1.9,1.1l-1.2,1.9c-0.5-0.4-0.9-0.6-1.4-0.8s-0.9-0.3-1.4-0.3c-0.5,0-0.8,0.1-1,0.3
		c-0.2,0.2-0.4,0.4-0.4,0.7c0,0.2,0,0.3,0.1,0.5c0.1,0.1,0.2,0.3,0.4,0.4c0.2,0.1,0.4,0.2,0.7,0.3c0.3,0.1,0.6,0.2,1.1,0.3
		c0.6,0.2,1,0.3,1.5,0.5c0.5,0.2,0.7,0.4,1.1,0.7c0.3,0.3,0.6,0.6,0.6,0.9c0.2,0.4,0.2,0.8,0.2,1.3c0,0.6-0.1,1.1-0.3,1.5
		c-0.2,0.4-0.5,0.8-0.8,1.1c-0.4,0.3-0.7,0.5-1.2,0.7C76.8,103.1,76.2,103.2,75.6,103.2z"/>
	<path class="st0" d="M83.4,103.2c-0.4,0-0.7-0.1-1.1-0.2c-0.4-0.1-0.6-0.3-0.9-0.5c-0.3-0.2-0.5-0.5-0.6-0.8
		c-0.2-0.3-0.2-0.7-0.2-1.2s0.1-0.9,0.3-1.3c0.2-0.4,0.4-0.6,0.6-0.9c0.3-0.2,0.6-0.4,1-0.5c0.4-0.1,0.8-0.2,1.3-0.2s0.7,0,1.1,0.1
		c0.3,0.1,0.6,0.2,0.9,0.3v-0.1c0-0.5-0.2-0.9-0.5-1.2c-0.3-0.3-0.7-0.4-1.3-0.4c-0.5,0-0.8,0-1.2,0.1c-0.4,0.1-0.7,0.2-1.1,0.4
		l-0.6-1.9c0.5-0.2,0.9-0.4,1.4-0.5c0.5-0.1,1.1-0.2,1.8-0.2c0.6,0,1.2,0.1,1.7,0.3c0.5,0.2,0.8,0.4,1.1,0.7
		c0.3,0.3,0.6,0.7,0.6,1.2c0.2,0.5,0.2,1,0.2,1.6v5.2h-2.2v-1c-0.3,0.3-0.6,0.6-1,0.8C84.6,103.1,84,103.2,83.4,103.2z M84.2,101.5
		c0.6,0,1-0.1,1.3-0.4c0.4-0.3,0.5-0.7,0.5-1.1v-0.4c-0.2-0.1-0.5-0.2-0.6-0.2c-0.3-0.1-0.6-0.1-0.8-0.1c-0.5,0-0.9,0.1-1.2,0.3
		c-0.3,0.2-0.5,0.5-0.5,0.9c0,0.3,0.1,0.6,0.4,0.8C83.5,101.4,83.8,101.5,84.2,101.5z"/>
	<path class="st0" d="M92.4,90.8h-2.3V103h2.3V90.8z"/>
	<path class="st0" d="M93.6,94.1h2.4l1.9,6l1.9-6h2.4l-3.2,9h-2L93.6,94.1z"/>
	<path class="st0" d="M105.6,103.2c-0.4,0-0.7-0.1-1.1-0.2c-0.4-0.1-0.6-0.3-0.9-0.5c-0.3-0.2-0.5-0.5-0.6-0.8
		c-0.2-0.3-0.2-0.7-0.2-1.2s0.1-0.9,0.3-1.3c0.2-0.4,0.4-0.6,0.7-0.9c0.3-0.2,0.7-0.4,1-0.5c0.4-0.1,0.8-0.2,1.3-0.2s0.7,0,1.1,0.1
		c0.3,0.1,0.6,0.2,0.9,0.3v-0.1c0-0.5-0.2-0.9-0.5-1.2c-0.3-0.3-0.7-0.4-1.3-0.4c-0.5,0-0.8,0-1.2,0.1c-0.4,0.1-0.7,0.2-1.1,0.4
		l-0.6-1.9c0.5-0.2,0.9-0.4,1.4-0.5c0.5-0.1,1.1-0.2,1.8-0.2s1.2,0.1,1.7,0.3c0.5,0.2,0.8,0.4,1.1,0.7c0.3,0.3,0.6,0.7,0.6,1.2
		c0.2,0.5,0.2,1,0.2,1.6v5.2H108v-1c-0.3,0.3-0.6,0.6-1,0.8C106.7,103.1,106.2,103.2,105.6,103.2z M106.4,101.5c0.6,0,1-0.1,1.3-0.4
		c0.4-0.3,0.5-0.7,0.5-1.1v-0.4c-0.2-0.1-0.5-0.2-0.7-0.2c-0.3-0.1-0.6-0.1-0.8-0.1c-0.5,0-0.9,0.1-1.2,0.3
		c-0.3,0.2-0.5,0.5-0.5,0.9c0,0.3,0.1,0.6,0.4,0.8C105.6,101.4,106,101.5,106.4,101.5z"/>
	<path class="st0" d="M115.5,103.2c-0.5,0-0.9-0.1-1.4-0.3c-0.5-0.2-0.8-0.5-1.2-0.9c-0.4-0.4-0.6-0.9-0.8-1.4
		c-0.2-0.6-0.3-1.2-0.3-2c0-0.7,0.1-1.4,0.3-2c0.2-0.6,0.5-1,0.8-1.4c0.4-0.4,0.7-0.7,1.2-0.9c0.5-0.2,0.9-0.3,1.4-0.3
		c0.6,0,1.1,0.1,1.6,0.4c0.4,0.3,0.7,0.6,1,0.9v-4.5h2.3v12.1h-2.3v-1.1c-0.3,0.4-0.6,0.8-1,1C116.7,103.1,116.1,103.2,115.5,103.2z
		 M116.1,101c0.3,0,0.6-0.1,0.7-0.2c0.3-0.1,0.5-0.3,0.7-0.5c0.2-0.2,0.3-0.5,0.5-0.8c0.1-0.3,0.2-0.6,0.2-1c0-0.4-0.1-0.7-0.2-1
		c-0.1-0.3-0.3-0.6-0.5-0.8c-0.2-0.2-0.4-0.4-0.7-0.5c-0.3-0.1-0.5-0.2-0.7-0.2c-0.3,0-0.6,0.1-0.7,0.2c-0.3,0.1-0.5,0.3-0.7,0.5
		c-0.2,0.2-0.4,0.5-0.5,0.8c-0.1,0.3-0.2,0.6-0.2,1c0,0.4,0.1,0.7,0.2,1c0.1,0.3,0.3,0.6,0.5,0.8c0.2,0.2,0.4,0.4,0.7,0.5
		C115.6,100.9,115.8,101,116.1,101z"/>
	<path class="st0" d="M126.2,103.2c-0.6,0-1.2-0.1-1.8-0.4c-0.6-0.2-1-0.6-1.4-1s-0.7-0.9-0.9-1.5c-0.2-0.6-0.4-1.2-0.4-1.8
		c0-0.6,0.1-1.2,0.4-1.8c0.2-0.6,0.6-1,0.9-1.5c0.4-0.4,0.8-0.7,1.4-1c0.6-0.2,1.1-0.4,1.8-0.4c0.7,0,1.2,0.1,1.8,0.4
		c0.6,0.2,1,0.6,1.4,1c0.4,0.4,0.7,0.9,0.9,1.5c0.2,0.6,0.4,1.2,0.4,1.8c0,0.6-0.1,1.2-0.4,1.8c-0.2,0.6-0.6,1-0.9,1.5
		c-0.4,0.4-0.8,0.7-1.4,1C127.5,103.1,126.9,103.2,126.2,103.2z M126.3,101c0.4,0,0.7-0.1,0.9-0.2c0.3-0.1,0.5-0.3,0.6-0.5
		c0.2-0.2,0.3-0.5,0.5-0.8c0.1-0.3,0.2-0.6,0.2-0.9c0-0.3-0.1-0.6-0.2-0.9c-0.1-0.3-0.3-0.5-0.5-0.8c-0.2-0.2-0.5-0.4-0.6-0.5
		c-0.3-0.1-0.6-0.2-0.8-0.2c-0.4,0-0.6,0.1-0.9,0.2c-0.3,0.1-0.5,0.3-0.7,0.5c-0.2,0.2-0.3,0.5-0.5,0.8c-0.1,0.3-0.2,0.6-0.2,0.9
		c0,0.3,0.1,0.6,0.2,0.9c0.1,0.3,0.3,0.6,0.5,0.8c0.2,0.2,0.5,0.4,0.7,0.5C125.7,100.9,125.9,101,126.3,101z"/>
	<path class="st0" d="M132.2,94.1h2.3v1.8c0.3-0.6,0.6-1.1,0.9-1.5s0.9-0.5,1.7-0.5v2.6H137c-0.7,0-1.4,0.3-1.9,0.8
		c-0.5,0.5-0.6,1.3-0.6,2.4v3.3h-2.3V94.1z"/>
	<path class="st0" d="M145.4,93.7h-3.2v-2.3h8.8v2.3h-3.2v9.3h-2.3V93.7z"/>
	<path class="st0" d="M155.1,103.2c-0.9,0-1.6-0.3-2-0.9c-0.5-0.6-0.7-1.4-0.7-2.4v-5.8h2.3v5c0,0.6,0.1,1,0.4,1.3
		c0.3,0.3,0.6,0.5,1,0.5c0.5,0,0.8-0.2,1-0.5c0.3-0.3,0.4-0.7,0.4-1.3v-5h2.3v8.9h-2.3v-1.2c-0.1,0.2-0.3,0.4-0.5,0.5
		c-0.2,0.2-0.4,0.3-0.6,0.5c-0.2,0.1-0.4,0.2-0.6,0.3C155.6,103.2,155.4,103.2,155.1,103.2z"/>
	<path class="st0" d="M161.7,94.1h2.3v1.8c0.3-0.6,0.6-1.1,0.9-1.5s0.9-0.5,1.7-0.5v2.6h-0.1c-0.7,0-1.4,0.3-1.9,0.8
		c-0.5,0.5-0.7,1.3-0.7,2.4v3.3h-2.3V94.1z"/>
	<path class="st0" d="M167.9,90.8h2.4V93h-2.4V90.8z M168,94.1h2.3v8.9H168V94.1z"/>
	<path class="st0" d="M175.1,103.2c-0.6,0-1.2-0.1-1.8-0.3c-0.7-0.2-1.2-0.6-1.8-1l1-1.6c0.5,0.4,0.9,0.6,1.3,0.8
		c0.5,0.2,0.8,0.3,1.2,0.3s0.6-0.1,0.7-0.2c0.2-0.1,0.3-0.3,0.3-0.5c0-0.1-0.1-0.2-0.2-0.3c-0.1-0.1-0.2-0.2-0.4-0.3
		c-0.2-0.1-0.4-0.1-0.6-0.2c-0.2-0.1-0.5-0.1-0.6-0.2c-0.3-0.1-0.6-0.2-0.8-0.3c-0.3-0.1-0.6-0.3-0.8-0.5c-0.3-0.2-0.5-0.5-0.6-0.7
		c-0.2-0.3-0.2-0.7-0.2-1.1s0.1-0.8,0.3-1.2c0.2-0.3,0.4-0.6,0.6-0.9c0.3-0.2,0.6-0.4,0.9-0.5c0.4-0.1,0.7-0.2,1.2-0.2
		c0.6,0,1,0.1,1.6,0.3c0.6,0.2,1,0.4,1.5,0.8l-0.9,1.7c-0.4-0.3-0.8-0.5-1.2-0.6c-0.4-0.1-0.7-0.2-1-0.2c-0.3,0-0.5,0.1-0.6,0.2
		c-0.2,0.1-0.2,0.3-0.2,0.4c0,0.1,0,0.2,0.2,0.3c0.1,0.1,0.2,0.2,0.4,0.3c0.2,0.1,0.4,0.2,0.6,0.2c0.2,0.1,0.4,0.2,0.6,0.2
		c0.3,0.1,0.6,0.2,0.8,0.4c0.3,0.1,0.6,0.3,0.8,0.5s0.5,0.4,0.6,0.7c0.2,0.3,0.2,0.6,0.2,1c0,0.5-0.1,0.9-0.3,1.3s-0.4,0.7-0.7,0.9
		c-0.3,0.2-0.6,0.4-1,0.5C176,103.1,175.5,103.2,175.1,103.2z"/>
	<path class="st0" d="M179.7,94.1h2.3v1.3c0.1-0.2,0.3-0.4,0.5-0.5c0.2-0.2,0.4-0.3,0.6-0.5c0.2-0.1,0.4-0.2,0.6-0.3
		c0.3-0.1,0.5-0.1,0.8-0.1c0.6,0,1,0.1,1.4,0.4c0.4,0.2,0.7,0.6,0.9,1c0.4-0.5,0.7-0.8,1.2-1.1c0.5-0.2,0.9-0.4,1.5-0.4
		c0.8,0,1.6,0.3,2,0.8c0.5,0.5,0.7,1.4,0.7,2.4v5.9H190v-5c0-0.6-0.1-1-0.4-1.3c-0.3-0.3-0.6-0.5-1-0.5c-0.5,0-0.7,0.2-1,0.5
		c-0.3,0.3-0.4,0.8-0.4,1.3v5h-2.4v-5c0-0.6-0.1-1-0.4-1.3c-0.3-0.3-0.6-0.5-1-0.5c-0.5,0-0.7,0.2-1,0.5c-0.3,0.3-0.4,0.8-0.4,1.3v5
		h-2.3V94.1z"/>
	<path class="st0" d="M198,103.2c-0.7,0-1.2-0.1-1.8-0.4c-0.6-0.2-1-0.6-1.4-1c-0.4-0.4-0.7-0.9-0.9-1.5c-0.2-0.6-0.4-1.2-0.4-1.8
		c0-0.6,0.1-1.2,0.4-1.8c0.2-0.6,0.6-1,0.9-1.5c0.4-0.4,0.8-0.7,1.4-1c0.6-0.2,1.1-0.4,1.8-0.4c0.6,0,1.2,0.1,1.8,0.4
		c0.6,0.2,1,0.6,1.4,1c0.4,0.4,0.7,0.9,0.9,1.5c0.2,0.6,0.4,1.2,0.4,1.8c0,0.6-0.1,1.2-0.4,1.8c-0.2,0.6-0.6,1-0.9,1.5
		c-0.4,0.4-0.8,0.7-1.4,1C199.3,103.1,198.6,103.2,198,103.2z M198.1,101c0.4,0,0.6-0.1,0.9-0.2c0.3-0.1,0.5-0.3,0.6-0.5
		c0.2-0.2,0.3-0.5,0.5-0.8c0.1-0.3,0.2-0.6,0.2-0.9c0-0.3-0.1-0.6-0.2-0.9c-0.1-0.3-0.3-0.5-0.5-0.8c-0.2-0.2-0.5-0.4-0.6-0.5
		c-0.3-0.1-0.6-0.2-0.8-0.2c-0.4,0-0.6,0.1-0.9,0.2c-0.3,0.1-0.5,0.3-0.6,0.5c-0.2,0.2-0.4,0.5-0.5,0.8c-0.1,0.3-0.2,0.6-0.2,0.9
		c0,0.3,0.1,0.6,0.2,0.9c0.1,0.3,0.3,0.6,0.5,0.8c0.2,0.2,0.5,0.4,0.6,0.5C197.4,100.9,197.7,101,198.1,101z"/>
</g>
<g>
	<path class="st0" d="M9.6,83.2L4,75.9v7.4H1.5V71.6h2.4l5.4,7.1v-7.1h2.5v11.6H9.6z"/>
	<path class="st0" d="M19.8,83.2V82c-0.6,0.7-1.3,1.4-2.6,1.4c-1.9,0-3-1.3-3-3.3v-5.7h2.5v5c0,1.2,0.6,1.8,1.5,1.8
		c1,0,1.6-0.6,1.6-1.8v-5h2.5v8.9H19.8z M17.1,73.4l1.9-2.9l2.2,0.9l-2.1,2H17.1z"/>
	<path class="st0" d="M28.8,83.4c-2.7,0-4.6-2.1-4.6-4.6v0c0-2.5,1.9-4.6,4.7-4.6c1.7,0,2.7,0.6,3.5,1.5l-1.5,1.7
		c-0.6-0.6-1.1-1-2-1c-1.3,0-2.2,1.1-2.2,2.4v0c0,1.4,0.9,2.5,2.3,2.5c0.8,0,1.4-0.4,2-0.9l1.5,1.5C31.6,82.7,30.6,83.4,28.8,83.4z"
		/>
	<path class="st0" d="M34.2,83.2V71.1h2.5v12.1H34.2z"/>
	<path class="st0" d="M47.3,79.7h-6.2c0.2,1.1,1,1.7,2.2,1.7c0.8,0,1.5-0.3,2.2-0.9l1.4,1.3c-0.8,1-2,1.7-3.6,1.7
		c-2.7,0-4.6-1.9-4.6-4.6v0c0-2.5,1.8-4.6,4.4-4.6c3,0,4.3,2.3,4.3,4.8v0C47.3,79.3,47.3,79.4,47.3,79.7z M43,76.2
		c-1,0-1.7,0.7-1.9,1.9h3.8C44.7,77,44.1,76.2,43,76.2z"/>
	<path class="st0" d="M53.6,83.4c-2.7,0-4.8-2-4.8-4.6v0c0-2.5,2.1-4.6,4.8-4.6c2.7,0,4.8,2,4.8,4.6v0
		C58.4,81.3,56.3,83.4,53.6,83.4z M55.9,78.8c0-1.3-0.9-2.5-2.3-2.5c-1.4,0-2.3,1.1-2.3,2.4v0c0,1.3,0.9,2.5,2.3,2.5
		C55,81.3,55.9,80.1,55.9,78.8L55.9,78.8z"/>
	<path class="st0" d="M71.6,83.2v-1.3c-0.6,0.8-1.5,1.4-2.8,1.4c-2.1,0-4-1.6-4-4.6v0c0-3,1.9-4.6,4-4.6c1.3,0,2.2,0.6,2.8,1.3v-4.4
		h2.5v12.1H71.6z M71.6,78.8c0-1.5-1-2.5-2.2-2.5c-1.2,0-2.2,1-2.2,2.5v0c0,1.5,1,2.5,2.2,2.5C70.6,81.3,71.6,80.3,71.6,78.8
		L71.6,78.8z"/>
	<path class="st0" d="M84.6,79.7h-6.2c0.2,1.1,1,1.7,2.2,1.7c0.8,0,1.5-0.3,2.2-0.9l1.4,1.3c-0.8,1-2,1.7-3.6,1.7
		c-2.7,0-4.6-1.9-4.6-4.6v0c0-2.5,1.8-4.6,4.4-4.6c3,0,4.3,2.3,4.3,4.8v0C84.6,79.3,84.6,79.4,84.6,79.7z M80.3,76.2
		c-1,0-1.7,0.7-1.9,1.9h3.8C82,77,81.3,76.2,80.3,76.2z"/>
	<path class="st0" d="M97,74v9.2h-2.5V74h-3.5v-2.4h9.6V74H97z"/>
	<path class="st0" d="M108.7,79.7h-6.2c0.2,1.1,1,1.7,2.2,1.7c0.8,0,1.5-0.3,2.2-0.9l1.4,1.3c-0.8,1-2,1.7-3.6,1.7
		c-2.7,0-4.6-1.9-4.6-4.6v0c0-2.5,1.8-4.6,4.4-4.6c3,0,4.3,2.3,4.3,4.8v0C108.7,79.3,108.7,79.4,108.7,79.7z M104.4,76.2
		c-1,0-1.7,0.7-1.9,1.9h3.8C106.1,77,105.4,76.2,104.4,76.2z"/>
	<path class="st0" d="M114.8,83.4c-2.7,0-4.6-2.1-4.6-4.6v0c0-2.5,1.9-4.6,4.7-4.6c1.7,0,2.7,0.6,3.5,1.5l-1.5,1.7
		c-0.6-0.6-1.1-1-2-1c-1.3,0-2.2,1.1-2.2,2.4v0c0,1.4,0.9,2.5,2.3,2.5c0.8,0,1.4-0.4,2-0.9l1.5,1.5
		C117.5,82.7,116.5,83.4,114.8,83.4z"/>
	<path class="st0" d="M125.6,83.2v-5c0-1.2-0.6-1.8-1.5-1.8c-1,0-1.6,0.6-1.6,1.8v5H120v-8.9h2.5v1.3c0.6-0.7,1.3-1.4,2.6-1.4
		c1.9,0,3,1.3,3,3.3v5.7H125.6z"/>
	<path class="st0" d="M134.7,83.4c-2.7,0-4.8-2-4.8-4.6v0c0-2.5,2.1-4.6,4.8-4.6c2.7,0,4.8,2,4.8,4.6v0
		C139.5,81.3,137.5,83.4,134.7,83.4z M137,78.8c0-1.3-0.9-2.5-2.3-2.5c-1.4,0-2.3,1.1-2.3,2.4v0c0,1.3,0.9,2.5,2.3,2.5
		C136.2,81.3,137,80.1,137,78.8L137,78.8z"/>
	<path class="st0" d="M141.4,83.2V71.1h2.5v12.1H141.4z"/>
	<path class="st0" d="M150.7,83.4c-2.7,0-4.8-2-4.8-4.6v0c0-2.5,2.1-4.6,4.8-4.6c2.7,0,4.8,2,4.8,4.6v0
		C155.5,81.3,153.4,83.4,150.7,83.4z M153,78.8c0-1.3-0.9-2.5-2.3-2.5c-1.4,0-2.3,1.1-2.3,2.4v0c0,1.3,0.9,2.5,2.3,2.5
		C152.1,81.3,153,80.1,153,78.8L153,78.8z"/>
	<path class="st0" d="M161.3,85.9c-1.4,0-2.8-0.3-3.9-0.9l0.9-1.9c0.9,0.5,1.8,0.8,3,0.8c1.7,0,2.5-0.8,2.5-2.4v-0.4
		c-0.7,0.9-1.6,1.4-2.9,1.4c-2.1,0-3.9-1.5-3.9-4.1v0c0-2.6,1.9-4.1,3.9-4.1c1.4,0,2.2,0.6,2.9,1.3v-1.2h2.5v6.9
		C166.2,84.6,164.6,85.9,161.3,85.9z M163.7,78.3c0-1.2-0.9-2.1-2.2-2.1c-1.2,0-2.2,0.8-2.2,2.1v0c0,1.2,0.9,2.1,2.2,2.1
		C162.8,80.4,163.7,79.6,163.7,78.3L163.7,78.3z"/>
	<path class="st0" d="M168.5,73.4v-2.2h2.6v2.2H168.5z M168.6,83.2v-8.9h2.5v8.9H168.6z"/>
	<path class="st0" d="M178.7,83.2v-1c-0.6,0.7-1.5,1.1-2.7,1.1c-1.7,0-3-1-3-2.7v0c0-1.9,1.5-2.8,3.6-2.8c0.9,0,1.5,0.1,2.2,0.4V78
		c0-1-0.6-1.6-1.9-1.6c-1,0-1.6,0.2-2.5,0.5l-0.6-1.9c1-0.4,1.9-0.7,3.4-0.7c2.7,0,4,1.4,4,3.8v5.1H178.7z M178.7,79.6
		c-0.4-0.2-1-0.3-1.6-0.3c-1.1,0-1.7,0.4-1.7,1.2v0c0,0.7,0.6,1.1,1.4,1.1c1.2,0,2-0.6,2-1.6V79.6z"/>
	<path class="st0" d="M194.6,83.2v-1.3c-0.6,0.8-1.5,1.4-2.8,1.4c-2.1,0-4-1.6-4-4.6v0c0-3,1.9-4.6,4-4.6c1.3,0,2.2,0.6,2.8,1.3
		v-4.4h2.5v12.1H194.6z M194.7,78.8c0-1.5-1-2.5-2.2-2.5c-1.2,0-2.2,1-2.2,2.5v0c0,1.5,1,2.5,2.2,2.5
		C193.7,81.3,194.7,80.3,194.7,78.8L194.7,78.8z"/>
	<path class="st0" d="M207.7,79.7h-6.2c0.2,1.1,1,1.7,2.2,1.7c0.8,0,1.5-0.3,2.2-0.9l1.4,1.3c-0.8,1-2,1.7-3.6,1.7
		c-2.7,0-4.6-1.9-4.6-4.6v0c0-2.5,1.8-4.6,4.4-4.6c3,0,4.3,2.3,4.3,4.8v0C207.7,79.3,207.7,79.4,207.7,79.7z M203.4,76.2
		c-1,0-1.7,0.7-1.9,1.9h3.8C205.1,77,204.4,76.2,203.4,76.2z"/>
	<path class="st0" d="M214.9,83.2V71.6h2.5v11.6H214.9z"/>
	<path class="st0" d="M225.7,83.2v-5c0-1.2-0.6-1.8-1.5-1.8c-1,0-1.6,0.6-1.6,1.8v5h-2.5v-8.9h2.5v1.3c0.6-0.7,1.3-1.4,2.6-1.4
		c1.9,0,3,1.3,3,3.3v5.7H225.7z"/>
	<path class="st0" d="M234.2,73.1c-0.6,0-0.9,0.3-0.9,1v0.3h2v2.1h-2v6.7h-2.5v-6.7h-1v-2.1h1v-0.6c0-2,1-2.8,2.7-2.8
		c0.8,0,1.3,0.1,1.8,0.2v2.1C235,73.2,234.6,73.1,234.2,73.1z"/>
	<path class="st0" d="M240.9,83.4c-2.7,0-4.8-2-4.8-4.6v0c0-2.5,2.1-4.6,4.8-4.6c2.7,0,4.8,2,4.8,4.6v0
		C245.7,81.3,243.7,83.4,240.9,83.4z M243.2,78.8c0-1.3-0.9-2.5-2.3-2.5c-1.4,0-2.3,1.1-2.3,2.4v0c0,1.3,0.9,2.5,2.3,2.5
		C242.4,81.3,243.2,80.1,243.2,78.8L243.2,78.8z"/>
	<path class="st0" d="M252.8,76.8c-1.7,0-2.7,1-2.7,3.1v3.3h-2.5v-8.9h2.5v1.8c0.5-1.2,1.3-2,2.8-2v2.6H252.8z"/>
	<path class="st0" d="M265.5,83.2v-5c0-1.2-0.5-1.8-1.5-1.8c-0.9,0-1.5,0.6-1.5,1.8v5H260v-5c0-1.2-0.5-1.8-1.5-1.8
		c-0.9,0-1.5,0.6-1.5,1.8v5h-2.5v-8.9h2.5v1.3c0.6-0.7,1.3-1.4,2.6-1.4c1.2,0,2,0.5,2.5,1.4c0.8-0.9,1.7-1.4,2.9-1.4
		c1.9,0,3,1.1,3,3.3v5.8H265.5z"/>
	<path class="st0" d="M275.4,83.2v-1c-0.6,0.7-1.5,1.1-2.7,1.1c-1.7,0-3-1-3-2.7v0c0-1.9,1.5-2.8,3.6-2.8c0.9,0,1.5,0.1,2.2,0.4V78
		c0-1-0.6-1.6-1.9-1.6c-1,0-1.6,0.2-2.5,0.5l-0.6-1.9c1-0.4,1.9-0.7,3.4-0.7c2.7,0,4,1.4,4,3.8v5.1H275.4z M275.4,79.6
		c-0.4-0.2-1-0.3-1.6-0.3c-1.1,0-1.7,0.4-1.7,1.2v0c0,0.7,0.6,1.1,1.4,1.1c1.2,0,2-0.6,2-1.6V79.6z"/>
	<path class="st0" d="M279.5,78.8c0-2.5,1.9-4.6,4.7-4.6c1.7,0,2.7,0.6,3.5,1.5l-1.5,1.7c-0.6-0.6-1.1-1-2-1c-1.3,0-2.2,1.1-2.2,2.4
		c0,1.4,0.9,2.5,2.3,2.5c0.8,0,1.4-0.4,2-0.9l1.5,1.5c-0.8,0.9-1.7,1.5-3.2,1.6l-1.1,2.7l-2.1-0.9l1.4-2
		C280.8,82.6,279.5,80.9,279.5,78.8z"/>
	<path class="st0" d="M294.6,83.2v-1c-0.6,0.7-1.5,1.1-2.7,1.1c-1.7,0-3-1-3-2.7v0c0-1.9,1.5-2.8,3.6-2.8c0.9,0,1.5,0.1,2.2,0.4V78
		c0-1-0.6-1.6-1.9-1.6c-1,0-1.6,0.2-2.5,0.5l-0.6-1.9c1-0.4,1.9-0.7,3.4-0.7c2.7,0,4,1.4,4,3.8v5.1H294.6z M294.6,73.4
		c-1,0-1.9-0.6-2.5-0.6c-0.5,0-0.7,0.3-0.9,0.8l-1.3-0.4c0.4-1.4,0.9-2.3,2.1-2.3c1,0,1.9,0.6,2.5,0.6c0.5,0,0.7-0.3,0.9-0.8
		l1.3,0.4C296.2,72.5,295.7,73.4,294.6,73.4z M294.7,79.6c-0.4-0.2-1-0.3-1.6-0.3c-1.1,0-1.7,0.4-1.7,1.2v0c0,0.7,0.6,1.1,1.4,1.1
		c1.2,0,2-0.6,2-1.6V79.6z"/>
	<path class="st0" d="M303.6,83.4c-2.7,0-4.8-2-4.8-4.6v0c0-2.5,2.1-4.6,4.8-4.6c2.7,0,4.8,2,4.8,4.6v0
		C308.4,81.3,306.3,83.4,303.6,83.4z M305.9,78.8c0-1.3-0.9-2.5-2.3-2.5c-1.4,0-2.3,1.1-2.3,2.4v0c0,1.3,0.9,2.5,2.3,2.5
		C305,81.3,305.9,80.1,305.9,78.8L305.9,78.8z"/>
</g>
<g>
	<g>
		<rect x="71.6" y="0" class="st1" width="11.6" height="58.2"/>
	</g>
	<polygon class="st1" points="58.6,10.5 58.6,58.2 47,58.2 47,10.5 37.2,10.5 37.2,0 68.4,0 68.4,10.5 	"/>
	<polygon class="st1" points="24,58.2 11.6,29.8 11.6,58.2 0,58.2 0,0 10.1,0 22.2,28.5 22.2,0 33.8,0 33.8,58.2 	"/>
</g>
<rect x="89.5" y="25.3" class="st1" width="20.5" height="8.1"/>
<g>
	<path class="st1" d="M143.5,54c-2.3,2.5-6.3,4.3-11.4,4.3c-5.1,0-9-1.6-11.3-4.2c-2.6-2.8-3.4-6.8-3.4-12.7h10.4
		c0,2.3,0.2,4,1.1,5.2c0.6,0.7,1.6,1.3,3.2,1.3c1.6,0,2.6-0.5,3.3-1.4c0.7-0.9,1-2.5,1-4.8c0-5.5-0.8-6.4-4.5-8.1l-6.6-2.9
		c-5.3-2.4-7.5-5.5-7.5-14.4c0-5.3,1.6-9.7,4.7-12.7c2.5-2.3,5.7-3.6,9.7-3.6c4.6,0,8,1.3,10.3,3.6c2.9,2.8,4.1,7.5,4.1,13.3H136
		c0-2,0-3.8-0.9-5.2c-0.6-0.9-1.5-1.4-3-1.4c-1.5,0-2.4,0.6-3,1.5c-0.6,0.9-0.8,2.1-0.8,4c0,3.6,0.6,4.7,3.6,6l6.5,2.8
		c6.6,2.9,8.5,6.2,8.5,16.5C146.9,47.1,146.2,51,143.5,54z"/>
	<path class="st1" d="M174.2,58.2l-1.7-8.9h-12.1l-1.7,8.9h-10.9l13.4-57h10.3l13.5,57H174.2z M166.5,17.9l-4.1,21.2h8.1L166.5,17.9
		z"/>
	<path class="st1" d="M188,58.2v-57h10.5V48h13.6v10.2H188z"/>
	<path class="st1" d="M229,11.4v46.8h-10.4V11.4h-8.8V1.2h28v10.2H229z"/>
	<path class="st1" d="M266.8,53.5c-2.8,3.1-6.5,4.8-10.9,4.8c-4.4,0-8.1-1.6-10.9-4.8c-2.5-2.8-3.9-6.7-3.9-11.2V0.5h10.4v42.3
		c0,3.6,1.9,5.2,4.4,5.2c2.3,0,4.4-1.4,4.4-5.2V0.5h10.4v41.7C270.7,46.8,269.2,50.6,266.8,53.5z"/>
	<path class="st1" d="M296.7,58.1l-6.4-22.2h-3.4v22.2h-10.4v-57h14.9c11.4,0,14.6,6.5,14.6,17.4c0,6.1-0.8,11.5-5.9,15l7.6,24.7
		h-11V58.1z M291.3,11.3h-4.4v14.4h4.4c4,0,4.2-3.9,4.2-7.2C295.5,15.2,295.3,11.3,291.3,11.3z"/>
</g>
<g class="st2">
	<path class="st3" d="M9.6,83.2L4,75.9v7.4H1.5V71.6h2.4l5.4,7.1v-7.1h2.5v11.6H9.6z"/>
	<path class="st3" d="M19.8,83.2V82c-0.6,0.7-1.3,1.4-2.6,1.4c-1.9,0-3-1.3-3-3.3v-5.7h2.5v5c0,1.2,0.6,1.8,1.5,1.8
		c1,0,1.6-0.6,1.6-1.8v-5h2.5v8.9H19.8z M17.1,73.4l1.9-2.9l2.2,0.9l-2.1,2H17.1z"/>
	<path class="st3" d="M28.8,83.4c-2.7,0-4.6-2.1-4.6-4.6v0c0-2.5,1.9-4.6,4.7-4.6c1.7,0,2.7,0.6,3.5,1.5l-1.5,1.7
		c-0.6-0.6-1.1-1-2-1c-1.3,0-2.2,1.1-2.2,2.4v0c0,1.4,0.9,2.5,2.3,2.5c0.8,0,1.4-0.4,2-0.9l1.5,1.5C31.6,82.7,30.6,83.4,28.8,83.4z"
		/>
	<path class="st3" d="M34.2,83.2V71.1h2.5v12.1H34.2z"/>
	<path class="st3" d="M47.3,79.7h-6.2c0.2,1.1,1,1.7,2.2,1.7c0.8,0,1.5-0.3,2.2-0.9l1.4,1.3c-0.8,1-2,1.7-3.6,1.7
		c-2.7,0-4.6-1.9-4.6-4.6v0c0-2.5,1.8-4.6,4.4-4.6c3,0,4.3,2.3,4.3,4.8v0C47.3,79.3,47.3,79.4,47.3,79.7z M43,76.2
		c-1,0-1.7,0.7-1.9,1.9h3.8C44.7,77,44.1,76.2,43,76.2z"/>
	<path class="st3" d="M53.6,83.4c-2.7,0-4.8-2-4.8-4.6v0c0-2.5,2.1-4.6,4.8-4.6c2.7,0,4.8,2,4.8,4.6v0
		C58.4,81.3,56.3,83.4,53.6,83.4z M55.9,78.8c0-1.3-0.9-2.5-2.3-2.5c-1.4,0-2.3,1.1-2.3,2.4v0c0,1.3,0.9,2.5,2.3,2.5
		C55,81.3,55.9,80.1,55.9,78.8L55.9,78.8z"/>
	<path class="st3" d="M71.6,83.2v-1.3c-0.6,0.8-1.5,1.4-2.8,1.4c-2.1,0-4-1.6-4-4.6v0c0-3,1.9-4.6,4-4.6c1.3,0,2.2,0.6,2.8,1.3v-4.4
		h2.5v12.1H71.6z M71.6,78.8c0-1.5-1-2.5-2.2-2.5c-1.2,0-2.2,1-2.2,2.5v0c0,1.5,1,2.5,2.2,2.5C70.6,81.3,71.6,80.3,71.6,78.8
		L71.6,78.8z"/>
	<path class="st3" d="M84.6,79.7h-6.2c0.2,1.1,1,1.7,2.2,1.7c0.8,0,1.5-0.3,2.2-0.9l1.4,1.3c-0.8,1-2,1.7-3.6,1.7
		c-2.7,0-4.6-1.9-4.6-4.6v0c0-2.5,1.8-4.6,4.4-4.6c3,0,4.3,2.3,4.3,4.8v0C84.6,79.3,84.6,79.4,84.6,79.7z M80.3,76.2
		c-1,0-1.7,0.7-1.9,1.9h3.8C82,77,81.3,76.2,80.3,76.2z"/>
	<path class="st3" d="M97,74v9.2h-2.5V74h-3.5v-2.4h9.6V74H97z"/>
	<path class="st3" d="M108.7,79.7h-6.2c0.2,1.1,1,1.7,2.2,1.7c0.8,0,1.5-0.3,2.2-0.9l1.4,1.3c-0.8,1-2,1.7-3.6,1.7
		c-2.7,0-4.6-1.9-4.6-4.6v0c0-2.5,1.8-4.6,4.4-4.6c3,0,4.3,2.3,4.3,4.8v0C108.7,79.3,108.7,79.4,108.7,79.7z M104.4,76.2
		c-1,0-1.7,0.7-1.9,1.9h3.8C106.1,77,105.4,76.2,104.4,76.2z"/>
	<path class="st3" d="M114.8,83.4c-2.7,0-4.6-2.1-4.6-4.6v0c0-2.5,1.9-4.6,4.7-4.6c1.7,0,2.7,0.6,3.5,1.5l-1.5,1.7
		c-0.6-0.6-1.1-1-2-1c-1.3,0-2.2,1.1-2.2,2.4v0c0,1.4,0.9,2.5,2.3,2.5c0.8,0,1.4-0.4,2-0.9l1.5,1.5
		C117.5,82.7,116.5,83.4,114.8,83.4z"/>
	<path class="st3" d="M125.6,83.2v-5c0-1.2-0.6-1.8-1.5-1.8c-1,0-1.6,0.6-1.6,1.8v5H120v-8.9h2.5v1.3c0.6-0.7,1.3-1.4,2.6-1.4
		c1.9,0,3,1.3,3,3.3v5.7H125.6z"/>
	<path class="st3" d="M134.7,83.4c-2.7,0-4.8-2-4.8-4.6v0c0-2.5,2.1-4.6,4.8-4.6c2.7,0,4.8,2,4.8,4.6v0
		C139.5,81.3,137.5,83.4,134.7,83.4z M137,78.8c0-1.3-0.9-2.5-2.3-2.5c-1.4,0-2.3,1.1-2.3,2.4v0c0,1.3,0.9,2.5,2.3,2.5
		C136.2,81.3,137,80.1,137,78.8L137,78.8z"/>
	<path class="st3" d="M141.4,83.2V71.1h2.5v12.1H141.4z"/>
	<path class="st3" d="M150.7,83.4c-2.7,0-4.8-2-4.8-4.6v0c0-2.5,2.1-4.6,4.8-4.6c2.7,0,4.8,2,4.8,4.6v0
		C155.5,81.3,153.4,83.4,150.7,83.4z M153,78.8c0-1.3-0.9-2.5-2.3-2.5c-1.4,0-2.3,1.1-2.3,2.4v0c0,1.3,0.9,2.5,2.3,2.5
		C152.1,81.3,153,80.1,153,78.8L153,78.8z"/>
	<path class="st3" d="M161.3,85.9c-1.4,0-2.8-0.3-3.9-0.9l0.9-1.9c0.9,0.5,1.8,0.8,3,0.8c1.7,0,2.5-0.8,2.5-2.4v-0.4
		c-0.7,0.9-1.6,1.4-2.9,1.4c-2.1,0-3.9-1.5-3.9-4.1v0c0-2.6,1.9-4.1,3.9-4.1c1.4,0,2.2,0.6,2.9,1.3v-1.2h2.5v6.9
		C166.2,84.6,164.6,85.9,161.3,85.9z M163.7,78.3c0-1.2-0.9-2.1-2.2-2.1c-1.2,0-2.2,0.8-2.2,2.1v0c0,1.2,0.9,2.1,2.2,2.1
		C162.8,80.4,163.7,79.6,163.7,78.3L163.7,78.3z"/>
	<path class="st3" d="M168.5,73.4v-2.2h2.6v2.2H168.5z M168.6,83.2v-8.9h2.5v8.9H168.6z"/>
	<path class="st3" d="M178.7,83.2v-1c-0.6,0.7-1.5,1.1-2.7,1.1c-1.7,0-3-1-3-2.7v0c0-1.9,1.5-2.8,3.6-2.8c0.9,0,1.5,0.1,2.2,0.4V78
		c0-1-0.6-1.6-1.9-1.6c-1,0-1.6,0.2-2.5,0.5l-0.6-1.9c1-0.4,1.9-0.7,3.4-0.7c2.7,0,4,1.4,4,3.8v5.1H178.7z M178.7,79.6
		c-0.4-0.2-1-0.3-1.6-0.3c-1.1,0-1.7,0.4-1.7,1.2v0c0,0.7,0.6,1.1,1.4,1.1c1.2,0,2-0.6,2-1.6V79.6z"/>
	<path class="st3" d="M194.6,83.2v-1.3c-0.6,0.8-1.5,1.4-2.8,1.4c-2.1,0-4-1.6-4-4.6v0c0-3,1.9-4.6,4-4.6c1.3,0,2.2,0.6,2.8,1.3
		v-4.4h2.5v12.1H194.6z M194.7,78.8c0-1.5-1-2.5-2.2-2.5c-1.2,0-2.2,1-2.2,2.5v0c0,1.5,1,2.5,2.2,2.5
		C193.7,81.3,194.7,80.3,194.7,78.8L194.7,78.8z"/>
	<path class="st3" d="M207.7,79.7h-6.2c0.2,1.1,1,1.7,2.2,1.7c0.8,0,1.5-0.3,2.2-0.9l1.4,1.3c-0.8,1-2,1.7-3.6,1.7
		c-2.7,0-4.6-1.9-4.6-4.6v0c0-2.5,1.8-4.6,4.4-4.6c3,0,4.3,2.3,4.3,4.8v0C207.7,79.3,207.7,79.4,207.7,79.7z M203.4,76.2
		c-1,0-1.7,0.7-1.9,1.9h3.8C205.1,77,204.4,76.2,203.4,76.2z"/>
	<path class="st3" d="M214.9,83.2V71.6h2.5v11.6H214.9z"/>
	<path class="st3" d="M225.7,83.2v-5c0-1.2-0.6-1.8-1.5-1.8c-1,0-1.6,0.6-1.6,1.8v5h-2.5v-8.9h2.5v1.3c0.6-0.7,1.3-1.4,2.6-1.4
		c1.9,0,3,1.3,3,3.3v5.7H225.7z"/>
	<path class="st3" d="M234.2,73.1c-0.6,0-0.9,0.3-0.9,1v0.3h2v2.1h-2v6.7h-2.5v-6.7h-1v-2.1h1v-0.6c0-2,1-2.8,2.7-2.8
		c0.8,0,1.3,0.1,1.8,0.2v2.1C235,73.2,234.6,73.1,234.2,73.1z"/>
	<path class="st3" d="M240.9,83.4c-2.7,0-4.8-2-4.8-4.6v0c0-2.5,2.1-4.6,4.8-4.6c2.7,0,4.8,2,4.8,4.6v0
		C245.7,81.3,243.7,83.4,240.9,83.4z M243.2,78.8c0-1.3-0.9-2.5-2.3-2.5c-1.4,0-2.3,1.1-2.3,2.4v0c0,1.3,0.9,2.5,2.3,2.5
		C242.4,81.3,243.2,80.1,243.2,78.8L243.2,78.8z"/>
	<path class="st3" d="M252.8,76.8c-1.7,0-2.7,1-2.7,3.1v3.3h-2.5v-8.9h2.5v1.8c0.5-1.2,1.3-2,2.8-2v2.6H252.8z"/>
	<path class="st3" d="M265.5,83.2v-5c0-1.2-0.5-1.8-1.5-1.8c-0.9,0-1.5,0.6-1.5,1.8v5H260v-5c0-1.2-0.5-1.8-1.5-1.8
		c-0.9,0-1.5,0.6-1.5,1.8v5h-2.5v-8.9h2.5v1.3c0.6-0.7,1.3-1.4,2.6-1.4c1.2,0,2,0.5,2.5,1.4c0.8-0.9,1.7-1.4,2.9-1.4
		c1.9,0,3,1.1,3,3.3v5.8H265.5z"/>
	<path class="st3" d="M275.4,83.2v-1c-0.6,0.7-1.5,1.1-2.7,1.1c-1.7,0-3-1-3-2.7v0c0-1.9,1.5-2.8,3.6-2.8c0.9,0,1.5,0.1,2.2,0.4V78
		c0-1-0.6-1.6-1.9-1.6c-1,0-1.6,0.2-2.5,0.5l-0.6-1.9c1-0.4,1.9-0.7,3.4-0.7c2.7,0,4,1.4,4,3.8v5.1H275.4z M275.4,79.6
		c-0.4-0.2-1-0.3-1.6-0.3c-1.1,0-1.7,0.4-1.7,1.2v0c0,0.7,0.6,1.1,1.4,1.1c1.2,0,2-0.6,2-1.6V79.6z"/>
	<path class="st3" d="M279.5,78.8c0-2.5,1.9-4.6,4.7-4.6c1.7,0,2.7,0.6,3.5,1.5l-1.5,1.7c-0.6-0.6-1.1-1-2-1c-1.3,0-2.2,1.1-2.2,2.4
		c0,1.4,0.9,2.5,2.3,2.5c0.8,0,1.4-0.4,2-0.9l1.5,1.5c-0.8,0.9-1.7,1.5-3.2,1.6l-1.1,2.7l-2.1-0.9l1.4-2
		C280.8,82.6,279.5,80.9,279.5,78.8z"/>
	<path class="st3" d="M294.6,83.2v-1c-0.6,0.7-1.5,1.1-2.7,1.1c-1.7,0-3-1-3-2.7v0c0-1.9,1.5-2.8,3.6-2.8c0.9,0,1.5,0.1,2.2,0.4V78
		c0-1-0.6-1.6-1.9-1.6c-1,0-1.6,0.2-2.5,0.5l-0.6-1.9c1-0.4,1.9-0.7,3.4-0.7c2.7,0,4,1.4,4,3.8v5.1H294.6z M294.6,73.4
		c-1,0-1.9-0.6-2.5-0.6c-0.5,0-0.7,0.3-0.9,0.8l-1.3-0.4c0.4-1.4,0.9-2.3,2.1-2.3c1,0,1.9,0.6,2.5,0.6c0.5,0,0.7-0.3,0.9-0.8
		l1.3,0.4C296.2,72.5,295.7,73.4,294.6,73.4z M294.7,79.6c-0.4-0.2-1-0.3-1.6-0.3c-1.1,0-1.7,0.4-1.7,1.2v0c0,0.7,0.6,1.1,1.4,1.1
		c1.2,0,2-0.6,2-1.6V79.6z"/>
	<path class="st3" d="M303.6,83.4c-2.7,0-4.8-2-4.8-4.6v0c0-2.5,2.1-4.6,4.8-4.6c2.7,0,4.8,2,4.8,4.6v0
		C308.4,81.3,306.3,83.4,303.6,83.4z M305.9,78.8c0-1.3-0.9-2.5-2.3-2.5c-1.4,0-2.3,1.1-2.3,2.4v0c0,1.3,0.9,2.5,2.3,2.5
		C305,81.3,305.9,80.1,305.9,78.8L305.9,78.8z"/>
	<path class="st3" d="M314.9,79.3v-2.4h5.1v2.4H314.9z"/>
	<path class="st3" d="M7.3,98.9c-1.8,0-3.5-0.6-4.9-1.9l1.5-1.8c1,0.9,2.1,1.4,3.5,1.4c1,0,1.7-0.4,1.7-1.1v0c0-0.6-0.4-1-2.3-1.5
		c-2.3-0.6-3.8-1.2-3.8-3.5v0c0-2.1,1.7-3.5,4.1-3.5c1.7,0,3.1,0.5,4.3,1.5l-1.3,1.9c-1-0.7-2-1.1-3-1.1c-1,0-1.5,0.4-1.5,1v0
		c0,0.8,0.5,1,2.5,1.5c2.4,0.6,3.7,1.5,3.7,3.5v0C11.6,97.6,9.8,98.9,7.3,98.9z"/>
	<path class="st3" d="M22.2,98.8l-1.1-2.6h-4.9l-1.1,2.6h-2.6l5-11.7h2.4l5,11.7H22.2z M18.7,90.1l-1.5,3.8h3.1L18.7,90.1z"/>
	<path class="st3" d="M26.6,98.8V87.2h2.5v9.3h5.8v2.3H26.6z"/>
	<path class="st3" d="M40.5,89.5v9.2h-2.5v-9.2h-3.5v-2.4H44v2.4H40.5z"/>
	<path class="st3" d="M50.8,98.9c-3.1,0-5-1.7-5-5.1v-6.6h2.5v6.6c0,1.9,0.9,2.9,2.5,2.9c1.6,0,2.5-0.9,2.5-2.8v-6.6h2.5v6.5
		C55.9,97.2,53.9,98.9,50.8,98.9z"/>
	<path class="st3" d="M65.5,98.8L63,95h-2v3.7h-2.5V87.2h5.3c2.7,0,4.4,1.4,4.4,3.8v0c0,1.9-1,3-2.5,3.6l2.8,4.1H65.5z M65.5,91.1
		c0-1.1-0.8-1.7-2-1.7H61v3.3h2.6C64.8,92.8,65.5,92.1,65.5,91.1L65.5,91.1z"/>
</g>
<g>
	<path class="st0" d="M9.6,83.1L4,75.8v7.4H1.5V71.5h2.4l5.4,7.1v-7.1h2.5v11.6H9.6z"/>
	<path class="st0" d="M19.8,83.1v-1.3c-0.6,0.7-1.3,1.4-2.6,1.4c-1.9,0-3-1.3-3-3.3v-5.7h2.5v5c0,1.2,0.6,1.8,1.5,1.8
		c1,0,1.6-0.6,1.6-1.8v-5h2.5v8.9H19.8z M17.1,73.3l1.9-2.9l2.2,0.9l-2.1,2H17.1z"/>
	<path class="st0" d="M28.8,83.3c-2.7,0-4.6-2.1-4.6-4.6v0c0-2.5,1.9-4.6,4.7-4.6c1.7,0,2.7,0.6,3.5,1.5l-1.5,1.7
		c-0.6-0.6-1.1-1-2-1c-1.3,0-2.2,1.1-2.2,2.4v0c0,1.4,0.9,2.5,2.3,2.5c0.8,0,1.4-0.4,2-0.9l1.5,1.5C31.6,82.6,30.6,83.3,28.8,83.3z"
		/>
	<path class="st0" d="M34.2,83.1V71h2.5v12.1H34.2z"/>
	<path class="st0" d="M47.3,79.6h-6.2c0.2,1.1,1,1.7,2.2,1.7c0.8,0,1.5-0.3,2.2-0.9l1.4,1.3c-0.8,1-2,1.7-3.6,1.7
		c-2.7,0-4.6-1.9-4.6-4.6v0c0-2.5,1.8-4.6,4.4-4.6c3,0,4.3,2.3,4.3,4.8v0C47.3,79.2,47.3,79.3,47.3,79.6z M43,76.1
		c-1,0-1.7,0.7-1.9,1.9h3.8C44.7,76.9,44.1,76.1,43,76.1z"/>
	<path class="st0" d="M53.6,83.3c-2.7,0-4.8-2-4.8-4.6v0c0-2.5,2.1-4.6,4.8-4.6c2.7,0,4.8,2,4.8,4.6v0
		C58.4,81.3,56.3,83.3,53.6,83.3z M55.9,78.7c0-1.3-0.9-2.5-2.3-2.5c-1.4,0-2.3,1.1-2.3,2.4v0c0,1.3,0.9,2.5,2.3,2.5
		C55,81.2,55.9,80,55.9,78.7L55.9,78.7z"/>
	<path class="st0" d="M71.6,83.1v-1.3c-0.6,0.8-1.5,1.4-2.8,1.4c-2.1,0-4-1.6-4-4.6v0c0-3,1.9-4.6,4-4.6c1.3,0,2.2,0.6,2.8,1.3V71
		h2.5v12.1H71.6z M71.6,78.7c0-1.5-1-2.5-2.2-2.5c-1.2,0-2.2,1-2.2,2.5v0c0,1.5,1,2.5,2.2,2.5C70.6,81.2,71.6,80.2,71.6,78.7
		L71.6,78.7z"/>
	<path class="st0" d="M84.6,79.6h-6.2c0.2,1.1,1,1.7,2.2,1.7c0.8,0,1.5-0.3,2.2-0.9l1.4,1.3c-0.8,1-2,1.7-3.6,1.7
		c-2.7,0-4.6-1.9-4.6-4.6v0c0-2.5,1.8-4.6,4.4-4.6c3,0,4.3,2.3,4.3,4.8v0C84.6,79.2,84.6,79.3,84.6,79.6z M80.3,76.1
		c-1,0-1.7,0.7-1.9,1.9h3.8C82,76.9,81.3,76.1,80.3,76.1z"/>
	<path class="st0" d="M97,73.9v9.2h-2.5v-9.2h-3.5v-2.4h9.6v2.4H97z"/>
	<path class="st0" d="M108.7,79.6h-6.2c0.2,1.1,1,1.7,2.2,1.7c0.8,0,1.5-0.3,2.2-0.9l1.4,1.3c-0.8,1-2,1.7-3.6,1.7
		c-2.7,0-4.6-1.9-4.6-4.6v0c0-2.5,1.8-4.6,4.4-4.6c3,0,4.3,2.3,4.3,4.8v0C108.7,79.2,108.7,79.3,108.7,79.6z M104.4,76.1
		c-1,0-1.7,0.7-1.9,1.9h3.8C106.1,76.9,105.4,76.1,104.4,76.1z"/>
	<path class="st0" d="M114.8,83.3c-2.7,0-4.6-2.1-4.6-4.6v0c0-2.5,1.9-4.6,4.7-4.6c1.7,0,2.7,0.6,3.5,1.5l-1.5,1.7
		c-0.6-0.6-1.1-1-2-1c-1.3,0-2.2,1.1-2.2,2.4v0c0,1.4,0.9,2.5,2.3,2.5c0.8,0,1.4-0.4,2-0.9l1.5,1.5
		C117.5,82.6,116.5,83.3,114.8,83.3z"/>
	<path class="st0" d="M125.6,83.1v-5c0-1.2-0.6-1.8-1.5-1.8c-1,0-1.6,0.6-1.6,1.8v5H120v-8.9h2.5v1.3c0.6-0.7,1.3-1.4,2.6-1.4
		c1.9,0,3,1.3,3,3.3v5.7H125.6z"/>
	<path class="st0" d="M134.7,83.3c-2.7,0-4.8-2-4.8-4.6v0c0-2.5,2.1-4.6,4.8-4.6c2.7,0,4.8,2,4.8,4.6v0
		C139.5,81.3,137.5,83.3,134.7,83.3z M137,78.7c0-1.3-0.9-2.5-2.3-2.5c-1.4,0-2.3,1.1-2.3,2.4v0c0,1.3,0.9,2.5,2.3,2.5
		C136.2,81.2,137,80,137,78.7L137,78.7z"/>
	<path class="st0" d="M141.4,83.1V71h2.5v12.1H141.4z"/>
	<path class="st0" d="M150.7,83.3c-2.7,0-4.8-2-4.8-4.6v0c0-2.5,2.1-4.6,4.8-4.6c2.7,0,4.8,2,4.8,4.6v0
		C155.5,81.3,153.4,83.3,150.7,83.3z M153,78.7c0-1.3-0.9-2.5-2.3-2.5c-1.4,0-2.3,1.1-2.3,2.4v0c0,1.3,0.9,2.5,2.3,2.5
		C152.1,81.2,153,80,153,78.7L153,78.7z"/>
	<path class="st0" d="M161.3,85.8c-1.4,0-2.8-0.3-3.9-0.9l0.9-1.9c0.9,0.5,1.8,0.8,3,0.8c1.7,0,2.5-0.8,2.5-2.4V81
		c-0.7,0.9-1.6,1.4-2.9,1.4c-2.1,0-3.9-1.5-3.9-4.1v0c0-2.6,1.9-4.1,3.9-4.1c1.4,0,2.2,0.6,2.9,1.3v-1.2h2.5v6.9
		C166.2,84.5,164.6,85.8,161.3,85.8z M163.7,78.2c0-1.2-0.9-2.1-2.2-2.1c-1.2,0-2.2,0.8-2.2,2.1v0c0,1.2,0.9,2.1,2.2,2.1
		C162.8,80.3,163.7,79.5,163.7,78.2L163.7,78.2z"/>
	<path class="st0" d="M168.5,73.3V71h2.6v2.2H168.5z M168.6,83.1v-8.9h2.5v8.9H168.6z"/>
	<path class="st0" d="M178.7,83.1v-1c-0.6,0.7-1.5,1.1-2.7,1.1c-1.7,0-3-1-3-2.7v0c0-1.9,1.5-2.8,3.6-2.8c0.9,0,1.5,0.1,2.2,0.4
		v-0.1c0-1-0.6-1.6-1.9-1.6c-1,0-1.6,0.2-2.5,0.5l-0.6-1.9c1-0.4,1.9-0.7,3.4-0.7c2.7,0,4,1.4,4,3.8v5.1H178.7z M178.7,79.5
		c-0.4-0.2-1-0.3-1.6-0.3c-1.1,0-1.7,0.4-1.7,1.2v0c0,0.7,0.6,1.1,1.4,1.1c1.2,0,2-0.6,2-1.6V79.5z"/>
	<path class="st0" d="M194.6,83.1v-1.3c-0.6,0.8-1.5,1.4-2.8,1.4c-2.1,0-4-1.6-4-4.6v0c0-3,1.9-4.6,4-4.6c1.3,0,2.2,0.6,2.8,1.3V71
		h2.5v12.1H194.6z M194.7,78.7c0-1.5-1-2.5-2.2-2.5c-1.2,0-2.2,1-2.2,2.5v0c0,1.5,1,2.5,2.2,2.5C193.7,81.2,194.7,80.2,194.7,78.7
		L194.7,78.7z"/>
	<path class="st0" d="M207.7,79.6h-6.2c0.2,1.1,1,1.7,2.2,1.7c0.8,0,1.5-0.3,2.2-0.9l1.4,1.3c-0.8,1-2,1.7-3.6,1.7
		c-2.7,0-4.6-1.9-4.6-4.6v0c0-2.5,1.8-4.6,4.4-4.6c3,0,4.3,2.3,4.3,4.8v0C207.7,79.2,207.7,79.3,207.7,79.6z M203.4,76.1
		c-1,0-1.7,0.7-1.9,1.9h3.8C205.1,76.9,204.4,76.1,203.4,76.1z"/>
	<path class="st0" d="M214.9,83.1V71.5h2.5v11.6H214.9z"/>
	<path class="st0" d="M225.7,83.1v-5c0-1.2-0.6-1.8-1.5-1.8c-1,0-1.6,0.6-1.6,1.8v5h-2.5v-8.9h2.5v1.3c0.6-0.7,1.3-1.4,2.6-1.4
		c1.9,0,3,1.3,3,3.3v5.7H225.7z"/>
	<path class="st0" d="M234.2,73c-0.6,0-0.9,0.3-0.9,1v0.3h2v2.1h-2v6.7h-2.5v-6.7h-1v-2.1h1v-0.6c0-2,1-2.8,2.7-2.8
		c0.8,0,1.3,0.1,1.8,0.2v2.1C235,73.1,234.6,73,234.2,73z"/>
	<path class="st0" d="M240.9,83.3c-2.7,0-4.8-2-4.8-4.6v0c0-2.5,2.1-4.6,4.8-4.6c2.7,0,4.8,2,4.8,4.6v0
		C245.7,81.3,243.7,83.3,240.9,83.3z M243.2,78.7c0-1.3-0.9-2.5-2.3-2.5c-1.4,0-2.3,1.1-2.3,2.4v0c0,1.3,0.9,2.5,2.3,2.5
		C242.4,81.2,243.2,80,243.2,78.7L243.2,78.7z"/>
	<path class="st0" d="M252.8,76.7c-1.7,0-2.7,1-2.7,3.1v3.3h-2.5v-8.9h2.5V76c0.5-1.2,1.3-2,2.8-2v2.6H252.8z"/>
	<path class="st0" d="M265.5,83.1v-5c0-1.2-0.5-1.8-1.5-1.8c-0.9,0-1.5,0.6-1.5,1.8v5H260v-5c0-1.2-0.5-1.8-1.5-1.8
		c-0.9,0-1.5,0.6-1.5,1.8v5h-2.5v-8.9h2.5v1.3c0.6-0.7,1.3-1.4,2.6-1.4c1.2,0,2,0.5,2.5,1.4c0.8-0.9,1.7-1.4,2.9-1.4
		c1.9,0,3,1.1,3,3.3v5.8H265.5z"/>
	<path class="st0" d="M275.4,83.1v-1c-0.6,0.7-1.5,1.1-2.7,1.1c-1.7,0-3-1-3-2.7v0c0-1.9,1.5-2.8,3.6-2.8c0.9,0,1.5,0.1,2.2,0.4
		v-0.1c0-1-0.6-1.6-1.9-1.6c-1,0-1.6,0.2-2.5,0.5l-0.6-1.9c1-0.4,1.9-0.7,3.4-0.7c2.7,0,4,1.4,4,3.8v5.1H275.4z M275.4,79.5
		c-0.4-0.2-1-0.3-1.6-0.3c-1.1,0-1.7,0.4-1.7,1.2v0c0,0.7,0.6,1.1,1.4,1.1c1.2,0,2-0.6,2-1.6V79.5z"/>
	<path class="st0" d="M279.5,78.7c0-2.5,1.9-4.6,4.7-4.6c1.7,0,2.7,0.6,3.5,1.5l-1.5,1.7c-0.6-0.6-1.1-1-2-1c-1.3,0-2.2,1.1-2.2,2.4
		c0,1.4,0.9,2.5,2.3,2.5c0.8,0,1.4-0.4,2-0.9l1.5,1.5c-0.8,0.9-1.7,1.5-3.2,1.6l-1.1,2.7l-2.1-0.9l1.4-2
		C280.8,82.5,279.5,80.8,279.5,78.7z"/>
	<path class="st0" d="M294.6,83.1v-1c-0.6,0.7-1.5,1.1-2.7,1.1c-1.7,0-3-1-3-2.7v0c0-1.9,1.5-2.8,3.6-2.8c0.9,0,1.5,0.1,2.2,0.4
		v-0.1c0-1-0.6-1.6-1.9-1.6c-1,0-1.6,0.2-2.5,0.5l-0.6-1.9c1-0.4,1.9-0.7,3.4-0.7c2.7,0,4,1.4,4,3.8v5.1H294.6z M294.6,73.3
		c-1,0-1.9-0.6-2.5-0.6c-0.5,0-0.7,0.3-0.9,0.8l-1.3-0.4c0.4-1.4,0.9-2.3,2.1-2.3c1,0,1.9,0.6,2.5,0.6c0.5,0,0.7-0.3,0.9-0.8
		l1.3,0.4C296.2,72.4,295.7,73.3,294.6,73.3z M294.7,79.5c-0.4-0.2-1-0.3-1.6-0.3c-1.1,0-1.7,0.4-1.7,1.2v0c0,0.7,0.6,1.1,1.4,1.1
		c1.2,0,2-0.6,2-1.6V79.5z"/>
	<path class="st0" d="M303.6,83.3c-2.7,0-4.8-2-4.8-4.6v0c0-2.5,2.1-4.6,4.8-4.6c2.7,0,4.8,2,4.8,4.6v0
		C308.4,81.3,306.3,83.3,303.6,83.3z M305.9,78.7c0-1.3-0.9-2.5-2.3-2.5c-1.4,0-2.3,1.1-2.3,2.4v0c0,1.3,0.9,2.5,2.3,2.5
		C305,81.2,305.9,80,305.9,78.7L305.9,78.7z"/>
</g>
</svg>
